<svg version="1.1" xmlns="http://www.w3.org/2000/svg" xmlns:xlink="http://www.w3.org/1999/xlink" width="622.17724609375" height="459"><defs/><g><text fill="#eeeeee" stroke="none" font-family="Arial" font-size="24px" font-style="normal" font-weight="normal" text-decoration="none" x="0" y="0">UNREGISTERED</text><text fill="#eeeeee" stroke="none" font-family="Arial" font-size="24px" font-style="normal" font-weight="normal" text-decoration="none" x="0" y="30">UNREGISTERED</text><text fill="#eeeeee" stroke="none" font-family="Arial" font-size="24px" font-style="normal" font-weight="normal" text-decoration="none" x="0" y="60">UNREGISTERED</text><text fill="#eeeeee" stroke="none" font-family="Arial" font-size="24px" font-style="normal" font-weight="normal" text-decoration="none" x="0" y="90">UNREGISTERED</text><text fill="#eeeeee" stroke="none" font-family="Arial" font-size="24px" font-style="normal" font-weight="normal" text-decoration="none" x="0" y="120">UNREGISTERED</text><text fill="#eeeeee" stroke="none" font-family="Arial" font-size="24px" font-style="normal" font-weight="normal" text-decoration="none" x="0" y="150">UNREGISTERED</text><text fill="#eeeeee" stroke="none" font-family="Arial" font-size="24px" font-style="normal" font-weight="normal" text-decoration="none" x="0" y="180">UNREGISTERED</text><text fill="#eeeeee" stroke="none" font-family="Arial" font-size="24px" font-style="normal" font-weight="normal" text-decoration="none" x="0" y="210">UNREGISTERED</text><text fill="#eeeeee" stroke="none" font-family="Arial" font-size="24px" font-style="normal" font-weight="normal" text-decoration="none" x="0" y="240">UNREGISTERED</text><text fill="#eeeeee" stroke="none" font-family="Arial" font-size="24px" font-style="normal" font-weight="normal" text-decoration="none" x="0" y="270">UNREGISTERED</text><text fill="#eeeeee" stroke="none" font-family="Arial" font-size="24px" font-style="normal" font-weight="normal" text-decoration="none" x="0" y="300">UNREGISTERED</text><text fill="#eeeeee" stroke="none" font-family="Arial" font-size="24px" font-style="normal" font-weight="normal" text-decoration="none" x="0" y="330">UNREGISTERED</text><text fill="#eeeeee" stroke="none" font-family="Arial" font-size="24px" font-style="normal" font-weight="normal" text-decoration="none" x="0" y="360">UNREGISTERED</text><text fill="#eeeeee" stroke="none" font-family="Arial" font-size="24px" font-style="normal" font-weight="normal" text-decoration="none" x="0" y="390">UNREGISTERED</text><text fill="#eeeeee" stroke="none" font-family="Arial" font-size="24px" font-style="normal" font-weight="normal" text-decoration="none" x="0" y="420">UNREGISTERED</text><text fill="#eeeeee" stroke="none" font-family="Arial" font-size="24px" font-style="normal" font-weight="normal" text-decoration="none" x="0" y="450">UNREGISTERED</text><text fill="#eeeeee" stroke="none" font-family="Arial" font-size="24px" font-style="normal" font-weight="normal" text-decoration="none" x="200" y="0">UNREGISTERED</text><text fill="#eeeeee" stroke="none" font-family="Arial" font-size="24px" font-style="normal" font-weight="normal" text-decoration="none" x="200" y="30">UNREGISTERED</text><text fill="#eeeeee" stroke="none" font-family="Arial" font-size="24px" font-style="normal" font-weight="normal" text-decoration="none" x="200" y="60">UNREGISTERED</text><text fill="#eeeeee" stroke="none" font-family="Arial" font-size="24px" font-style="normal" font-weight="normal" text-decoration="none" x="200" y="90">UNREGISTERED</text><text fill="#eeeeee" stroke="none" font-family="Arial" font-size="24px" font-style="normal" font-weight="normal" text-decoration="none" x="200" y="120">UNREGISTERED</text><text fill="#eeeeee" stroke="none" font-family="Arial" font-size="24px" font-style="normal" font-weight="normal" text-decoration="none" x="200" y="150">UNREGISTERED</text><text fill="#eeeeee" stroke="none" font-family="Arial" font-size="24px" font-style="normal" font-weight="normal" text-decoration="none" x="200" y="180">UNREGISTERED</text><text fill="#eeeeee" stroke="none" font-family="Arial" font-size="24px" font-style="normal" font-weight="normal" text-decoration="none" x="200" y="210">UNREGISTERED</text><text fill="#eeeeee" stroke="none" font-family="Arial" font-size="24px" font-style="normal" font-weight="normal" text-decoration="none" x="200" y="240">UNREGISTERED</text><text fill="#eeeeee" stroke="none" font-family="Arial" font-size="24px" font-style="normal" font-weight="normal" text-decoration="none" x="200" y="270">UNREGISTERED</text><text fill="#eeeeee" stroke="none" font-family="Arial" font-size="24px" font-style="normal" font-weight="normal" text-decoration="none" x="200" y="300">UNREGISTERED</text><text fill="#eeeeee" stroke="none" font-family="Arial" font-size="24px" font-style="normal" font-weight="normal" text-decoration="none" x="200" y="330">UNREGISTERED</text><text fill="#eeeeee" stroke="none" font-family="Arial" font-size="24px" font-style="normal" font-weight="normal" text-decoration="none" x="200" y="360">UNREGISTERED</text><text fill="#eeeeee" stroke="none" font-family="Arial" font-size="24px" font-style="normal" font-weight="normal" text-decoration="none" x="200" y="390">UNREGISTERED</text><text fill="#eeeeee" stroke="none" font-family="Arial" font-size="24px" font-style="normal" font-weight="normal" text-decoration="none" x="200" y="420">UNREGISTERED</text><text fill="#eeeeee" stroke="none" font-family="Arial" font-size="24px" font-style="normal" font-weight="normal" text-decoration="none" x="200" y="450">UNREGISTERED</text><text fill="#eeeeee" stroke="none" font-family="Arial" font-size="24px" font-style="normal" font-weight="normal" text-decoration="none" x="400" y="0">UNREGISTERED</text><text fill="#eeeeee" stroke="none" font-family="Arial" font-size="24px" font-style="normal" font-weight="normal" text-decoration="none" x="400" y="30">UNREGISTERED</text><text fill="#eeeeee" stroke="none" font-family="Arial" font-size="24px" font-style="normal" font-weight="normal" text-decoration="none" x="400" y="60">UNREGISTERED</text><text fill="#eeeeee" stroke="none" font-family="Arial" font-size="24px" font-style="normal" font-weight="normal" text-decoration="none" x="400" y="90">UNREGISTERED</text><text fill="#eeeeee" stroke="none" font-family="Arial" font-size="24px" font-style="normal" font-weight="normal" text-decoration="none" x="400" y="120">UNREGISTERED</text><text fill="#eeeeee" stroke="none" font-family="Arial" font-size="24px" font-style="normal" font-weight="normal" text-decoration="none" x="400" y="150">UNREGISTERED</text><text fill="#eeeeee" stroke="none" font-family="Arial" font-size="24px" font-style="normal" font-weight="normal" text-decoration="none" x="400" y="180">UNREGISTERED</text><text fill="#eeeeee" stroke="none" font-family="Arial" font-size="24px" font-style="normal" font-weight="normal" text-decoration="none" x="400" y="210">UNREGISTERED</text><text fill="#eeeeee" stroke="none" font-family="Arial" font-size="24px" font-style="normal" font-weight="normal" text-decoration="none" x="400" y="240">UNREGISTERED</text><text fill="#eeeeee" stroke="none" font-family="Arial" font-size="24px" font-style="normal" font-weight="normal" text-decoration="none" x="400" y="270">UNREGISTERED</text><text fill="#eeeeee" stroke="none" font-family="Arial" font-size="24px" font-style="normal" font-weight="normal" text-decoration="none" x="400" y="300">UNREGISTERED</text><text fill="#eeeeee" stroke="none" font-family="Arial" font-size="24px" font-style="normal" font-weight="normal" text-decoration="none" x="400" y="330">UNREGISTERED</text><text fill="#eeeeee" stroke="none" font-family="Arial" font-size="24px" font-style="normal" font-weight="normal" text-decoration="none" x="400" y="360">UNREGISTERED</text><text fill="#eeeeee" stroke="none" font-family="Arial" font-size="24px" font-style="normal" font-weight="normal" text-decoration="none" x="400" y="390">UNREGISTERED</text><text fill="#eeeeee" stroke="none" font-family="Arial" font-size="24px" font-style="normal" font-weight="normal" text-decoration="none" x="400" y="420">UNREGISTERED</text><text fill="#eeeeee" stroke="none" font-family="Arial" font-size="24px" font-style="normal" font-weight="normal" text-decoration="none" x="400" y="450">UNREGISTERED</text><text fill="#eeeeee" stroke="none" font-family="Arial" font-size="24px" font-style="normal" font-weight="normal" text-decoration="none" x="600" y="0">UNREGISTERED</text><text fill="#eeeeee" stroke="none" font-family="Arial" font-size="24px" font-style="normal" font-weight="normal" text-decoration="none" x="600" y="30">UNREGISTERED</text><text fill="#eeeeee" stroke="none" font-family="Arial" font-size="24px" font-style="normal" font-weight="normal" text-decoration="none" x="600" y="60">UNREGISTERED</text><text fill="#eeeeee" stroke="none" font-family="Arial" font-size="24px" font-style="normal" font-weight="normal" text-decoration="none" x="600" y="90">UNREGISTERED</text><text fill="#eeeeee" stroke="none" font-family="Arial" font-size="24px" font-style="normal" font-weight="normal" text-decoration="none" x="600" y="120">UNREGISTERED</text><text fill="#eeeeee" stroke="none" font-family="Arial" font-size="24px" font-style="normal" font-weight="normal" text-decoration="none" x="600" y="150">UNREGISTERED</text><text fill="#eeeeee" stroke="none" font-family="Arial" font-size="24px" font-style="normal" font-weight="normal" text-decoration="none" x="600" y="180">UNREGISTERED</text><text fill="#eeeeee" stroke="none" font-family="Arial" font-size="24px" font-style="normal" font-weight="normal" text-decoration="none" x="600" y="210">UNREGISTERED</text><text fill="#eeeeee" stroke="none" font-family="Arial" font-size="24px" font-style="normal" font-weight="normal" text-decoration="none" x="600" y="240">UNREGISTERED</text><text fill="#eeeeee" stroke="none" font-family="Arial" font-size="24px" font-style="normal" font-weight="normal" text-decoration="none" x="600" y="270">UNREGISTERED</text><text fill="#eeeeee" stroke="none" font-family="Arial" font-size="24px" font-style="normal" font-weight="normal" text-decoration="none" x="600" y="300">UNREGISTERED</text><text fill="#eeeeee" stroke="none" font-family="Arial" font-size="24px" font-style="normal" font-weight="normal" text-decoration="none" x="600" y="330">UNREGISTERED</text><text fill="#eeeeee" stroke="none" font-family="Arial" font-size="24px" font-style="normal" font-weight="normal" text-decoration="none" x="600" y="360">UNREGISTERED</text><text fill="#eeeeee" stroke="none" font-family="Arial" font-size="24px" font-style="normal" font-weight="normal" text-decoration="none" x="600" y="390">UNREGISTERED</text><text fill="#eeeeee" stroke="none" font-family="Arial" font-size="24px" font-style="normal" font-weight="normal" text-decoration="none" x="600" y="420">UNREGISTERED</text><text fill="#eeeeee" stroke="none" font-family="Arial" font-size="24px" font-style="normal" font-weight="normal" text-decoration="none" x="600" y="450">UNREGISTERED</text><g transform="translate(-30,-22) scale(1,1)"><path fill="#C0C0C0" stroke="none" d="M 191 175 C 191 161.7451648 230.62279519999998 151 279.5 151 C 328.3772048 151 368 161.7451648 368 175 C 368 188.2548352 328.3772048 199 279.5 199 C 230.62279519999998 199 191 188.2548352 191 175 Z" opacity="0.2"/></g><g transform="translate(-30,-22) scale(1,1)"><path fill="#ffffff" stroke="none" d="M 184 168 C 184 154.7451648 223.62279519999998 144 272.5 144 C 321.3772048 144 361 154.7451648 361 168 C 361 181.2548352 321.3772048 192 272.5 192 C 223.62279519999998 192 184 181.2548352 184 168 Z"/></g><g transform="translate(-30,-22) scale(1,1)"><path fill="none" stroke="#000000" d="M 184 168 C 184 154.7451648 223.62279519999998 144 272.5 144 C 321.3772048 144 361 154.7451648 361 168 C 361 181.2548352 321.3772048 192 272.5 192 C 223.62279519999998 192 184 181.2548352 184 168 Z" stroke-miterlimit="10"/></g><g transform="translate(-30,-22) scale(1,1)"><g><path fill="none" stroke="none"/><text fill="#000000" stroke="none" font-family="Arial" font-size="13px" font-style="normal" font-weight="bold" text-decoration="none" x="226.635009765625" y="173.5">Fazer o pedido</text></g></g><g transform="translate(-30,-22) scale(1,1)"><path fill="#ffffff" stroke="none" d="M 57.49162571022727 233.68 C 57.49162571022727 228.886167936 61.377468035172726 225 66.1708984375 225 C 70.96432883982727 225 74.85017116477273 228.886167936 74.85017116477273 233.68 C 74.85017116477273 238.47383206400002 70.96432883982727 242.36 66.1708984375 242.36 C 61.377468035172726 242.36 57.49162571022727 238.47383206400002 57.49162571022727 233.68 Z"/></g><g transform="translate(-30,-22) scale(1,1)"><path fill="none" stroke="#000000" d="M 57.49162571022727 233.68 C 57.49162571022727 228.886167936 61.377468035172726 225 66.1708984375 225 C 70.96432883982727 225 74.85017116477273 228.886167936 74.85017116477273 233.68 C 74.85017116477273 238.47383206400002 70.96432883982727 242.36 66.1708984375 242.36 C 61.377468035172726 242.36 57.49162571022727 238.47383206400002 57.49162571022727 233.68 Z" stroke-miterlimit="10"/></g><g transform="translate(-30,-22) scale(1,1)"><path fill="none" stroke="#000000" d="M 66.1708984375 242.36 L 66.1708984375 259.64" stroke-miterlimit="10"/></g><g transform="translate(-30,-22) scale(1,1)"><path fill="none" stroke="#000000" d="M 56.98108025568182 248.84 L 75.36071661931818 248.84" stroke-miterlimit="10"/></g><g transform="translate(-30,-22) scale(1,1)"><path fill="none" stroke="#000000" d="M 66.1708984375 259.64 L 53.407262073863635 277" stroke-miterlimit="10"/></g><g transform="translate(-30,-22) scale(1,1)"><path fill="none" stroke="#000000" d="M 66.1708984375 259.64 L 78.93453480113637 277" stroke-miterlimit="10"/></g><g transform="translate(-30,-22) scale(1,1)"><g><path fill="none" stroke="none"/><text fill="#000000" stroke="none" font-family="Arial" font-size="13px" font-style="normal" font-weight="bold" text-decoration="none" x="44.5" y="296">Cliente</text></g></g><g transform="translate(-30,-22) scale(1,1)"><path fill="#C0C0C0" stroke="none" d="M 215 255 C 215 241.7451648 252.6080768 231 299 231 C 345.3919232 231 383 241.7451648 383 255 C 383 268.2548352 345.3919232 279 299 279 C 252.6080768 279 215 268.2548352 215 255 Z" opacity="0.2"/></g><g transform="translate(-30,-22) scale(1,1)"><path fill="#ffffff" stroke="none" d="M 208 248 C 208 234.7451648 245.6080768 224 292 224 C 338.3919232 224 376 234.7451648 376 248 C 376 261.2548352 338.3919232 272 292 272 C 245.6080768 272 208 261.2548352 208 248 Z"/></g><g transform="translate(-30,-22) scale(1,1)"><path fill="none" stroke="#000000" d="M 208 248 C 208 234.7451648 245.6080768 224 292 224 C 338.3919232 224 376 234.7451648 376 248 C 376 261.2548352 338.3919232 272 292 272 C 245.6080768 272 208 261.2548352 208 248 Z" stroke-miterlimit="10"/></g><g transform="translate(-30,-22) scale(1,1)"><g><path fill="none" stroke="none"/><text fill="#000000" stroke="none" font-family="Arial" font-size="13px" font-style="normal" font-weight="bold" text-decoration="none" x="256.964111328125" y="253.5">Pagamento</text></g></g><g transform="translate(-30,-22) scale(1,1)"><path fill="none" stroke="#000000" d="M 93 250 L 218 193" stroke-miterlimit="10"/></g><g transform="translate(-30,-22) scale(1,1)"><path fill="none" stroke="#000000" d="M 93 261 L 207 254" stroke-miterlimit="10"/></g><g transform="translate(-30,-22) scale(1,1)"><path fill="#ffffff" stroke="none" d="M 567.5770749289773 401.68 C 567.5770749289773 396.886167936 571.4629172539227 393 576.25634765625 393 C 581.0497780585773 393 584.9356203835227 396.886167936 584.9356203835227 401.68 C 584.9356203835227 406.473832064 581.0497780585773 410.36 576.25634765625 410.36 C 571.4629172539227 410.36 567.5770749289773 406.473832064 567.5770749289773 401.68 Z"/></g><g transform="translate(-30,-22) scale(1,1)"><path fill="none" stroke="#000000" d="M 567.5770749289773 401.68 C 567.5770749289773 396.886167936 571.4629172539227 393 576.25634765625 393 C 581.0497780585773 393 584.9356203835227 396.886167936 584.9356203835227 401.68 C 584.9356203835227 406.473832064 581.0497780585773 410.36 576.25634765625 410.36 C 571.4629172539227 410.36 567.5770749289773 406.473832064 567.5770749289773 401.68 Z" stroke-miterlimit="10"/></g><g transform="translate(-30,-22) scale(1,1)"><path fill="none" stroke="#000000" d="M 576.25634765625 410.36 L 576.25634765625 427.64" stroke-miterlimit="10"/></g><g transform="translate(-30,-22) scale(1,1)"><path fill="none" stroke="#000000" d="M 567.0665294744318 416.84 L 585.4461658380682 416.84" stroke-miterlimit="10"/></g><g transform="translate(-30,-22) scale(1,1)"><path fill="none" stroke="#000000" d="M 576.25634765625 427.64 L 563.4927112926136 445" stroke-miterlimit="10"/></g><g transform="translate(-30,-22) scale(1,1)"><path fill="none" stroke="#000000" d="M 576.25634765625 427.64 L 589.0199840198864 445" stroke-miterlimit="10"/></g><g transform="translate(-30,-22) scale(1,1)"><g><path fill="none" stroke="none"/><text fill="#000000" stroke="none" font-family="Arial" font-size="13px" font-style="normal" font-weight="bold" text-decoration="none" x="540.5" y="464">Fornecedor</text></g></g><g transform="translate(-30,-22) scale(1,1)"><path fill="#C0C0C0" stroke="none" d="M 215 426.5 C 215 411.312168 250.1456432 399 293.5 399 C 336.8543568 399 372 411.312168 372 426.5 C 372 441.687832 336.8543568 454 293.5 454 C 250.1456432 454 215 441.687832 215 426.5 Z" opacity="0.2"/></g><g transform="translate(-30,-22) scale(1,1)"><path fill="#ffffff" stroke="none" d="M 208 419.5 C 208 404.312168 243.1456432 392 286.5 392 C 329.8543568 392 365 404.312168 365 419.5 C 365 434.687832 329.8543568 447 286.5 447 C 243.1456432 447 208 434.687832 208 419.5 Z"/></g><g transform="translate(-30,-22) scale(1,1)"><path fill="none" stroke="#000000" d="M 208 419.5 C 208 404.312168 243.1456432 392 286.5 392 C 329.8543568 392 365 404.312168 365 419.5 C 365 434.687832 329.8543568 447 286.5 447 C 243.1456432 447 208 434.687832 208 419.5 Z" stroke-miterlimit="10"/></g><g transform="translate(-30,-22) scale(1,1)"><g><path fill="none" stroke="none"/><text fill="#000000" stroke="none" font-family="Arial" font-size="13px" font-style="normal" font-weight="bold" text-decoration="none" x="235.582275390625" y="425">Envio do Pedido</text></g></g><g transform="translate(-30,-22) scale(1,1)"><path fill="none" stroke="#000000" d="M 535 429 L 366 422" stroke-miterlimit="10"/></g><g transform="translate(-30,-22) scale(1,1)"><path fill="#C0C0C0" stroke="none" d="M 223 342.5 C 223 329.5213072 259.936504 319 305.5 319 C 351.063496 319 388 329.5213072 388 342.5 C 388 355.4786928 351.063496 366 305.5 366 C 259.936504 366 223 355.4786928 223 342.5 Z" opacity="0.2"/></g><g transform="translate(-30,-22) scale(1,1)"><path fill="#ffffff" stroke="none" d="M 216 335.5 C 216 322.5213072 252.936504 312 298.5 312 C 344.063496 312 381 322.5213072 381 335.5 C 381 348.4786928 344.063496 359 298.5 359 C 252.936504 359 216 348.4786928 216 335.5 Z"/></g><g transform="translate(-30,-22) scale(1,1)"><path fill="none" stroke="#000000" d="M 216 335.5 C 216 322.5213072 252.936504 312 298.5 312 C 344.063496 312 381 322.5213072 381 335.5 C 381 348.4786928 344.063496 359 298.5 359 C 252.936504 359 216 348.4786928 216 335.5 Z" stroke-miterlimit="10"/></g><g transform="translate(-30,-22) scale(1,1)"><g><path fill="none" stroke="none"/><text fill="#000000" stroke="none" font-family="Arial" font-size="13px" font-style="normal" font-weight="bold" text-decoration="none" x="244.795654296875" y="341">Visualizar Pedido</text></g></g><g transform="translate(-30,-22) scale(1,1)"><path fill="#C0C0C0" stroke="none" d="M 215 62.5 C 215 49.521307199999995 254.62279519999998 39 303.5 39 C 352.3772048 39 392 49.521307199999995 392 62.5 C 392 75.4786928 352.3772048 86 303.5 86 C 254.62279519999998 86 215 75.4786928 215 62.5 Z" opacity="0.2"/></g><g transform="translate(-30,-22) scale(1,1)"><path fill="#ffffff" stroke="none" d="M 208 55.5 C 208 42.521307199999995 247.62279519999998 32 296.5 32 C 345.3772048 32 385 42.521307199999995 385 55.5 C 385 68.4786928 345.3772048 79 296.5 79 C 247.62279519999998 79 208 68.4786928 208 55.5 Z"/></g><g transform="translate(-30,-22) scale(1,1)"><path fill="none" stroke="#000000" d="M 208 55.5 C 208 42.521307199999995 247.62279519999998 32 296.5 32 C 345.3772048 32 385 42.521307199999995 385 55.5 C 385 68.4786928 345.3772048 79 296.5 79 C 247.62279519999998 79 208 68.4786928 208 55.5 Z" stroke-miterlimit="10"/></g><g transform="translate(-30,-22) scale(1,1)"><g><path fill="none" stroke="none"/><text fill="#000000" stroke="none" font-family="Arial" font-size="13px" font-style="normal" font-weight="bold" text-decoration="none" x="238.34912109375" y="61">Autenticar Usuário</text></g></g><g transform="translate(-30,-22) scale(1,1)"><path fill="none" stroke="#000000" d="M 93 238 L 268 80" stroke-miterlimit="10"/></g><g transform="translate(-30,-22) scale(1,1)"><path fill="none" stroke="#000000" d="M 93 271 L 221 311" stroke-miterlimit="10"/></g><g transform="translate(-30,-22) scale(1,1)"><path fill="#C0C0C0" stroke="none" d="M 431 62.5 C 431 49.521307199999995 476.6669504 39 533 39 C 589.3330496 39 635 49.521307199999995 635 62.5 C 635 75.4786928 589.3330496 86 533 86 C 476.6669504 86 431 75.4786928 431 62.5 Z" opacity="0.2"/></g><g transform="translate(-30,-22) scale(1,1)"><path fill="#ffffff" stroke="none" d="M 424 55.5 C 424 42.521307199999995 469.6669504 32 526 32 C 582.3330496 32 628 42.521307199999995 628 55.5 C 628 68.4786928 582.3330496 79 526 79 C 469.6669504 79 424 68.4786928 424 55.5 Z"/></g><g transform="translate(-30,-22) scale(1,1)"><path fill="none" stroke="#000000" d="M 424 55.5 C 424 42.521307199999995 469.6669504 32 526 32 C 582.3330496 32 628 42.521307199999995 628 55.5 C 628 68.4786928 582.3330496 79 526 79 C 469.6669504 79 424 68.4786928 424 55.5 Z" stroke-miterlimit="10"/></g><g transform="translate(-30,-22) scale(1,1)"><g><path fill="none" stroke="none"/><text fill="#000000" stroke="none" font-family="Arial" font-size="13px" font-style="normal" font-weight="bold" text-decoration="none" x="458.451416015625" y="61">Autenticação Positiva</text></g></g><g transform="translate(-30,-22) scale(1,1)"><path fill="#C0C0C0" stroke="none" d="M 455 210.5 C 455 199.7304464 477.6096176 191 505.5 191 C 533.3903824 191 556 199.7304464 556 210.5 C 556 221.2695536 533.3903824 230 505.5 230 C 477.6096176 230 455 221.2695536 455 210.5 Z" opacity="0.2"/></g><g transform="translate(-30,-22) scale(1,1)"><path fill="#ffffff" stroke="none" d="M 448 203.5 C 448 192.7304464 470.6096176 184 498.5 184 C 526.3903824 184 549 192.7304464 549 203.5 C 549 214.2695536 526.3903824 223 498.5 223 C 470.6096176 223 448 214.2695536 448 203.5 Z"/></g><g transform="translate(-30,-22) scale(1,1)"><path fill="none" stroke="#000000" d="M 448 203.5 C 448 192.7304464 470.6096176 184 498.5 184 C 526.3903824 184 549 192.7304464 549 203.5 C 549 214.2695536 526.3903824 223 498.5 223 C 470.6096176 223 448 214.2695536 448 203.5 Z" stroke-miterlimit="10"/></g><g transform="translate(-30,-22) scale(1,1)"><g><path fill="none" stroke="none"/><text fill="#000000" stroke="none" font-family="Arial" font-size="13px" font-style="normal" font-weight="bold" text-decoration="none" x="469.240478515625" y="209">Pagar CC</text></g></g><g transform="translate(-30,-22) scale(1,1)"><path fill="#C0C0C0" stroke="none" d="M 463 288 C 463 278.6111584 485.6096176 271 513.5 271 C 541.3903824 271 564 278.6111584 564 288 C 564 297.3888416 541.3903824 305 513.5 305 C 485.6096176 305 463 297.3888416 463 288 Z" opacity="0.2"/></g><g transform="translate(-30,-22) scale(1,1)"><path fill="#ffffff" stroke="none" d="M 456 281 C 456 271.6111584 478.6096176 264 506.5 264 C 534.3903824 264 557 271.6111584 557 281 C 557 290.3888416 534.3903824 298 506.5 298 C 478.6096176 298 456 290.3888416 456 281 Z"/></g><g transform="translate(-30,-22) scale(1,1)"><path fill="none" stroke="#000000" d="M 456 281 C 456 271.6111584 478.6096176 264 506.5 264 C 534.3903824 264 557 271.6111584 557 281 C 557 290.3888416 534.3903824 298 506.5 298 C 478.6096176 298 456 290.3888416 456 281 Z" stroke-miterlimit="10"/></g><g transform="translate(-30,-22) scale(1,1)"><g><path fill="none" stroke="none"/><text fill="#000000" stroke="none" font-family="Arial" font-size="13px" font-style="normal" font-weight="bold" text-decoration="none" x="476.15185546875" y="286.5">Pagar PIX</text></g></g><g transform="translate(-30,-22) scale(1,1)"><path fill="none" stroke="#000000" d="M 455 273 L 377 261" stroke-miterlimit="10" stroke-dasharray="3"/></g><g transform="translate(-30,-22) scale(1,1)"><path fill="none" stroke="#000000" d="M 387.68458761874797 258.38473951253474 L 377 261 L 386.4044127846545 266.70587593414257" stroke-miterlimit="10"/></g><g transform="translate(-30,-22) scale(1,1)"><g><path fill="none" stroke="none"/><text fill="#000000" stroke="none" font-family="Arial" font-size="13px" font-style="normal" font-weight="normal" text-decoration="none" x="384.5" y="301">«extend»</text></g></g><g transform="translate(-30,-22) scale(1,1)"><path fill="none" stroke="#000000" d="M 447 214 L 377 229" stroke-miterlimit="10" stroke-dasharray="3"/></g><g transform="translate(-30,-22) scale(1,1)"><path fill="none" stroke="#000000" d="M 386.0550715898542 222.7545473740797 L 377 229 L 387.81910442868315 230.98670062194802" stroke-miterlimit="10"/></g><g transform="translate(-30,-22) scale(1,1)"><g><path fill="none" stroke="none"/><text fill="#000000" stroke="none" font-family="Arial" font-size="13px" font-style="normal" font-weight="normal" text-decoration="none" x="391.5" y="255">«extend»</text></g></g><g transform="translate(-30,-22) scale(1,1)"><path fill="none" stroke="#000000" d="M 423 55 L 386 55" stroke-miterlimit="10" stroke-dasharray="3"/></g><g transform="translate(-30,-22) scale(1,1)"><path fill="none" stroke="#000000" d="M 396.16267485762415 50.790482243984016 L 386 55 L 396.16267485762415 59.209517756015984" stroke-miterlimit="10"/></g><g transform="translate(-30,-22) scale(1,1)"><g><path fill="none" stroke="none"/><text fill="#000000" stroke="none" font-family="Arial" font-size="13px" font-style="normal" font-weight="normal" text-decoration="none" x="376.5" y="90">«extend»</text></g></g><g transform="translate(-30,-22) scale(1,1)"><path fill="#ffffff" stroke="none" d="M 608.4093503196023 129.68 C 608.4093503196023 124.886167936 612.2951926445477 121 617.088623046875 121 C 621.8820534492023 121 625.7678957741477 124.886167936 625.7678957741477 129.68 C 625.7678957741477 134.47383206400002 621.8820534492023 138.36 617.088623046875 138.36 C 612.2951926445477 138.36 608.4093503196023 134.47383206400002 608.4093503196023 129.68 Z"/></g><g transform="translate(-30,-22) scale(1,1)"><path fill="none" stroke="#000000" d="M 608.4093503196023 129.68 C 608.4093503196023 124.886167936 612.2951926445477 121 617.088623046875 121 C 621.8820534492023 121 625.7678957741477 124.886167936 625.7678957741477 129.68 C 625.7678957741477 134.47383206400002 621.8820534492023 138.36 617.088623046875 138.36 C 612.2951926445477 138.36 608.4093503196023 134.47383206400002 608.4093503196023 129.68 Z" stroke-miterlimit="10"/></g><g transform="translate(-30,-22) scale(1,1)"><path fill="none" stroke="#000000" d="M 617.088623046875 138.36 L 617.088623046875 155.64" stroke-miterlimit="10"/></g><g transform="translate(-30,-22) scale(1,1)"><path fill="none" stroke="#000000" d="M 607.8988048650568 144.84 L 626.2784412286932 144.84" stroke-miterlimit="10"/></g><g transform="translate(-30,-22) scale(1,1)"><path fill="none" stroke="#000000" d="M 617.088623046875 155.64 L 604.3249866832386 173" stroke-miterlimit="10"/></g><g transform="translate(-30,-22) scale(1,1)"><path fill="none" stroke="#000000" d="M 617.088623046875 155.64 L 629.8522594105114 173" stroke-miterlimit="10"/></g><g transform="translate(-30,-22) scale(1,1)"><g><path fill="none" stroke="none"/><text fill="#000000" stroke="none" font-family="Arial" font-size="13px" font-style="normal" font-weight="bold" text-decoration="none" x="597.2236328125" y="192">Banco</text></g></g><g transform="translate(-30,-22) scale(1,1)"><path fill="none" stroke="#000000" d="M 550 184 L 591 169" stroke-miterlimit="10"/></g></g></svg>