<svg version="1.1" xmlns="http://www.w3.org/2000/svg" xmlns:xlink="http://www.w3.org/1999/xlink" width="708" height="668"><defs/><g><text fill="#eeeeee" stroke="none" font-family="Arial" font-size="24px" font-style="normal" font-weight="normal" text-decoration="none" x="0" y="0">UNREGISTERED</text><text fill="#eeeeee" stroke="none" font-family="Arial" font-size="24px" font-style="normal" font-weight="normal" text-decoration="none" x="0" y="30">UNREGISTERED</text><text fill="#eeeeee" stroke="none" font-family="Arial" font-size="24px" font-style="normal" font-weight="normal" text-decoration="none" x="0" y="60">UNREGISTERED</text><text fill="#eeeeee" stroke="none" font-family="Arial" font-size="24px" font-style="normal" font-weight="normal" text-decoration="none" x="0" y="90">UNREGISTERED</text><text fill="#eeeeee" stroke="none" font-family="Arial" font-size="24px" font-style="normal" font-weight="normal" text-decoration="none" x="0" y="120">UNREGISTERED</text><text fill="#eeeeee" stroke="none" font-family="Arial" font-size="24px" font-style="normal" font-weight="normal" text-decoration="none" x="0" y="150">UNREGISTERED</text><text fill="#eeeeee" stroke="none" font-family="Arial" font-size="24px" font-style="normal" font-weight="normal" text-decoration="none" x="0" y="180">UNREGISTERED</text><text fill="#eeeeee" stroke="none" font-family="Arial" font-size="24px" font-style="normal" font-weight="normal" text-decoration="none" x="0" y="210">UNREGISTERED</text><text fill="#eeeeee" stroke="none" font-family="Arial" font-size="24px" font-style="normal" font-weight="normal" text-decoration="none" x="0" y="240">UNREGISTERED</text><text fill="#eeeeee" stroke="none" font-family="Arial" font-size="24px" font-style="normal" font-weight="normal" text-decoration="none" x="0" y="270">UNREGISTERED</text><text fill="#eeeeee" stroke="none" font-family="Arial" font-size="24px" font-style="normal" font-weight="normal" text-decoration="none" x="0" y="300">UNREGISTERED</text><text fill="#eeeeee" stroke="none" font-family="Arial" font-size="24px" font-style="normal" font-weight="normal" text-decoration="none" x="0" y="330">UNREGISTERED</text><text fill="#eeeeee" stroke="none" font-family="Arial" font-size="24px" font-style="normal" font-weight="normal" text-decoration="none" x="0" y="360">UNREGISTERED</text><text fill="#eeeeee" stroke="none" font-family="Arial" font-size="24px" font-style="normal" font-weight="normal" text-decoration="none" x="0" y="390">UNREGISTERED</text><text fill="#eeeeee" stroke="none" font-family="Arial" font-size="24px" font-style="normal" font-weight="normal" text-decoration="none" x="0" y="420">UNREGISTERED</text><text fill="#eeeeee" stroke="none" font-family="Arial" font-size="24px" font-style="normal" font-weight="normal" text-decoration="none" x="0" y="450">UNREGISTERED</text><text fill="#eeeeee" stroke="none" font-family="Arial" font-size="24px" font-style="normal" font-weight="normal" text-decoration="none" x="0" y="480">UNREGISTERED</text><text fill="#eeeeee" stroke="none" font-family="Arial" font-size="24px" font-style="normal" font-weight="normal" text-decoration="none" x="0" y="510">UNREGISTERED</text><text fill="#eeeeee" stroke="none" font-family="Arial" font-size="24px" font-style="normal" font-weight="normal" text-decoration="none" x="0" y="540">UNREGISTERED</text><text fill="#eeeeee" stroke="none" font-family="Arial" font-size="24px" font-style="normal" font-weight="normal" text-decoration="none" x="0" y="570">UNREGISTERED</text><text fill="#eeeeee" stroke="none" font-family="Arial" font-size="24px" font-style="normal" font-weight="normal" text-decoration="none" x="0" y="600">UNREGISTERED</text><text fill="#eeeeee" stroke="none" font-family="Arial" font-size="24px" font-style="normal" font-weight="normal" text-decoration="none" x="0" y="630">UNREGISTERED</text><text fill="#eeeeee" stroke="none" font-family="Arial" font-size="24px" font-style="normal" font-weight="normal" text-decoration="none" x="0" y="660">UNREGISTERED</text><text fill="#eeeeee" stroke="none" font-family="Arial" font-size="24px" font-style="normal" font-weight="normal" text-decoration="none" x="200" y="0">UNREGISTERED</text><text fill="#eeeeee" stroke="none" font-family="Arial" font-size="24px" font-style="normal" font-weight="normal" text-decoration="none" x="200" y="30">UNREGISTERED</text><text fill="#eeeeee" stroke="none" font-family="Arial" font-size="24px" font-style="normal" font-weight="normal" text-decoration="none" x="200" y="60">UNREGISTERED</text><text fill="#eeeeee" stroke="none" font-family="Arial" font-size="24px" font-style="normal" font-weight="normal" text-decoration="none" x="200" y="90">UNREGISTERED</text><text fill="#eeeeee" stroke="none" font-family="Arial" font-size="24px" font-style="normal" font-weight="normal" text-decoration="none" x="200" y="120">UNREGISTERED</text><text fill="#eeeeee" stroke="none" font-family="Arial" font-size="24px" font-style="normal" font-weight="normal" text-decoration="none" x="200" y="150">UNREGISTERED</text><text fill="#eeeeee" stroke="none" font-family="Arial" font-size="24px" font-style="normal" font-weight="normal" text-decoration="none" x="200" y="180">UNREGISTERED</text><text fill="#eeeeee" stroke="none" font-family="Arial" font-size="24px" font-style="normal" font-weight="normal" text-decoration="none" x="200" y="210">UNREGISTERED</text><text fill="#eeeeee" stroke="none" font-family="Arial" font-size="24px" font-style="normal" font-weight="normal" text-decoration="none" x="200" y="240">UNREGISTERED</text><text fill="#eeeeee" stroke="none" font-family="Arial" font-size="24px" font-style="normal" font-weight="normal" text-decoration="none" x="200" y="270">UNREGISTERED</text><text fill="#eeeeee" stroke="none" font-family="Arial" font-size="24px" font-style="normal" font-weight="normal" text-decoration="none" x="200" y="300">UNREGISTERED</text><text fill="#eeeeee" stroke="none" font-family="Arial" font-size="24px" font-style="normal" font-weight="normal" text-decoration="none" x="200" y="330">UNREGISTERED</text><text fill="#eeeeee" stroke="none" font-family="Arial" font-size="24px" font-style="normal" font-weight="normal" text-decoration="none" x="200" y="360">UNREGISTERED</text><text fill="#eeeeee" stroke="none" font-family="Arial" font-size="24px" font-style="normal" font-weight="normal" text-decoration="none" x="200" y="390">UNREGISTERED</text><text fill="#eeeeee" stroke="none" font-family="Arial" font-size="24px" font-style="normal" font-weight="normal" text-decoration="none" x="200" y="420">UNREGISTERED</text><text fill="#eeeeee" stroke="none" font-family="Arial" font-size="24px" font-style="normal" font-weight="normal" text-decoration="none" x="200" y="450">UNREGISTERED</text><text fill="#eeeeee" stroke="none" font-family="Arial" font-size="24px" font-style="normal" font-weight="normal" text-decoration="none" x="200" y="480">UNREGISTERED</text><text fill="#eeeeee" stroke="none" font-family="Arial" font-size="24px" font-style="normal" font-weight="normal" text-decoration="none" x="200" y="510">UNREGISTERED</text><text fill="#eeeeee" stroke="none" font-family="Arial" font-size="24px" font-style="normal" font-weight="normal" text-decoration="none" x="200" y="540">UNREGISTERED</text><text fill="#eeeeee" stroke="none" font-family="Arial" font-size="24px" font-style="normal" font-weight="normal" text-decoration="none" x="200" y="570">UNREGISTERED</text><text fill="#eeeeee" stroke="none" font-family="Arial" font-size="24px" font-style="normal" font-weight="normal" text-decoration="none" x="200" y="600">UNREGISTERED</text><text fill="#eeeeee" stroke="none" font-family="Arial" font-size="24px" font-style="normal" font-weight="normal" text-decoration="none" x="200" y="630">UNREGISTERED</text><text fill="#eeeeee" stroke="none" font-family="Arial" font-size="24px" font-style="normal" font-weight="normal" text-decoration="none" x="200" y="660">UNREGISTERED</text><text fill="#eeeeee" stroke="none" font-family="Arial" font-size="24px" font-style="normal" font-weight="normal" text-decoration="none" x="400" y="0">UNREGISTERED</text><text fill="#eeeeee" stroke="none" font-family="Arial" font-size="24px" font-style="normal" font-weight="normal" text-decoration="none" x="400" y="30">UNREGISTERED</text><text fill="#eeeeee" stroke="none" font-family="Arial" font-size="24px" font-style="normal" font-weight="normal" text-decoration="none" x="400" y="60">UNREGISTERED</text><text fill="#eeeeee" stroke="none" font-family="Arial" font-size="24px" font-style="normal" font-weight="normal" text-decoration="none" x="400" y="90">UNREGISTERED</text><text fill="#eeeeee" stroke="none" font-family="Arial" font-size="24px" font-style="normal" font-weight="normal" text-decoration="none" x="400" y="120">UNREGISTERED</text><text fill="#eeeeee" stroke="none" font-family="Arial" font-size="24px" font-style="normal" font-weight="normal" text-decoration="none" x="400" y="150">UNREGISTERED</text><text fill="#eeeeee" stroke="none" font-family="Arial" font-size="24px" font-style="normal" font-weight="normal" text-decoration="none" x="400" y="180">UNREGISTERED</text><text fill="#eeeeee" stroke="none" font-family="Arial" font-size="24px" font-style="normal" font-weight="normal" text-decoration="none" x="400" y="210">UNREGISTERED</text><text fill="#eeeeee" stroke="none" font-family="Arial" font-size="24px" font-style="normal" font-weight="normal" text-decoration="none" x="400" y="240">UNREGISTERED</text><text fill="#eeeeee" stroke="none" font-family="Arial" font-size="24px" font-style="normal" font-weight="normal" text-decoration="none" x="400" y="270">UNREGISTERED</text><text fill="#eeeeee" stroke="none" font-family="Arial" font-size="24px" font-style="normal" font-weight="normal" text-decoration="none" x="400" y="300">UNREGISTERED</text><text fill="#eeeeee" stroke="none" font-family="Arial" font-size="24px" font-style="normal" font-weight="normal" text-decoration="none" x="400" y="330">UNREGISTERED</text><text fill="#eeeeee" stroke="none" font-family="Arial" font-size="24px" font-style="normal" font-weight="normal" text-decoration="none" x="400" y="360">UNREGISTERED</text><text fill="#eeeeee" stroke="none" font-family="Arial" font-size="24px" font-style="normal" font-weight="normal" text-decoration="none" x="400" y="390">UNREGISTERED</text><text fill="#eeeeee" stroke="none" font-family="Arial" font-size="24px" font-style="normal" font-weight="normal" text-decoration="none" x="400" y="420">UNREGISTERED</text><text fill="#eeeeee" stroke="none" font-family="Arial" font-size="24px" font-style="normal" font-weight="normal" text-decoration="none" x="400" y="450">UNREGISTERED</text><text fill="#eeeeee" stroke="none" font-family="Arial" font-size="24px" font-style="normal" font-weight="normal" text-decoration="none" x="400" y="480">UNREGISTERED</text><text fill="#eeeeee" stroke="none" font-family="Arial" font-size="24px" font-style="normal" font-weight="normal" text-decoration="none" x="400" y="510">UNREGISTERED</text><text fill="#eeeeee" stroke="none" font-family="Arial" font-size="24px" font-style="normal" font-weight="normal" text-decoration="none" x="400" y="540">UNREGISTERED</text><text fill="#eeeeee" stroke="none" font-family="Arial" font-size="24px" font-style="normal" font-weight="normal" text-decoration="none" x="400" y="570">UNREGISTERED</text><text fill="#eeeeee" stroke="none" font-family="Arial" font-size="24px" font-style="normal" font-weight="normal" text-decoration="none" x="400" y="600">UNREGISTERED</text><text fill="#eeeeee" stroke="none" font-family="Arial" font-size="24px" font-style="normal" font-weight="normal" text-decoration="none" x="400" y="630">UNREGISTERED</text><text fill="#eeeeee" stroke="none" font-family="Arial" font-size="24px" font-style="normal" font-weight="normal" text-decoration="none" x="400" y="660">UNREGISTERED</text><text fill="#eeeeee" stroke="none" font-family="Arial" font-size="24px" font-style="normal" font-weight="normal" text-decoration="none" x="600" y="0">UNREGISTERED</text><text fill="#eeeeee" stroke="none" font-family="Arial" font-size="24px" font-style="normal" font-weight="normal" text-decoration="none" x="600" y="30">UNREGISTERED</text><text fill="#eeeeee" stroke="none" font-family="Arial" font-size="24px" font-style="normal" font-weight="normal" text-decoration="none" x="600" y="60">UNREGISTERED</text><text fill="#eeeeee" stroke="none" font-family="Arial" font-size="24px" font-style="normal" font-weight="normal" text-decoration="none" x="600" y="90">UNREGISTERED</text><text fill="#eeeeee" stroke="none" font-family="Arial" font-size="24px" font-style="normal" font-weight="normal" text-decoration="none" x="600" y="120">UNREGISTERED</text><text fill="#eeeeee" stroke="none" font-family="Arial" font-size="24px" font-style="normal" font-weight="normal" text-decoration="none" x="600" y="150">UNREGISTERED</text><text fill="#eeeeee" stroke="none" font-family="Arial" font-size="24px" font-style="normal" font-weight="normal" text-decoration="none" x="600" y="180">UNREGISTERED</text><text fill="#eeeeee" stroke="none" font-family="Arial" font-size="24px" font-style="normal" font-weight="normal" text-decoration="none" x="600" y="210">UNREGISTERED</text><text fill="#eeeeee" stroke="none" font-family="Arial" font-size="24px" font-style="normal" font-weight="normal" text-decoration="none" x="600" y="240">UNREGISTERED</text><text fill="#eeeeee" stroke="none" font-family="Arial" font-size="24px" font-style="normal" font-weight="normal" text-decoration="none" x="600" y="270">UNREGISTERED</text><text fill="#eeeeee" stroke="none" font-family="Arial" font-size="24px" font-style="normal" font-weight="normal" text-decoration="none" x="600" y="300">UNREGISTERED</text><text fill="#eeeeee" stroke="none" font-family="Arial" font-size="24px" font-style="normal" font-weight="normal" text-decoration="none" x="600" y="330">UNREGISTERED</text><text fill="#eeeeee" stroke="none" font-family="Arial" font-size="24px" font-style="normal" font-weight="normal" text-decoration="none" x="600" y="360">UNREGISTERED</text><text fill="#eeeeee" stroke="none" font-family="Arial" font-size="24px" font-style="normal" font-weight="normal" text-decoration="none" x="600" y="390">UNREGISTERED</text><text fill="#eeeeee" stroke="none" font-family="Arial" font-size="24px" font-style="normal" font-weight="normal" text-decoration="none" x="600" y="420">UNREGISTERED</text><text fill="#eeeeee" stroke="none" font-family="Arial" font-size="24px" font-style="normal" font-weight="normal" text-decoration="none" x="600" y="450">UNREGISTERED</text><text fill="#eeeeee" stroke="none" font-family="Arial" font-size="24px" font-style="normal" font-weight="normal" text-decoration="none" x="600" y="480">UNREGISTERED</text><text fill="#eeeeee" stroke="none" font-family="Arial" font-size="24px" font-style="normal" font-weight="normal" text-decoration="none" x="600" y="510">UNREGISTERED</text><text fill="#eeeeee" stroke="none" font-family="Arial" font-size="24px" font-style="normal" font-weight="normal" text-decoration="none" x="600" y="540">UNREGISTERED</text><text fill="#eeeeee" stroke="none" font-family="Arial" font-size="24px" font-style="normal" font-weight="normal" text-decoration="none" x="600" y="570">UNREGISTERED</text><text fill="#eeeeee" stroke="none" font-family="Arial" font-size="24px" font-style="normal" font-weight="normal" text-decoration="none" x="600" y="600">UNREGISTERED</text><text fill="#eeeeee" stroke="none" font-family="Arial" font-size="24px" font-style="normal" font-weight="normal" text-decoration="none" x="600" y="630">UNREGISTERED</text><text fill="#eeeeee" stroke="none" font-family="Arial" font-size="24px" font-style="normal" font-weight="normal" text-decoration="none" x="600" y="660">UNREGISTERED</text><g transform="translate(-366,-54) scale(1,1)"><rect fill="#ffffff" stroke="none" x="376" y="64" width="688" height="648"/></g><g transform="translate(-366,-54) scale(1,1)"><path fill="none" stroke="#000000" d="M 376 64 L 1064 64 L 1064 712 L 376 712 L 376 64 Z Z" stroke-miterlimit="10"/></g><g transform="translate(-366,-54) scale(1,1)"><path fill="#C0C0C0" stroke="none" d="M 559 112.5 C 559 107.2532944 563.2532944 103 568.5 103 C 573.7467056 103 578 107.2532944 578 112.5 C 578 117.7467056 573.7467056 122 568.5 122 C 563.2532944 122 559 117.7467056 559 112.5 Z" opacity="0.2"/></g><g transform="translate(-366,-54) scale(1,1)"><path fill="#000000" stroke="none" d="M 552 105.5 C 552 100.2532944 556.2532944 96 561.5 96 C 566.7467056 96 571 100.2532944 571 105.5 C 571 110.7467056 566.7467056 115 561.5 115 C 556.2532944 115 552 110.7467056 552 105.5 Z"/></g><g transform="translate(-366,-54) scale(1,1)"><path fill="#C0C0C0" stroke="none" d="M 505 159 L 629.78271484375 159 Q 639.78271484375 159 639.78271484375 169 L 639.78271484375 189 Q 639.78271484375 199 629.78271484375 199 L 505 199 Q 495 199 495 189 L 495 169 Q 495 159 505 159 Z" opacity="0.2"/></g><g transform="translate(-366,-54) scale(1,1)"><path fill="#ffffff" stroke="none" d="M 498 152 L 622.78271484375 152 Q 632.78271484375 152 632.78271484375 162 L 632.78271484375 182 Q 632.78271484375 192 622.78271484375 192 L 498 192 Q 488 192 488 182 L 488 162 Q 488 152 498 152 Z"/></g><g transform="translate(-366,-54) scale(1,1)"><path fill="none" stroke="#000000" d="M 498 152 L 622.78271484375 152 Q 632.78271484375 152 632.78271484375 162 L 632.78271484375 182 Q 632.78271484375 192 622.78271484375 192 L 498 192 Q 488 192 488 182 L 488 162 Q 488 152 498 152 Z" stroke-miterlimit="10"/></g><g transform="translate(-366,-54) scale(1,1)"><g><path fill="none" stroke="none"/><text fill="#000000" stroke="none" font-family="Arial" font-size="13px" font-style="normal" font-weight="bold" text-decoration="none" x="492.5" y="170">Fornecedor Faz Login</text></g></g><g transform="translate(-366,-54) scale(1,1)"><path fill="none" stroke="#000000" d="M 561 116 L 560 151" stroke-miterlimit="10"/></g><g transform="translate(-366,-54) scale(1,1)"><path fill="none" stroke="#000000" d="M 556.0824430594122 140.7212477597107 L 560 151 L 564.4980443328709 140.96169351038094" stroke-miterlimit="10"/></g><g transform="translate(-366,-54) scale(1,1)"><path fill="#C0C0C0" stroke="none" d="M 473 239 L 684.9169921875 239 Q 694.9169921875 239 694.9169921875 249 L 694.9169921875 276 Q 694.9169921875 286 684.9169921875 286 L 473 286 Q 463 286 463 276 L 463 249 Q 463 239 473 239 Z" opacity="0.2"/></g><g transform="translate(-366,-54) scale(1,1)"><path fill="#ffffff" stroke="none" d="M 466 232 L 677.9169921875 232 Q 687.9169921875 232 687.9169921875 242 L 687.9169921875 269 Q 687.9169921875 279 677.9169921875 279 L 466 279 Q 456 279 456 269 L 456 242 Q 456 232 466 232 Z"/></g><g transform="translate(-366,-54) scale(1,1)"><path fill="none" stroke="#000000" d="M 466 232 L 677.9169921875 232 Q 687.9169921875 232 687.9169921875 242 L 687.9169921875 269 Q 687.9169921875 279 677.9169921875 279 L 466 279 Q 456 279 456 269 L 456 242 Q 456 232 466 232 Z" stroke-miterlimit="10"/></g><g transform="translate(-366,-54) scale(1,1)"><g><path fill="none" stroke="none"/><text fill="#000000" stroke="none" font-family="Arial" font-size="13px" font-style="normal" font-weight="bold" text-decoration="none" x="460.5" y="250">Informa Todos os dados do Produto</text></g></g><g transform="translate(-366,-54) scale(1,1)"><path fill="#C0C0C0" stroke="none" d="M 521 327 L 636 327 Q 646 327 646 337 L 646 357 Q 646 367 636 367 L 521 367 Q 511 367 511 357 L 511 337 Q 511 327 521 327 Z" opacity="0.2"/></g><g transform="translate(-366,-54) scale(1,1)"><path fill="#ffffff" stroke="none" d="M 514 320 L 629 320 Q 639 320 639 330 L 639 350 Q 639 360 629 360 L 514 360 Q 504 360 504 350 L 504 330 Q 504 320 514 320 Z"/></g><g transform="translate(-366,-54) scale(1,1)"><path fill="none" stroke="#000000" d="M 514 320 L 629 320 Q 639 320 639 330 L 639 350 Q 639 360 629 360 L 514 360 Q 504 360 504 350 L 504 330 Q 504 320 514 320 Z" stroke-miterlimit="10"/></g><g transform="translate(-366,-54) scale(1,1)"><g><path fill="none" stroke="none"/><text fill="#000000" stroke="none" font-family="Arial" font-size="13px" font-style="normal" font-weight="bold" text-decoration="none" x="511.187744140625" y="338">Cadastra o Produto</text></g></g><g transform="translate(-366,-54) scale(1,1)"><path fill="none" stroke="#000000" d="M 571 280 L 571 319" stroke-miterlimit="10"/></g><g transform="translate(-366,-54) scale(1,1)"><path fill="none" stroke="#000000" d="M 566.790482243984 308.83732514237585 L 571 319 L 575.209517756016 308.83732514237585" stroke-miterlimit="10"/></g><g transform="translate(-366,-54) scale(1,1)"><path fill="#C0C0C0" stroke="none" d="M 567 419.5 C 567 412.59644 572.59644 407 579.5 407 C 586.40356 407 592 412.59644 592 419.5 C 592 426.40356 586.40356 432 579.5 432 C 572.59644 432 567 426.40356 567 419.5 Z" opacity="0.2"/></g><g transform="translate(-366,-54) scale(1,1)"><path fill="none" stroke="#000000" d="M 560 412.5 C 560 405.59644 565.59644 400 572.5 400 C 579.40356 400 585 405.59644 585 412.5 C 585 419.40356 579.40356 425 572.5 425 C 565.59644 425 560 419.40356 560 412.5 Z" stroke-miterlimit="10"/></g><g transform="translate(-366,-54) scale(1,1)"><path fill="#000000" stroke="none" d="M 565 412.5 C 565 408.357864 568.357864 405 572.5 405 C 576.642136 405 580 408.357864 580 412.5 C 580 416.642136 576.642136 420 572.5 420 C 568.357864 420 565 416.642136 565 412.5 Z"/></g><g transform="translate(-366,-54) scale(1,1)"><path fill="none" stroke="#000000" d="M 571 361 L 572 399" stroke-miterlimit="10"/></g><g transform="translate(-366,-54) scale(1,1)"><path fill="none" stroke="#000000" d="M 567.5245928199677 388.9515806928197 L 572 399 L 575.9407146667412 388.7301038021151" stroke-miterlimit="10"/></g><g transform="translate(-366,-54) scale(1,1)"><rect fill="#ffffff" stroke="none" x="376" y="64" width="367" height="21"/></g><g transform="translate(-366,-54) scale(1,1)"><path fill="none" stroke="#000000" d="M 376 64 L 743 64 L 743 85 L 376 85 L 376 64 Z Z" stroke-miterlimit="10" stroke-width="2"/></g><g transform="translate(-366,-54) scale(1,1)"><path fill="none" stroke="#000000" d="M 376 711 L 376 64 L 743 64 L 743 711" stroke-miterlimit="10" stroke-width="2"/></g><g transform="translate(-366,-54) scale(1,1)"><g><path fill="none" stroke="none"/><text fill="#000000" stroke="none" font-family="Arial" font-size="13px" font-style="normal" font-weight="normal" text-decoration="none" x="526.260498046875" y="78">Fornecedor</text></g></g><g transform="translate(-366,-54) scale(1,1)"><rect fill="#ffffff" stroke="none" x="744" y="64" width="320" height="21"/></g><g transform="translate(-366,-54) scale(1,1)"><path fill="none" stroke="#000000" d="M 744 64 L 1064 64 L 1064 85 L 744 85 L 744 64 Z Z" stroke-miterlimit="10" stroke-width="2"/></g><g transform="translate(-366,-54) scale(1,1)"><path fill="none" stroke="#000000" d="M 744 704 L 744 64 L 1064 64 L 1064 704" stroke-miterlimit="10" stroke-width="2"/></g><g transform="translate(-366,-54) scale(1,1)"><g><path fill="none" stroke="none"/><text fill="#000000" stroke="none" font-family="Arial" font-size="13px" font-style="normal" font-weight="normal" text-decoration="none" x="890.75244140625" y="78">Web</text></g></g><g transform="translate(-366,-54) scale(1,1)"><path fill="#C0C0C0" stroke="none" d="M 849 151 L 972.3544921875 151 Q 982.3544921875 151 982.3544921875 161 L 982.3544921875 196 Q 982.3544921875 206 972.3544921875 206 L 849 206 Q 839 206 839 196 L 839 161 Q 839 151 849 151 Z" opacity="0.2"/></g><g transform="translate(-366,-54) scale(1,1)"><path fill="#ffffff" stroke="none" d="M 842 144 L 965.3544921875 144 Q 975.3544921875 144 975.3544921875 154 L 975.3544921875 189 Q 975.3544921875 199 965.3544921875 199 L 842 199 Q 832 199 832 189 L 832 154 Q 832 144 842 144 Z"/></g><g transform="translate(-366,-54) scale(1,1)"><path fill="none" stroke="#000000" d="M 842 144 L 965.3544921875 144 Q 975.3544921875 144 975.3544921875 154 L 975.3544921875 189 Q 975.3544921875 199 965.3544921875 199 L 842 199 Q 832 199 832 189 L 832 154 Q 832 144 842 144 Z" stroke-miterlimit="10"/></g><g transform="translate(-366,-54) scale(1,1)"><g><path fill="none" stroke="none"/><text fill="#000000" stroke="none" font-family="Arial" font-size="13px" font-style="normal" font-weight="bold" text-decoration="none" x="836.5" y="162">Autentica Fornecedor</text></g></g><g transform="translate(-366,-54) scale(1,1)"><path fill="none" stroke="#000000" d="M 634 172 L 831 171" stroke-miterlimit="10"/></g><g transform="translate(-366,-54) scale(1,1)"><path fill="none" stroke="#000000" d="M 820.8588239069232 175.26105004068336 L 831 171 L 820.8160882366361 166.84212299412093" stroke-miterlimit="10"/></g><g transform="translate(-366,-54) scale(1,1)"><path fill="#C0C0C0" stroke="none" d="M 785 239 L 1031.14990234375 239 Q 1041.14990234375 239 1041.14990234375 249 L 1041.14990234375 284 Q 1041.14990234375 294 1031.14990234375 294 L 785 294 Q 775 294 775 284 L 775 249 Q 775 239 785 239 Z" opacity="0.2"/></g><g transform="translate(-366,-54) scale(1,1)"><path fill="#ffffff" stroke="none" d="M 778 232 L 1024.14990234375 232 Q 1034.14990234375 232 1034.14990234375 242 L 1034.14990234375 277 Q 1034.14990234375 287 1024.14990234375 287 L 778 287 Q 768 287 768 277 L 768 242 Q 768 232 778 232 Z"/></g><g transform="translate(-366,-54) scale(1,1)"><path fill="none" stroke="#000000" d="M 778 232 L 1024.14990234375 232 Q 1034.14990234375 232 1034.14990234375 242 L 1034.14990234375 277 Q 1034.14990234375 287 1024.14990234375 287 L 778 287 Q 768 287 768 277 L 768 242 Q 768 232 778 232 Z" stroke-miterlimit="10"/></g><g transform="translate(-366,-54) scale(1,1)"><g><path fill="none" stroke="none"/><text fill="#000000" stroke="none" font-family="Arial" font-size="13px" font-style="normal" font-weight="bold" text-decoration="none" x="772.5" y="250">Exibe Formulário de Cadastro de Produto</text></g></g><g transform="translate(-366,-54) scale(1,1)"><path fill="none" stroke="#000000" d="M 767 257 L 689 256" stroke-miterlimit="10"/></g><g transform="translate(-366,-54) scale(1,1)"><path fill="none" stroke="#000000" d="M 699.2158035054036 251.9211081481628 L 689 256 L 699.1078760221008 260.33945184577954" stroke-miterlimit="10"/></g><g transform="translate(-366,-54) scale(1,1)"><path fill="none" stroke="#000000" d="M 902 200 L 902 231" stroke-miterlimit="10"/></g><g transform="translate(-366,-54) scale(1,1)"><path fill="none" stroke="#000000" d="M 897.790482243984 220.83732514237585 L 902 231 L 906.209517756016 220.83732514237585" stroke-miterlimit="10"/></g></g></svg>