<svg version="1.1" xmlns="http://www.w3.org/2000/svg" xmlns:xlink="http://www.w3.org/1999/xlink" width="844" height="604"><defs/><g><text fill="#eeeeee" stroke="none" font-family="Arial" font-size="24px" font-style="normal" font-weight="normal" text-decoration="none" x="0" y="0">UNREGISTERED</text><text fill="#eeeeee" stroke="none" font-family="Arial" font-size="24px" font-style="normal" font-weight="normal" text-decoration="none" x="0" y="30">UNREGISTERED</text><text fill="#eeeeee" stroke="none" font-family="Arial" font-size="24px" font-style="normal" font-weight="normal" text-decoration="none" x="0" y="60">UNREGISTERED</text><text fill="#eeeeee" stroke="none" font-family="Arial" font-size="24px" font-style="normal" font-weight="normal" text-decoration="none" x="0" y="90">UNREGISTERED</text><text fill="#eeeeee" stroke="none" font-family="Arial" font-size="24px" font-style="normal" font-weight="normal" text-decoration="none" x="0" y="120">UNREGISTERED</text><text fill="#eeeeee" stroke="none" font-family="Arial" font-size="24px" font-style="normal" font-weight="normal" text-decoration="none" x="0" y="150">UNREGISTERED</text><text fill="#eeeeee" stroke="none" font-family="Arial" font-size="24px" font-style="normal" font-weight="normal" text-decoration="none" x="0" y="180">UNREGISTERED</text><text fill="#eeeeee" stroke="none" font-family="Arial" font-size="24px" font-style="normal" font-weight="normal" text-decoration="none" x="0" y="210">UNREGISTERED</text><text fill="#eeeeee" stroke="none" font-family="Arial" font-size="24px" font-style="normal" font-weight="normal" text-decoration="none" x="0" y="240">UNREGISTERED</text><text fill="#eeeeee" stroke="none" font-family="Arial" font-size="24px" font-style="normal" font-weight="normal" text-decoration="none" x="0" y="270">UNREGISTERED</text><text fill="#eeeeee" stroke="none" font-family="Arial" font-size="24px" font-style="normal" font-weight="normal" text-decoration="none" x="0" y="300">UNREGISTERED</text><text fill="#eeeeee" stroke="none" font-family="Arial" font-size="24px" font-style="normal" font-weight="normal" text-decoration="none" x="0" y="330">UNREGISTERED</text><text fill="#eeeeee" stroke="none" font-family="Arial" font-size="24px" font-style="normal" font-weight="normal" text-decoration="none" x="0" y="360">UNREGISTERED</text><text fill="#eeeeee" stroke="none" font-family="Arial" font-size="24px" font-style="normal" font-weight="normal" text-decoration="none" x="0" y="390">UNREGISTERED</text><text fill="#eeeeee" stroke="none" font-family="Arial" font-size="24px" font-style="normal" font-weight="normal" text-decoration="none" x="0" y="420">UNREGISTERED</text><text fill="#eeeeee" stroke="none" font-family="Arial" font-size="24px" font-style="normal" font-weight="normal" text-decoration="none" x="0" y="450">UNREGISTERED</text><text fill="#eeeeee" stroke="none" font-family="Arial" font-size="24px" font-style="normal" font-weight="normal" text-decoration="none" x="0" y="480">UNREGISTERED</text><text fill="#eeeeee" stroke="none" font-family="Arial" font-size="24px" font-style="normal" font-weight="normal" text-decoration="none" x="0" y="510">UNREGISTERED</text><text fill="#eeeeee" stroke="none" font-family="Arial" font-size="24px" font-style="normal" font-weight="normal" text-decoration="none" x="0" y="540">UNREGISTERED</text><text fill="#eeeeee" stroke="none" font-family="Arial" font-size="24px" font-style="normal" font-weight="normal" text-decoration="none" x="0" y="570">UNREGISTERED</text><text fill="#eeeeee" stroke="none" font-family="Arial" font-size="24px" font-style="normal" font-weight="normal" text-decoration="none" x="0" y="600">UNREGISTERED</text><text fill="#eeeeee" stroke="none" font-family="Arial" font-size="24px" font-style="normal" font-weight="normal" text-decoration="none" x="200" y="0">UNREGISTERED</text><text fill="#eeeeee" stroke="none" font-family="Arial" font-size="24px" font-style="normal" font-weight="normal" text-decoration="none" x="200" y="30">UNREGISTERED</text><text fill="#eeeeee" stroke="none" font-family="Arial" font-size="24px" font-style="normal" font-weight="normal" text-decoration="none" x="200" y="60">UNREGISTERED</text><text fill="#eeeeee" stroke="none" font-family="Arial" font-size="24px" font-style="normal" font-weight="normal" text-decoration="none" x="200" y="90">UNREGISTERED</text><text fill="#eeeeee" stroke="none" font-family="Arial" font-size="24px" font-style="normal" font-weight="normal" text-decoration="none" x="200" y="120">UNREGISTERED</text><text fill="#eeeeee" stroke="none" font-family="Arial" font-size="24px" font-style="normal" font-weight="normal" text-decoration="none" x="200" y="150">UNREGISTERED</text><text fill="#eeeeee" stroke="none" font-family="Arial" font-size="24px" font-style="normal" font-weight="normal" text-decoration="none" x="200" y="180">UNREGISTERED</text><text fill="#eeeeee" stroke="none" font-family="Arial" font-size="24px" font-style="normal" font-weight="normal" text-decoration="none" x="200" y="210">UNREGISTERED</text><text fill="#eeeeee" stroke="none" font-family="Arial" font-size="24px" font-style="normal" font-weight="normal" text-decoration="none" x="200" y="240">UNREGISTERED</text><text fill="#eeeeee" stroke="none" font-family="Arial" font-size="24px" font-style="normal" font-weight="normal" text-decoration="none" x="200" y="270">UNREGISTERED</text><text fill="#eeeeee" stroke="none" font-family="Arial" font-size="24px" font-style="normal" font-weight="normal" text-decoration="none" x="200" y="300">UNREGISTERED</text><text fill="#eeeeee" stroke="none" font-family="Arial" font-size="24px" font-style="normal" font-weight="normal" text-decoration="none" x="200" y="330">UNREGISTERED</text><text fill="#eeeeee" stroke="none" font-family="Arial" font-size="24px" font-style="normal" font-weight="normal" text-decoration="none" x="200" y="360">UNREGISTERED</text><text fill="#eeeeee" stroke="none" font-family="Arial" font-size="24px" font-style="normal" font-weight="normal" text-decoration="none" x="200" y="390">UNREGISTERED</text><text fill="#eeeeee" stroke="none" font-family="Arial" font-size="24px" font-style="normal" font-weight="normal" text-decoration="none" x="200" y="420">UNREGISTERED</text><text fill="#eeeeee" stroke="none" font-family="Arial" font-size="24px" font-style="normal" font-weight="normal" text-decoration="none" x="200" y="450">UNREGISTERED</text><text fill="#eeeeee" stroke="none" font-family="Arial" font-size="24px" font-style="normal" font-weight="normal" text-decoration="none" x="200" y="480">UNREGISTERED</text><text fill="#eeeeee" stroke="none" font-family="Arial" font-size="24px" font-style="normal" font-weight="normal" text-decoration="none" x="200" y="510">UNREGISTERED</text><text fill="#eeeeee" stroke="none" font-family="Arial" font-size="24px" font-style="normal" font-weight="normal" text-decoration="none" x="200" y="540">UNREGISTERED</text><text fill="#eeeeee" stroke="none" font-family="Arial" font-size="24px" font-style="normal" font-weight="normal" text-decoration="none" x="200" y="570">UNREGISTERED</text><text fill="#eeeeee" stroke="none" font-family="Arial" font-size="24px" font-style="normal" font-weight="normal" text-decoration="none" x="200" y="600">UNREGISTERED</text><text fill="#eeeeee" stroke="none" font-family="Arial" font-size="24px" font-style="normal" font-weight="normal" text-decoration="none" x="400" y="0">UNREGISTERED</text><text fill="#eeeeee" stroke="none" font-family="Arial" font-size="24px" font-style="normal" font-weight="normal" text-decoration="none" x="400" y="30">UNREGISTERED</text><text fill="#eeeeee" stroke="none" font-family="Arial" font-size="24px" font-style="normal" font-weight="normal" text-decoration="none" x="400" y="60">UNREGISTERED</text><text fill="#eeeeee" stroke="none" font-family="Arial" font-size="24px" font-style="normal" font-weight="normal" text-decoration="none" x="400" y="90">UNREGISTERED</text><text fill="#eeeeee" stroke="none" font-family="Arial" font-size="24px" font-style="normal" font-weight="normal" text-decoration="none" x="400" y="120">UNREGISTERED</text><text fill="#eeeeee" stroke="none" font-family="Arial" font-size="24px" font-style="normal" font-weight="normal" text-decoration="none" x="400" y="150">UNREGISTERED</text><text fill="#eeeeee" stroke="none" font-family="Arial" font-size="24px" font-style="normal" font-weight="normal" text-decoration="none" x="400" y="180">UNREGISTERED</text><text fill="#eeeeee" stroke="none" font-family="Arial" font-size="24px" font-style="normal" font-weight="normal" text-decoration="none" x="400" y="210">UNREGISTERED</text><text fill="#eeeeee" stroke="none" font-family="Arial" font-size="24px" font-style="normal" font-weight="normal" text-decoration="none" x="400" y="240">UNREGISTERED</text><text fill="#eeeeee" stroke="none" font-family="Arial" font-size="24px" font-style="normal" font-weight="normal" text-decoration="none" x="400" y="270">UNREGISTERED</text><text fill="#eeeeee" stroke="none" font-family="Arial" font-size="24px" font-style="normal" font-weight="normal" text-decoration="none" x="400" y="300">UNREGISTERED</text><text fill="#eeeeee" stroke="none" font-family="Arial" font-size="24px" font-style="normal" font-weight="normal" text-decoration="none" x="400" y="330">UNREGISTERED</text><text fill="#eeeeee" stroke="none" font-family="Arial" font-size="24px" font-style="normal" font-weight="normal" text-decoration="none" x="400" y="360">UNREGISTERED</text><text fill="#eeeeee" stroke="none" font-family="Arial" font-size="24px" font-style="normal" font-weight="normal" text-decoration="none" x="400" y="390">UNREGISTERED</text><text fill="#eeeeee" stroke="none" font-family="Arial" font-size="24px" font-style="normal" font-weight="normal" text-decoration="none" x="400" y="420">UNREGISTERED</text><text fill="#eeeeee" stroke="none" font-family="Arial" font-size="24px" font-style="normal" font-weight="normal" text-decoration="none" x="400" y="450">UNREGISTERED</text><text fill="#eeeeee" stroke="none" font-family="Arial" font-size="24px" font-style="normal" font-weight="normal" text-decoration="none" x="400" y="480">UNREGISTERED</text><text fill="#eeeeee" stroke="none" font-family="Arial" font-size="24px" font-style="normal" font-weight="normal" text-decoration="none" x="400" y="510">UNREGISTERED</text><text fill="#eeeeee" stroke="none" font-family="Arial" font-size="24px" font-style="normal" font-weight="normal" text-decoration="none" x="400" y="540">UNREGISTERED</text><text fill="#eeeeee" stroke="none" font-family="Arial" font-size="24px" font-style="normal" font-weight="normal" text-decoration="none" x="400" y="570">UNREGISTERED</text><text fill="#eeeeee" stroke="none" font-family="Arial" font-size="24px" font-style="normal" font-weight="normal" text-decoration="none" x="400" y="600">UNREGISTERED</text><text fill="#eeeeee" stroke="none" font-family="Arial" font-size="24px" font-style="normal" font-weight="normal" text-decoration="none" x="600" y="0">UNREGISTERED</text><text fill="#eeeeee" stroke="none" font-family="Arial" font-size="24px" font-style="normal" font-weight="normal" text-decoration="none" x="600" y="30">UNREGISTERED</text><text fill="#eeeeee" stroke="none" font-family="Arial" font-size="24px" font-style="normal" font-weight="normal" text-decoration="none" x="600" y="60">UNREGISTERED</text><text fill="#eeeeee" stroke="none" font-family="Arial" font-size="24px" font-style="normal" font-weight="normal" text-decoration="none" x="600" y="90">UNREGISTERED</text><text fill="#eeeeee" stroke="none" font-family="Arial" font-size="24px" font-style="normal" font-weight="normal" text-decoration="none" x="600" y="120">UNREGISTERED</text><text fill="#eeeeee" stroke="none" font-family="Arial" font-size="24px" font-style="normal" font-weight="normal" text-decoration="none" x="600" y="150">UNREGISTERED</text><text fill="#eeeeee" stroke="none" font-family="Arial" font-size="24px" font-style="normal" font-weight="normal" text-decoration="none" x="600" y="180">UNREGISTERED</text><text fill="#eeeeee" stroke="none" font-family="Arial" font-size="24px" font-style="normal" font-weight="normal" text-decoration="none" x="600" y="210">UNREGISTERED</text><text fill="#eeeeee" stroke="none" font-family="Arial" font-size="24px" font-style="normal" font-weight="normal" text-decoration="none" x="600" y="240">UNREGISTERED</text><text fill="#eeeeee" stroke="none" font-family="Arial" font-size="24px" font-style="normal" font-weight="normal" text-decoration="none" x="600" y="270">UNREGISTERED</text><text fill="#eeeeee" stroke="none" font-family="Arial" font-size="24px" font-style="normal" font-weight="normal" text-decoration="none" x="600" y="300">UNREGISTERED</text><text fill="#eeeeee" stroke="none" font-family="Arial" font-size="24px" font-style="normal" font-weight="normal" text-decoration="none" x="600" y="330">UNREGISTERED</text><text fill="#eeeeee" stroke="none" font-family="Arial" font-size="24px" font-style="normal" font-weight="normal" text-decoration="none" x="600" y="360">UNREGISTERED</text><text fill="#eeeeee" stroke="none" font-family="Arial" font-size="24px" font-style="normal" font-weight="normal" text-decoration="none" x="600" y="390">UNREGISTERED</text><text fill="#eeeeee" stroke="none" font-family="Arial" font-size="24px" font-style="normal" font-weight="normal" text-decoration="none" x="600" y="420">UNREGISTERED</text><text fill="#eeeeee" stroke="none" font-family="Arial" font-size="24px" font-style="normal" font-weight="normal" text-decoration="none" x="600" y="450">UNREGISTERED</text><text fill="#eeeeee" stroke="none" font-family="Arial" font-size="24px" font-style="normal" font-weight="normal" text-decoration="none" x="600" y="480">UNREGISTERED</text><text fill="#eeeeee" stroke="none" font-family="Arial" font-size="24px" font-style="normal" font-weight="normal" text-decoration="none" x="600" y="510">UNREGISTERED</text><text fill="#eeeeee" stroke="none" font-family="Arial" font-size="24px" font-style="normal" font-weight="normal" text-decoration="none" x="600" y="540">UNREGISTERED</text><text fill="#eeeeee" stroke="none" font-family="Arial" font-size="24px" font-style="normal" font-weight="normal" text-decoration="none" x="600" y="570">UNREGISTERED</text><text fill="#eeeeee" stroke="none" font-family="Arial" font-size="24px" font-style="normal" font-weight="normal" text-decoration="none" x="600" y="600">UNREGISTERED</text><text fill="#eeeeee" stroke="none" font-family="Arial" font-size="24px" font-style="normal" font-weight="normal" text-decoration="none" x="800" y="0">UNREGISTERED</text><text fill="#eeeeee" stroke="none" font-family="Arial" font-size="24px" font-style="normal" font-weight="normal" text-decoration="none" x="800" y="30">UNREGISTERED</text><text fill="#eeeeee" stroke="none" font-family="Arial" font-size="24px" font-style="normal" font-weight="normal" text-decoration="none" x="800" y="60">UNREGISTERED</text><text fill="#eeeeee" stroke="none" font-family="Arial" font-size="24px" font-style="normal" font-weight="normal" text-decoration="none" x="800" y="90">UNREGISTERED</text><text fill="#eeeeee" stroke="none" font-family="Arial" font-size="24px" font-style="normal" font-weight="normal" text-decoration="none" x="800" y="120">UNREGISTERED</text><text fill="#eeeeee" stroke="none" font-family="Arial" font-size="24px" font-style="normal" font-weight="normal" text-decoration="none" x="800" y="150">UNREGISTERED</text><text fill="#eeeeee" stroke="none" font-family="Arial" font-size="24px" font-style="normal" font-weight="normal" text-decoration="none" x="800" y="180">UNREGISTERED</text><text fill="#eeeeee" stroke="none" font-family="Arial" font-size="24px" font-style="normal" font-weight="normal" text-decoration="none" x="800" y="210">UNREGISTERED</text><text fill="#eeeeee" stroke="none" font-family="Arial" font-size="24px" font-style="normal" font-weight="normal" text-decoration="none" x="800" y="240">UNREGISTERED</text><text fill="#eeeeee" stroke="none" font-family="Arial" font-size="24px" font-style="normal" font-weight="normal" text-decoration="none" x="800" y="270">UNREGISTERED</text><text fill="#eeeeee" stroke="none" font-family="Arial" font-size="24px" font-style="normal" font-weight="normal" text-decoration="none" x="800" y="300">UNREGISTERED</text><text fill="#eeeeee" stroke="none" font-family="Arial" font-size="24px" font-style="normal" font-weight="normal" text-decoration="none" x="800" y="330">UNREGISTERED</text><text fill="#eeeeee" stroke="none" font-family="Arial" font-size="24px" font-style="normal" font-weight="normal" text-decoration="none" x="800" y="360">UNREGISTERED</text><text fill="#eeeeee" stroke="none" font-family="Arial" font-size="24px" font-style="normal" font-weight="normal" text-decoration="none" x="800" y="390">UNREGISTERED</text><text fill="#eeeeee" stroke="none" font-family="Arial" font-size="24px" font-style="normal" font-weight="normal" text-decoration="none" x="800" y="420">UNREGISTERED</text><text fill="#eeeeee" stroke="none" font-family="Arial" font-size="24px" font-style="normal" font-weight="normal" text-decoration="none" x="800" y="450">UNREGISTERED</text><text fill="#eeeeee" stroke="none" font-family="Arial" font-size="24px" font-style="normal" font-weight="normal" text-decoration="none" x="800" y="480">UNREGISTERED</text><text fill="#eeeeee" stroke="none" font-family="Arial" font-size="24px" font-style="normal" font-weight="normal" text-decoration="none" x="800" y="510">UNREGISTERED</text><text fill="#eeeeee" stroke="none" font-family="Arial" font-size="24px" font-style="normal" font-weight="normal" text-decoration="none" x="800" y="540">UNREGISTERED</text><text fill="#eeeeee" stroke="none" font-family="Arial" font-size="24px" font-style="normal" font-weight="normal" text-decoration="none" x="800" y="570">UNREGISTERED</text><text fill="#eeeeee" stroke="none" font-family="Arial" font-size="24px" font-style="normal" font-weight="normal" text-decoration="none" x="800" y="600">UNREGISTERED</text><g transform="translate(-270,-142) scale(1,1)"><rect fill="#ffffff" stroke="none" x="280" y="152" width="824" height="584"/></g><g transform="translate(-270,-142) scale(1,1)"><path fill="none" stroke="#000000" d="M 280 152 L 1104 152 L 1104 736 L 280 736 L 280 152 Z Z" stroke-miterlimit="10"/></g><g transform="translate(-270,-142) scale(1,1)"><rect fill="#ffffff" stroke="none" x="280" y="152" width="272" height="21"/></g><g transform="translate(-270,-142) scale(1,1)"><path fill="none" stroke="#000000" d="M 280 152 L 552 152 L 552 173 L 280 173 L 280 152 Z Z" stroke-miterlimit="10" stroke-width="2"/></g><g transform="translate(-270,-142) scale(1,1)"><path fill="none" stroke="#000000" d="M 280 735 L 280 152 L 552 152 L 552 735" stroke-miterlimit="10" stroke-width="2"/></g><g transform="translate(-270,-142) scale(1,1)"><g><path fill="none" stroke="none"/><text fill="#000000" stroke="none" font-family="Arial" font-size="13px" font-style="normal" font-weight="normal" text-decoration="none" x="395.766845703125" y="166">Cliente</text></g></g><g transform="translate(-270,-142) scale(1,1)"><rect fill="#ffffff" stroke="none" x="552" y="152" width="280" height="21"/></g><g transform="translate(-270,-142) scale(1,1)"><path fill="none" stroke="#000000" d="M 552 152 L 832 152 L 832 173 L 552 173 L 552 152 Z Z" stroke-miterlimit="10" stroke-width="2"/></g><g transform="translate(-270,-142) scale(1,1)"><path fill="none" stroke="#000000" d="M 552 736 L 552 152 L 832 152 L 832 736" stroke-miterlimit="10" stroke-width="2"/></g><g transform="translate(-270,-142) scale(1,1)"><g><path fill="none" stroke="none"/><text fill="#000000" stroke="none" font-family="Arial" font-size="13px" font-style="normal" font-weight="normal" text-decoration="none" x="678.75244140625" y="166">Web</text></g></g><g transform="translate(-270,-142) scale(1,1)"><rect fill="#ffffff" stroke="none" x="832" y="152" width="271" height="21"/></g><g transform="translate(-270,-142) scale(1,1)"><path fill="none" stroke="#000000" d="M 832 152 L 1103 152 L 1103 173 L 832 173 L 832 152 Z Z" stroke-miterlimit="10" stroke-width="2"/></g><g transform="translate(-270,-142) scale(1,1)"><path fill="none" stroke="#000000" d="M 832 735 L 832 152 L 1103 152 L 1103 735" stroke-miterlimit="10" stroke-width="2"/></g><g transform="translate(-270,-142) scale(1,1)"><g><path fill="none" stroke="none"/><text fill="#000000" stroke="none" font-family="Arial" font-size="13px" font-style="normal" font-weight="normal" text-decoration="none" x="934.260498046875" y="166">Fornecedor</text></g></g><g transform="translate(-270,-142) scale(1,1)"><path fill="#C0C0C0" stroke="none" d="M 415 192.5 C 415 187.2532944 419.2532944 183 424.5 183 C 429.7467056 183 434 187.2532944 434 192.5 C 434 197.7467056 429.7467056 202 424.5 202 C 419.2532944 202 415 197.7467056 415 192.5 Z" opacity="0.2"/></g><g transform="translate(-270,-142) scale(1,1)"><path fill="#000000" stroke="none" d="M 408 185.5 C 408 180.2532944 412.2532944 176 417.5 176 C 422.7467056 176 427 180.2532944 427 185.5 C 427 190.7467056 422.7467056 195 417.5 195 C 412.2532944 195 408 190.7467056 408 185.5 Z"/></g><g transform="translate(-270,-142) scale(1,1)"><path fill="#C0C0C0" stroke="none" d="M 401 239 L 450.658203125 239 Q 460.658203125 239 460.658203125 249 L 460.658203125 269 Q 460.658203125 279 450.658203125 279 L 401 279 Q 391 279 391 269 L 391 249 Q 391 239 401 239 Z" opacity="0.2"/></g><g transform="translate(-270,-142) scale(1,1)"><path fill="#ffffff" stroke="none" d="M 394 232 L 443.658203125 232 Q 453.658203125 232 453.658203125 242 L 453.658203125 262 Q 453.658203125 272 443.658203125 272 L 394 272 Q 384 272 384 262 L 384 242 Q 384 232 394 232 Z"/></g><g transform="translate(-270,-142) scale(1,1)"><path fill="none" stroke="#000000" d="M 394 232 L 443.658203125 232 Q 453.658203125 232 453.658203125 242 L 453.658203125 262 Q 453.658203125 272 443.658203125 272 L 394 272 Q 384 272 384 262 L 384 242 Q 384 232 394 232 Z" stroke-miterlimit="10"/></g><g transform="translate(-270,-142) scale(1,1)"><g><path fill="none" stroke="none"/><text fill="#000000" stroke="none" font-family="Arial" font-size="13px" font-style="normal" font-weight="bold" text-decoration="none" x="388.5" y="250">Faz Login</text></g></g><g transform="translate(-270,-142) scale(1,1)"><path fill="none" stroke="#000000" d="M 417 196 L 418 231" stroke-miterlimit="10"/></g><g transform="translate(-270,-142) scale(1,1)"><path fill="none" stroke="#000000" d="M 413.5019556671291 220.96169351038094 L 418 231 L 421.9175569405878 220.7212477597107" stroke-miterlimit="10"/></g><g transform="translate(-270,-142) scale(1,1)"><path fill="#C0C0C0" stroke="none" d="M 641 239 L 741.24267578125 239 Q 751.24267578125 239 751.24267578125 249 L 751.24267578125 269 Q 751.24267578125 279 741.24267578125 279 L 641 279 Q 631 279 631 269 L 631 249 Q 631 239 641 239 Z" opacity="0.2"/></g><g transform="translate(-270,-142) scale(1,1)"><path fill="#ffffff" stroke="none" d="M 634 232 L 734.24267578125 232 Q 744.24267578125 232 744.24267578125 242 L 744.24267578125 262 Q 744.24267578125 272 734.24267578125 272 L 634 272 Q 624 272 624 262 L 624 242 Q 624 232 634 232 Z"/></g><g transform="translate(-270,-142) scale(1,1)"><path fill="none" stroke="#000000" d="M 634 232 L 734.24267578125 232 Q 744.24267578125 232 744.24267578125 242 L 744.24267578125 262 Q 744.24267578125 272 734.24267578125 272 L 634 272 Q 624 272 624 262 L 624 242 Q 624 232 634 232 Z" stroke-miterlimit="10"/></g><g transform="translate(-270,-142) scale(1,1)"><g><path fill="none" stroke="none"/><text fill="#000000" stroke="none" font-family="Arial" font-size="13px" font-style="normal" font-weight="bold" text-decoration="none" x="628.5" y="250">Autentica Usuário</text></g></g><g transform="translate(-270,-142) scale(1,1)"><path fill="none" stroke="#000000" d="M 455 252 L 623 252" stroke-miterlimit="10"/></g><g transform="translate(-270,-142) scale(1,1)"><path fill="none" stroke="#000000" d="M 612.8373251423759 256.209517756016 L 623 252 L 612.8373251423758 247.790482243984" stroke-miterlimit="10"/></g><g transform="translate(-270,-142) scale(1,1)"><path fill="#C0C0C0" stroke="none" d="M 641 311 L 748 311 Q 758 311 758 321 L 758 341 Q 758 351 748 351 L 641 351 Q 631 351 631 341 L 631 321 Q 631 311 641 311 Z" opacity="0.2"/></g><g transform="translate(-270,-142) scale(1,1)"><path fill="#ffffff" stroke="none" d="M 634 304 L 741 304 Q 751 304 751 314 L 751 334 Q 751 344 741 344 L 634 344 Q 624 344 624 334 L 624 314 Q 624 304 634 304 Z"/></g><g transform="translate(-270,-142) scale(1,1)"><path fill="none" stroke="#000000" d="M 634 304 L 741 304 Q 751 304 751 314 L 751 334 Q 751 344 741 344 L 634 344 Q 624 344 624 334 L 624 314 Q 624 304 634 304 Z" stroke-miterlimit="10"/></g><g transform="translate(-270,-142) scale(1,1)"><g><path fill="none" stroke="none"/><text fill="#000000" stroke="none" font-family="Arial" font-size="13px" font-style="normal" font-weight="bold" text-decoration="none" x="639.825927734375" y="322">Exibe Produtos</text></g></g><g transform="translate(-270,-142) scale(1,1)"><path fill="none" stroke="#000000" d="M 685 273 L 686 303" stroke-miterlimit="10"/></g><g transform="translate(-270,-142) scale(1,1)"><path fill="none" stroke="#000000" d="M 681.4542511303202 292.9832057416654 L 686 303 L 689.8686132944972 292.7027270028595" stroke-miterlimit="10"/></g><g transform="translate(-270,-142) scale(1,1)"><path fill="#C0C0C0" stroke="none" d="M 385 311 L 488.130859375 311 Q 498.130859375 311 498.130859375 321 L 498.130859375 341 Q 498.130859375 351 488.130859375 351 L 385 351 Q 375 351 375 341 L 375 321 Q 375 311 385 311 Z" opacity="0.2"/></g><g transform="translate(-270,-142) scale(1,1)"><path fill="#ffffff" stroke="none" d="M 378 304 L 481.130859375 304 Q 491.130859375 304 491.130859375 314 L 491.130859375 334 Q 491.130859375 344 481.130859375 344 L 378 344 Q 368 344 368 334 L 368 314 Q 368 304 378 304 Z"/></g><g transform="translate(-270,-142) scale(1,1)"><path fill="none" stroke="#000000" d="M 378 304 L 481.130859375 304 Q 491.130859375 304 491.130859375 314 L 491.130859375 334 Q 491.130859375 344 481.130859375 344 L 378 344 Q 368 344 368 334 L 368 314 Q 368 304 378 304 Z" stroke-miterlimit="10"/></g><g transform="translate(-270,-142) scale(1,1)"><g><path fill="none" stroke="none"/><text fill="#000000" stroke="none" font-family="Arial" font-size="13px" font-style="normal" font-weight="bold" text-decoration="none" x="372.5" y="322">Seleciona Produto</text></g></g><g transform="translate(-270,-142) scale(1,1)"><path fill="none" stroke="#000000" d="M 623 324 L 492 324" stroke-miterlimit="10"/></g><g transform="translate(-270,-142) scale(1,1)"><path fill="none" stroke="#000000" d="M 502.16267485762415 319.790482243984 L 492 324 L 502.16267485762415 328.209517756016" stroke-miterlimit="10"/></g><g transform="translate(-270,-142) scale(1,1)"><path fill="none" stroke="#000000" d="M 429 345 L 428 383" stroke-miterlimit="10"/></g><g transform="translate(-270,-142) scale(1,1)"><path fill="none" stroke="#000000" d="M 424.0592853332588 372.7301038021151 L 428 383 L 432.4754071800324 372.9515806928197" stroke-miterlimit="10"/></g><g transform="translate(-270,-142) scale(1,1)"><path fill="#C0C0C0" stroke="none" d="M 385 391 L 485 391 Q 495 391 495 401 L 495 421 Q 495 431 485 431 L 385 431 Q 375 431 375 421 L 375 401 Q 375 391 385 391 Z" opacity="0.2"/></g><g transform="translate(-270,-142) scale(1,1)"><path fill="#ffffff" stroke="none" d="M 378 384 L 478 384 Q 488 384 488 394 L 488 414 Q 488 424 478 424 L 378 424 Q 368 424 368 414 L 368 394 Q 368 384 378 384 Z"/></g><g transform="translate(-270,-142) scale(1,1)"><path fill="none" stroke="#000000" d="M 378 384 L 478 384 Q 488 384 488 394 L 488 414 Q 488 424 478 424 L 378 424 Q 368 424 368 414 L 368 394 Q 368 384 378 384 Z" stroke-miterlimit="10"/></g><g transform="translate(-270,-142) scale(1,1)"><g><path fill="none" stroke="none"/><text fill="#000000" stroke="none" font-family="Arial" font-size="13px" font-style="normal" font-weight="bold" text-decoration="none" x="380.694091796875" y="402">Conclui Pedido</text></g></g><g transform="translate(-270,-142) scale(1,1)"><path fill="#C0C0C0" stroke="none" d="M 385 471 L 487.41357421875 471 Q 497.41357421875 471 497.41357421875 481 L 497.41357421875 501 Q 497.41357421875 511 487.41357421875 511 L 385 511 Q 375 511 375 501 L 375 481 Q 375 471 385 471 Z" opacity="0.2"/></g><g transform="translate(-270,-142) scale(1,1)"><path fill="#ffffff" stroke="none" d="M 378 464 L 480.41357421875 464 Q 490.41357421875 464 490.41357421875 474 L 490.41357421875 494 Q 490.41357421875 504 480.41357421875 504 L 378 504 Q 368 504 368 494 L 368 474 Q 368 464 378 464 Z"/></g><g transform="translate(-270,-142) scale(1,1)"><path fill="none" stroke="#000000" d="M 378 464 L 480.41357421875 464 Q 490.41357421875 464 490.41357421875 474 L 490.41357421875 494 Q 490.41357421875 504 480.41357421875 504 L 378 504 Q 368 504 368 494 L 368 474 Q 368 464 378 464 Z" stroke-miterlimit="10"/></g><g transform="translate(-270,-142) scale(1,1)"><g><path fill="none" stroke="none"/><text fill="#000000" stroke="none" font-family="Arial" font-size="13px" font-style="normal" font-weight="bold" text-decoration="none" x="372.5" y="482">Efetua Pagamento</text></g></g><g transform="translate(-270,-142) scale(1,1)"><path fill="none" stroke="#000000" d="M 428 425 L 429 463" stroke-miterlimit="10"/></g><g transform="translate(-270,-142) scale(1,1)"><path fill="none" stroke="#000000" d="M 424.5245928199676 452.9515806928197 L 429 463 L 432.9407146667412 452.7301038021151" stroke-miterlimit="10"/></g><g transform="translate(-270,-142) scale(1,1)"><path fill="#C0C0C0" stroke="none" d="M 625 471 L 724 471 Q 734 471 734 481 L 734 501 Q 734 511 724 511 L 625 511 Q 615 511 615 501 L 615 481 Q 615 471 625 471 Z" opacity="0.2"/></g><g transform="translate(-270,-142) scale(1,1)"><path fill="#ffffff" stroke="none" d="M 618 464 L 717 464 Q 727 464 727 474 L 727 494 Q 727 504 717 504 L 618 504 Q 608 504 608 494 L 608 474 Q 608 464 618 464 Z"/></g><g transform="translate(-270,-142) scale(1,1)"><path fill="none" stroke="#000000" d="M 618 464 L 717 464 Q 727 464 727 474 L 727 494 Q 727 504 717 504 L 618 504 Q 608 504 608 494 L 608 474 Q 608 464 618 464 Z" stroke-miterlimit="10"/></g><g transform="translate(-270,-142) scale(1,1)"><g><path fill="none" stroke="none"/><text fill="#000000" stroke="none" font-family="Arial" font-size="13px" font-style="normal" font-weight="bold" text-decoration="none" x="618.0263671875" y="482">Autoriza Pedido</text></g></g><g transform="translate(-270,-142) scale(1,1)"><path fill="none" stroke="#000000" d="M 491 484 L 607 484" stroke-miterlimit="10"/></g><g transform="translate(-270,-142) scale(1,1)"><path fill="none" stroke="#000000" d="M 596.8373251423759 488.209517756016 L 607 484 L 596.8373251423758 479.790482243984" stroke-miterlimit="10"/></g><g transform="translate(-270,-142) scale(1,1)"><path fill="#C0C0C0" stroke="none" d="M 889 471 L 1071.603515625 471 Q 1081.603515625 471 1081.603515625 481 L 1081.603515625 501 Q 1081.603515625 511 1071.603515625 511 L 889 511 Q 879 511 879 501 L 879 481 Q 879 471 889 471 Z" opacity="0.2"/></g><g transform="translate(-270,-142) scale(1,1)"><path fill="#ffffff" stroke="none" d="M 882 464 L 1064.603515625 464 Q 1074.603515625 464 1074.603515625 474 L 1074.603515625 494 Q 1074.603515625 504 1064.603515625 504 L 882 504 Q 872 504 872 494 L 872 474 Q 872 464 882 464 Z"/></g><g transform="translate(-270,-142) scale(1,1)"><path fill="none" stroke="#000000" d="M 882 464 L 1064.603515625 464 Q 1074.603515625 464 1074.603515625 474 L 1074.603515625 494 Q 1074.603515625 504 1064.603515625 504 L 882 504 Q 872 504 872 494 L 872 474 Q 872 464 882 464 Z" stroke-miterlimit="10"/></g><g transform="translate(-270,-142) scale(1,1)"><g><path fill="none" stroke="none"/><text fill="#000000" stroke="none" font-family="Arial" font-size="13px" font-style="normal" font-weight="bold" text-decoration="none" x="876.5" y="482">Recebe Informações do Pedido</text></g></g><g transform="translate(-270,-142) scale(1,1)"><path fill="none" stroke="#000000" d="M 728 484 L 871 484" stroke-miterlimit="10"/></g><g transform="translate(-270,-142) scale(1,1)"><path fill="none" stroke="#000000" d="M 860.8373251423759 488.209517756016 L 871 484 L 860.8373251423758 479.790482243984" stroke-miterlimit="10"/></g><g transform="translate(-270,-142) scale(1,1)"><path fill="#C0C0C0" stroke="none" d="M 913 543 L 1053 543 Q 1063 543 1063 553 L 1063 573 Q 1063 583 1053 583 L 913 583 Q 903 583 903 573 L 903 553 Q 903 543 913 543 Z" opacity="0.2"/></g><g transform="translate(-270,-142) scale(1,1)"><path fill="#ffffff" stroke="none" d="M 906 536 L 1046 536 Q 1056 536 1056 546 L 1056 566 Q 1056 576 1046 576 L 906 576 Q 896 576 896 566 L 896 546 Q 896 536 906 536 Z"/></g><g transform="translate(-270,-142) scale(1,1)"><path fill="none" stroke="#000000" d="M 906 536 L 1046 536 Q 1056 536 1056 546 L 1056 566 Q 1056 576 1046 576 L 906 576 Q 896 576 896 566 L 896 546 Q 896 536 906 536 Z" stroke-miterlimit="10"/></g><g transform="translate(-270,-142) scale(1,1)"><g><path fill="none" stroke="none"/><text fill="#000000" stroke="none" font-family="Arial" font-size="13px" font-style="normal" font-weight="bold" text-decoration="none" x="922.54638671875" y="554">Fabrica Produtos</text></g></g><g transform="translate(-270,-142) scale(1,1)"><path fill="none" stroke="#000000" d="M 974 505 L 975 535" stroke-miterlimit="10"/></g><g transform="translate(-270,-142) scale(1,1)"><path fill="none" stroke="#000000" d="M 970.4542511303202 524.9832057416654 L 975 535 L 978.8686132944972 524.7027270028594" stroke-miterlimit="10"/></g><g transform="translate(-270,-142) scale(1,1)"><path fill="#C0C0C0" stroke="none" d="M 921 615 L 1044 615 Q 1054 615 1054 625 L 1054 645 Q 1054 655 1044 655 L 921 655 Q 911 655 911 645 L 911 625 Q 911 615 921 615 Z" opacity="0.2"/></g><g transform="translate(-270,-142) scale(1,1)"><path fill="#ffffff" stroke="none" d="M 914 608 L 1037 608 Q 1047 608 1047 618 L 1047 638 Q 1047 648 1037 648 L 914 648 Q 904 648 904 638 L 904 618 Q 904 608 914 608 Z"/></g><g transform="translate(-270,-142) scale(1,1)"><path fill="none" stroke="#000000" d="M 914 608 L 1037 608 Q 1047 608 1047 618 L 1047 638 Q 1047 648 1037 648 L 914 648 Q 904 648 904 638 L 904 618 Q 904 608 914 608 Z" stroke-miterlimit="10"/></g><g transform="translate(-270,-142) scale(1,1)"><g><path fill="none" stroke="none"/><text fill="#000000" stroke="none" font-family="Arial" font-size="13px" font-style="normal" font-weight="bold" text-decoration="none" x="927.825927734375" y="626">Envia Produtos</text></g></g><g transform="translate(-270,-142) scale(1,1)"><path fill="none" stroke="#000000" d="M 976 577 L 975 607" stroke-miterlimit="10"/></g><g transform="translate(-270,-142) scale(1,1)"><path fill="none" stroke="#000000" d="M 971.1313867055028 596.7027270028594 L 975 607 L 979.5457488696798 596.9832057416654" stroke-miterlimit="10"/></g><g transform="translate(-270,-142) scale(1,1)"><path fill="#C0C0C0" stroke="none" d="M 641 615 L 748 615 Q 758 615 758 625 L 758 645 Q 758 655 748 655 L 641 655 Q 631 655 631 645 L 631 625 Q 631 615 641 615 Z" opacity="0.2"/></g><g transform="translate(-270,-142) scale(1,1)"><path fill="#ffffff" stroke="none" d="M 634 608 L 741 608 Q 751 608 751 618 L 751 638 Q 751 648 741 648 L 634 648 Q 624 648 624 638 L 624 618 Q 624 608 634 608 Z"/></g><g transform="translate(-270,-142) scale(1,1)"><path fill="none" stroke="#000000" d="M 634 608 L 741 608 Q 751 608 751 618 L 751 638 Q 751 648 741 648 L 634 648 Q 624 648 624 638 L 624 618 Q 624 608 634 608 Z" stroke-miterlimit="10"/></g><g transform="translate(-270,-142) scale(1,1)"><g><path fill="none" stroke="none"/><text fill="#000000" stroke="none" font-family="Arial" font-size="13px" font-style="normal" font-weight="bold" text-decoration="none" x="635.839599609375" y="626">Rastreia Entrega</text></g></g><g transform="translate(-270,-142) scale(1,1)"><path fill="none" stroke="#000000" d="M 903 628 L 752 628" stroke-miterlimit="10"/></g><g transform="translate(-270,-142) scale(1,1)"><path fill="none" stroke="#000000" d="M 762.1626748576241 623.790482243984 L 752 628 L 762.1626748576241 632.209517756016" stroke-miterlimit="10"/></g><g transform="translate(-270,-142) scale(1,1)"><path fill="#C0C0C0" stroke="none" d="M 377 615 L 492 615 Q 502 615 502 625 L 502 652 Q 502 662 492 662 L 377 662 Q 367 662 367 652 L 367 625 Q 367 615 377 615 Z" opacity="0.2"/></g><g transform="translate(-270,-142) scale(1,1)"><path fill="#ffffff" stroke="none" d="M 370 608 L 485 608 Q 495 608 495 618 L 495 645 Q 495 655 485 655 L 370 655 Q 360 655 360 645 L 360 618 Q 360 608 370 608 Z"/></g><g transform="translate(-270,-142) scale(1,1)"><path fill="none" stroke="#000000" d="M 370 608 L 485 608 Q 495 608 495 618 L 495 645 Q 495 655 485 655 L 370 655 Q 360 655 360 645 L 360 618 Q 360 608 370 608 Z" stroke-miterlimit="10"/></g><g transform="translate(-270,-142) scale(1,1)"><g><path fill="none" stroke="none"/><text fill="#000000" stroke="none" font-family="Arial" font-size="13px" font-style="normal" font-weight="bold" text-decoration="none" x="377.658203125" y="626">Recebe Produto</text></g></g><g transform="translate(-270,-142) scale(1,1)"><path fill="none" stroke="#000000" d="M 623 629 L 496 630" stroke-miterlimit="10"/></g><g transform="translate(-270,-142) scale(1,1)"><path fill="none" stroke="#000000" d="M 506.12921504709414 625.7105941518992 L 496 630 L 506.1955046103504 634.1293686854438" stroke-miterlimit="10"/></g><g transform="translate(-270,-142) scale(1,1)"><path fill="#C0C0C0" stroke="none" d="M 423 707.5 C 423 700.59644 428.59644 695 435.5 695 C 442.40356 695 448 700.59644 448 707.5 C 448 714.40356 442.40356 720 435.5 720 C 428.59644 720 423 714.40356 423 707.5 Z" opacity="0.2"/></g><g transform="translate(-270,-142) scale(1,1)"><path fill="none" stroke="#000000" d="M 416 700.5 C 416 693.59644 421.59644 688 428.5 688 C 435.40356 688 441 693.59644 441 700.5 C 441 707.40356 435.40356 713 428.5 713 C 421.59644 713 416 707.40356 416 700.5 Z" stroke-miterlimit="10"/></g><g transform="translate(-270,-142) scale(1,1)"><path fill="#000000" stroke="none" d="M 421 700.5 C 421 696.357864 424.357864 693 428.5 693 C 432.642136 693 436 696.357864 436 700.5 C 436 704.642136 432.642136 708 428.5 708 C 424.357864 708 421 704.642136 421 700.5 Z"/></g><g transform="translate(-270,-142) scale(1,1)"><path fill="none" stroke="#000000" d="M 427 656 L 428 687" stroke-miterlimit="10"/></g><g transform="translate(-270,-142) scale(1,1)"><path fill="none" stroke="#000000" d="M 423.4650129238797 676.9783288709207 L 428 687 L 431.8796715000754 676.7068882716885" stroke-miterlimit="10"/></g></g></svg>