<svg version="1.1" xmlns="http://www.w3.org/2000/svg" xmlns:xlink="http://www.w3.org/1999/xlink" width="1078.01708984375" height="677"><defs/><g><text fill="#eeeeee" stroke="none" font-family="Arial" font-size="24px" font-style="normal" font-weight="normal" text-decoration="none" x="0" y="0">UNREGISTERED</text><text fill="#eeeeee" stroke="none" font-family="Arial" font-size="24px" font-style="normal" font-weight="normal" text-decoration="none" x="0" y="30">UNREGISTERED</text><text fill="#eeeeee" stroke="none" font-family="Arial" font-size="24px" font-style="normal" font-weight="normal" text-decoration="none" x="0" y="60">UNREGISTERED</text><text fill="#eeeeee" stroke="none" font-family="Arial" font-size="24px" font-style="normal" font-weight="normal" text-decoration="none" x="0" y="90">UNREGISTERED</text><text fill="#eeeeee" stroke="none" font-family="Arial" font-size="24px" font-style="normal" font-weight="normal" text-decoration="none" x="0" y="120">UNREGISTERED</text><text fill="#eeeeee" stroke="none" font-family="Arial" font-size="24px" font-style="normal" font-weight="normal" text-decoration="none" x="0" y="150">UNREGISTERED</text><text fill="#eeeeee" stroke="none" font-family="Arial" font-size="24px" font-style="normal" font-weight="normal" text-decoration="none" x="0" y="180">UNREGISTERED</text><text fill="#eeeeee" stroke="none" font-family="Arial" font-size="24px" font-style="normal" font-weight="normal" text-decoration="none" x="0" y="210">UNREGISTERED</text><text fill="#eeeeee" stroke="none" font-family="Arial" font-size="24px" font-style="normal" font-weight="normal" text-decoration="none" x="0" y="240">UNREGISTERED</text><text fill="#eeeeee" stroke="none" font-family="Arial" font-size="24px" font-style="normal" font-weight="normal" text-decoration="none" x="0" y="270">UNREGISTERED</text><text fill="#eeeeee" stroke="none" font-family="Arial" font-size="24px" font-style="normal" font-weight="normal" text-decoration="none" x="0" y="300">UNREGISTERED</text><text fill="#eeeeee" stroke="none" font-family="Arial" font-size="24px" font-style="normal" font-weight="normal" text-decoration="none" x="0" y="330">UNREGISTERED</text><text fill="#eeeeee" stroke="none" font-family="Arial" font-size="24px" font-style="normal" font-weight="normal" text-decoration="none" x="0" y="360">UNREGISTERED</text><text fill="#eeeeee" stroke="none" font-family="Arial" font-size="24px" font-style="normal" font-weight="normal" text-decoration="none" x="0" y="390">UNREGISTERED</text><text fill="#eeeeee" stroke="none" font-family="Arial" font-size="24px" font-style="normal" font-weight="normal" text-decoration="none" x="0" y="420">UNREGISTERED</text><text fill="#eeeeee" stroke="none" font-family="Arial" font-size="24px" font-style="normal" font-weight="normal" text-decoration="none" x="0" y="450">UNREGISTERED</text><text fill="#eeeeee" stroke="none" font-family="Arial" font-size="24px" font-style="normal" font-weight="normal" text-decoration="none" x="0" y="480">UNREGISTERED</text><text fill="#eeeeee" stroke="none" font-family="Arial" font-size="24px" font-style="normal" font-weight="normal" text-decoration="none" x="0" y="510">UNREGISTERED</text><text fill="#eeeeee" stroke="none" font-family="Arial" font-size="24px" font-style="normal" font-weight="normal" text-decoration="none" x="0" y="540">UNREGISTERED</text><text fill="#eeeeee" stroke="none" font-family="Arial" font-size="24px" font-style="normal" font-weight="normal" text-decoration="none" x="0" y="570">UNREGISTERED</text><text fill="#eeeeee" stroke="none" font-family="Arial" font-size="24px" font-style="normal" font-weight="normal" text-decoration="none" x="0" y="600">UNREGISTERED</text><text fill="#eeeeee" stroke="none" font-family="Arial" font-size="24px" font-style="normal" font-weight="normal" text-decoration="none" x="0" y="630">UNREGISTERED</text><text fill="#eeeeee" stroke="none" font-family="Arial" font-size="24px" font-style="normal" font-weight="normal" text-decoration="none" x="0" y="660">UNREGISTERED</text><text fill="#eeeeee" stroke="none" font-family="Arial" font-size="24px" font-style="normal" font-weight="normal" text-decoration="none" x="200" y="0">UNREGISTERED</text><text fill="#eeeeee" stroke="none" font-family="Arial" font-size="24px" font-style="normal" font-weight="normal" text-decoration="none" x="200" y="30">UNREGISTERED</text><text fill="#eeeeee" stroke="none" font-family="Arial" font-size="24px" font-style="normal" font-weight="normal" text-decoration="none" x="200" y="60">UNREGISTERED</text><text fill="#eeeeee" stroke="none" font-family="Arial" font-size="24px" font-style="normal" font-weight="normal" text-decoration="none" x="200" y="90">UNREGISTERED</text><text fill="#eeeeee" stroke="none" font-family="Arial" font-size="24px" font-style="normal" font-weight="normal" text-decoration="none" x="200" y="120">UNREGISTERED</text><text fill="#eeeeee" stroke="none" font-family="Arial" font-size="24px" font-style="normal" font-weight="normal" text-decoration="none" x="200" y="150">UNREGISTERED</text><text fill="#eeeeee" stroke="none" font-family="Arial" font-size="24px" font-style="normal" font-weight="normal" text-decoration="none" x="200" y="180">UNREGISTERED</text><text fill="#eeeeee" stroke="none" font-family="Arial" font-size="24px" font-style="normal" font-weight="normal" text-decoration="none" x="200" y="210">UNREGISTERED</text><text fill="#eeeeee" stroke="none" font-family="Arial" font-size="24px" font-style="normal" font-weight="normal" text-decoration="none" x="200" y="240">UNREGISTERED</text><text fill="#eeeeee" stroke="none" font-family="Arial" font-size="24px" font-style="normal" font-weight="normal" text-decoration="none" x="200" y="270">UNREGISTERED</text><text fill="#eeeeee" stroke="none" font-family="Arial" font-size="24px" font-style="normal" font-weight="normal" text-decoration="none" x="200" y="300">UNREGISTERED</text><text fill="#eeeeee" stroke="none" font-family="Arial" font-size="24px" font-style="normal" font-weight="normal" text-decoration="none" x="200" y="330">UNREGISTERED</text><text fill="#eeeeee" stroke="none" font-family="Arial" font-size="24px" font-style="normal" font-weight="normal" text-decoration="none" x="200" y="360">UNREGISTERED</text><text fill="#eeeeee" stroke="none" font-family="Arial" font-size="24px" font-style="normal" font-weight="normal" text-decoration="none" x="200" y="390">UNREGISTERED</text><text fill="#eeeeee" stroke="none" font-family="Arial" font-size="24px" font-style="normal" font-weight="normal" text-decoration="none" x="200" y="420">UNREGISTERED</text><text fill="#eeeeee" stroke="none" font-family="Arial" font-size="24px" font-style="normal" font-weight="normal" text-decoration="none" x="200" y="450">UNREGISTERED</text><text fill="#eeeeee" stroke="none" font-family="Arial" font-size="24px" font-style="normal" font-weight="normal" text-decoration="none" x="200" y="480">UNREGISTERED</text><text fill="#eeeeee" stroke="none" font-family="Arial" font-size="24px" font-style="normal" font-weight="normal" text-decoration="none" x="200" y="510">UNREGISTERED</text><text fill="#eeeeee" stroke="none" font-family="Arial" font-size="24px" font-style="normal" font-weight="normal" text-decoration="none" x="200" y="540">UNREGISTERED</text><text fill="#eeeeee" stroke="none" font-family="Arial" font-size="24px" font-style="normal" font-weight="normal" text-decoration="none" x="200" y="570">UNREGISTERED</text><text fill="#eeeeee" stroke="none" font-family="Arial" font-size="24px" font-style="normal" font-weight="normal" text-decoration="none" x="200" y="600">UNREGISTERED</text><text fill="#eeeeee" stroke="none" font-family="Arial" font-size="24px" font-style="normal" font-weight="normal" text-decoration="none" x="200" y="630">UNREGISTERED</text><text fill="#eeeeee" stroke="none" font-family="Arial" font-size="24px" font-style="normal" font-weight="normal" text-decoration="none" x="200" y="660">UNREGISTERED</text><text fill="#eeeeee" stroke="none" font-family="Arial" font-size="24px" font-style="normal" font-weight="normal" text-decoration="none" x="400" y="0">UNREGISTERED</text><text fill="#eeeeee" stroke="none" font-family="Arial" font-size="24px" font-style="normal" font-weight="normal" text-decoration="none" x="400" y="30">UNREGISTERED</text><text fill="#eeeeee" stroke="none" font-family="Arial" font-size="24px" font-style="normal" font-weight="normal" text-decoration="none" x="400" y="60">UNREGISTERED</text><text fill="#eeeeee" stroke="none" font-family="Arial" font-size="24px" font-style="normal" font-weight="normal" text-decoration="none" x="400" y="90">UNREGISTERED</text><text fill="#eeeeee" stroke="none" font-family="Arial" font-size="24px" font-style="normal" font-weight="normal" text-decoration="none" x="400" y="120">UNREGISTERED</text><text fill="#eeeeee" stroke="none" font-family="Arial" font-size="24px" font-style="normal" font-weight="normal" text-decoration="none" x="400" y="150">UNREGISTERED</text><text fill="#eeeeee" stroke="none" font-family="Arial" font-size="24px" font-style="normal" font-weight="normal" text-decoration="none" x="400" y="180">UNREGISTERED</text><text fill="#eeeeee" stroke="none" font-family="Arial" font-size="24px" font-style="normal" font-weight="normal" text-decoration="none" x="400" y="210">UNREGISTERED</text><text fill="#eeeeee" stroke="none" font-family="Arial" font-size="24px" font-style="normal" font-weight="normal" text-decoration="none" x="400" y="240">UNREGISTERED</text><text fill="#eeeeee" stroke="none" font-family="Arial" font-size="24px" font-style="normal" font-weight="normal" text-decoration="none" x="400" y="270">UNREGISTERED</text><text fill="#eeeeee" stroke="none" font-family="Arial" font-size="24px" font-style="normal" font-weight="normal" text-decoration="none" x="400" y="300">UNREGISTERED</text><text fill="#eeeeee" stroke="none" font-family="Arial" font-size="24px" font-style="normal" font-weight="normal" text-decoration="none" x="400" y="330">UNREGISTERED</text><text fill="#eeeeee" stroke="none" font-family="Arial" font-size="24px" font-style="normal" font-weight="normal" text-decoration="none" x="400" y="360">UNREGISTERED</text><text fill="#eeeeee" stroke="none" font-family="Arial" font-size="24px" font-style="normal" font-weight="normal" text-decoration="none" x="400" y="390">UNREGISTERED</text><text fill="#eeeeee" stroke="none" font-family="Arial" font-size="24px" font-style="normal" font-weight="normal" text-decoration="none" x="400" y="420">UNREGISTERED</text><text fill="#eeeeee" stroke="none" font-family="Arial" font-size="24px" font-style="normal" font-weight="normal" text-decoration="none" x="400" y="450">UNREGISTERED</text><text fill="#eeeeee" stroke="none" font-family="Arial" font-size="24px" font-style="normal" font-weight="normal" text-decoration="none" x="400" y="480">UNREGISTERED</text><text fill="#eeeeee" stroke="none" font-family="Arial" font-size="24px" font-style="normal" font-weight="normal" text-decoration="none" x="400" y="510">UNREGISTERED</text><text fill="#eeeeee" stroke="none" font-family="Arial" font-size="24px" font-style="normal" font-weight="normal" text-decoration="none" x="400" y="540">UNREGISTERED</text><text fill="#eeeeee" stroke="none" font-family="Arial" font-size="24px" font-style="normal" font-weight="normal" text-decoration="none" x="400" y="570">UNREGISTERED</text><text fill="#eeeeee" stroke="none" font-family="Arial" font-size="24px" font-style="normal" font-weight="normal" text-decoration="none" x="400" y="600">UNREGISTERED</text><text fill="#eeeeee" stroke="none" font-family="Arial" font-size="24px" font-style="normal" font-weight="normal" text-decoration="none" x="400" y="630">UNREGISTERED</text><text fill="#eeeeee" stroke="none" font-family="Arial" font-size="24px" font-style="normal" font-weight="normal" text-decoration="none" x="400" y="660">UNREGISTERED</text><text fill="#eeeeee" stroke="none" font-family="Arial" font-size="24px" font-style="normal" font-weight="normal" text-decoration="none" x="600" y="0">UNREGISTERED</text><text fill="#eeeeee" stroke="none" font-family="Arial" font-size="24px" font-style="normal" font-weight="normal" text-decoration="none" x="600" y="30">UNREGISTERED</text><text fill="#eeeeee" stroke="none" font-family="Arial" font-size="24px" font-style="normal" font-weight="normal" text-decoration="none" x="600" y="60">UNREGISTERED</text><text fill="#eeeeee" stroke="none" font-family="Arial" font-size="24px" font-style="normal" font-weight="normal" text-decoration="none" x="600" y="90">UNREGISTERED</text><text fill="#eeeeee" stroke="none" font-family="Arial" font-size="24px" font-style="normal" font-weight="normal" text-decoration="none" x="600" y="120">UNREGISTERED</text><text fill="#eeeeee" stroke="none" font-family="Arial" font-size="24px" font-style="normal" font-weight="normal" text-decoration="none" x="600" y="150">UNREGISTERED</text><text fill="#eeeeee" stroke="none" font-family="Arial" font-size="24px" font-style="normal" font-weight="normal" text-decoration="none" x="600" y="180">UNREGISTERED</text><text fill="#eeeeee" stroke="none" font-family="Arial" font-size="24px" font-style="normal" font-weight="normal" text-decoration="none" x="600" y="210">UNREGISTERED</text><text fill="#eeeeee" stroke="none" font-family="Arial" font-size="24px" font-style="normal" font-weight="normal" text-decoration="none" x="600" y="240">UNREGISTERED</text><text fill="#eeeeee" stroke="none" font-family="Arial" font-size="24px" font-style="normal" font-weight="normal" text-decoration="none" x="600" y="270">UNREGISTERED</text><text fill="#eeeeee" stroke="none" font-family="Arial" font-size="24px" font-style="normal" font-weight="normal" text-decoration="none" x="600" y="300">UNREGISTERED</text><text fill="#eeeeee" stroke="none" font-family="Arial" font-size="24px" font-style="normal" font-weight="normal" text-decoration="none" x="600" y="330">UNREGISTERED</text><text fill="#eeeeee" stroke="none" font-family="Arial" font-size="24px" font-style="normal" font-weight="normal" text-decoration="none" x="600" y="360">UNREGISTERED</text><text fill="#eeeeee" stroke="none" font-family="Arial" font-size="24px" font-style="normal" font-weight="normal" text-decoration="none" x="600" y="390">UNREGISTERED</text><text fill="#eeeeee" stroke="none" font-family="Arial" font-size="24px" font-style="normal" font-weight="normal" text-decoration="none" x="600" y="420">UNREGISTERED</text><text fill="#eeeeee" stroke="none" font-family="Arial" font-size="24px" font-style="normal" font-weight="normal" text-decoration="none" x="600" y="450">UNREGISTERED</text><text fill="#eeeeee" stroke="none" font-family="Arial" font-size="24px" font-style="normal" font-weight="normal" text-decoration="none" x="600" y="480">UNREGISTERED</text><text fill="#eeeeee" stroke="none" font-family="Arial" font-size="24px" font-style="normal" font-weight="normal" text-decoration="none" x="600" y="510">UNREGISTERED</text><text fill="#eeeeee" stroke="none" font-family="Arial" font-size="24px" font-style="normal" font-weight="normal" text-decoration="none" x="600" y="540">UNREGISTERED</text><text fill="#eeeeee" stroke="none" font-family="Arial" font-size="24px" font-style="normal" font-weight="normal" text-decoration="none" x="600" y="570">UNREGISTERED</text><text fill="#eeeeee" stroke="none" font-family="Arial" font-size="24px" font-style="normal" font-weight="normal" text-decoration="none" x="600" y="600">UNREGISTERED</text><text fill="#eeeeee" stroke="none" font-family="Arial" font-size="24px" font-style="normal" font-weight="normal" text-decoration="none" x="600" y="630">UNREGISTERED</text><text fill="#eeeeee" stroke="none" font-family="Arial" font-size="24px" font-style="normal" font-weight="normal" text-decoration="none" x="600" y="660">UNREGISTERED</text><text fill="#eeeeee" stroke="none" font-family="Arial" font-size="24px" font-style="normal" font-weight="normal" text-decoration="none" x="800" y="0">UNREGISTERED</text><text fill="#eeeeee" stroke="none" font-family="Arial" font-size="24px" font-style="normal" font-weight="normal" text-decoration="none" x="800" y="30">UNREGISTERED</text><text fill="#eeeeee" stroke="none" font-family="Arial" font-size="24px" font-style="normal" font-weight="normal" text-decoration="none" x="800" y="60">UNREGISTERED</text><text fill="#eeeeee" stroke="none" font-family="Arial" font-size="24px" font-style="normal" font-weight="normal" text-decoration="none" x="800" y="90">UNREGISTERED</text><text fill="#eeeeee" stroke="none" font-family="Arial" font-size="24px" font-style="normal" font-weight="normal" text-decoration="none" x="800" y="120">UNREGISTERED</text><text fill="#eeeeee" stroke="none" font-family="Arial" font-size="24px" font-style="normal" font-weight="normal" text-decoration="none" x="800" y="150">UNREGISTERED</text><text fill="#eeeeee" stroke="none" font-family="Arial" font-size="24px" font-style="normal" font-weight="normal" text-decoration="none" x="800" y="180">UNREGISTERED</text><text fill="#eeeeee" stroke="none" font-family="Arial" font-size="24px" font-style="normal" font-weight="normal" text-decoration="none" x="800" y="210">UNREGISTERED</text><text fill="#eeeeee" stroke="none" font-family="Arial" font-size="24px" font-style="normal" font-weight="normal" text-decoration="none" x="800" y="240">UNREGISTERED</text><text fill="#eeeeee" stroke="none" font-family="Arial" font-size="24px" font-style="normal" font-weight="normal" text-decoration="none" x="800" y="270">UNREGISTERED</text><text fill="#eeeeee" stroke="none" font-family="Arial" font-size="24px" font-style="normal" font-weight="normal" text-decoration="none" x="800" y="300">UNREGISTERED</text><text fill="#eeeeee" stroke="none" font-family="Arial" font-size="24px" font-style="normal" font-weight="normal" text-decoration="none" x="800" y="330">UNREGISTERED</text><text fill="#eeeeee" stroke="none" font-family="Arial" font-size="24px" font-style="normal" font-weight="normal" text-decoration="none" x="800" y="360">UNREGISTERED</text><text fill="#eeeeee" stroke="none" font-family="Arial" font-size="24px" font-style="normal" font-weight="normal" text-decoration="none" x="800" y="390">UNREGISTERED</text><text fill="#eeeeee" stroke="none" font-family="Arial" font-size="24px" font-style="normal" font-weight="normal" text-decoration="none" x="800" y="420">UNREGISTERED</text><text fill="#eeeeee" stroke="none" font-family="Arial" font-size="24px" font-style="normal" font-weight="normal" text-decoration="none" x="800" y="450">UNREGISTERED</text><text fill="#eeeeee" stroke="none" font-family="Arial" font-size="24px" font-style="normal" font-weight="normal" text-decoration="none" x="800" y="480">UNREGISTERED</text><text fill="#eeeeee" stroke="none" font-family="Arial" font-size="24px" font-style="normal" font-weight="normal" text-decoration="none" x="800" y="510">UNREGISTERED</text><text fill="#eeeeee" stroke="none" font-family="Arial" font-size="24px" font-style="normal" font-weight="normal" text-decoration="none" x="800" y="540">UNREGISTERED</text><text fill="#eeeeee" stroke="none" font-family="Arial" font-size="24px" font-style="normal" font-weight="normal" text-decoration="none" x="800" y="570">UNREGISTERED</text><text fill="#eeeeee" stroke="none" font-family="Arial" font-size="24px" font-style="normal" font-weight="normal" text-decoration="none" x="800" y="600">UNREGISTERED</text><text fill="#eeeeee" stroke="none" font-family="Arial" font-size="24px" font-style="normal" font-weight="normal" text-decoration="none" x="800" y="630">UNREGISTERED</text><text fill="#eeeeee" stroke="none" font-family="Arial" font-size="24px" font-style="normal" font-weight="normal" text-decoration="none" x="800" y="660">UNREGISTERED</text><text fill="#eeeeee" stroke="none" font-family="Arial" font-size="24px" font-style="normal" font-weight="normal" text-decoration="none" x="1000" y="0">UNREGISTERED</text><text fill="#eeeeee" stroke="none" font-family="Arial" font-size="24px" font-style="normal" font-weight="normal" text-decoration="none" x="1000" y="30">UNREGISTERED</text><text fill="#eeeeee" stroke="none" font-family="Arial" font-size="24px" font-style="normal" font-weight="normal" text-decoration="none" x="1000" y="60">UNREGISTERED</text><text fill="#eeeeee" stroke="none" font-family="Arial" font-size="24px" font-style="normal" font-weight="normal" text-decoration="none" x="1000" y="90">UNREGISTERED</text><text fill="#eeeeee" stroke="none" font-family="Arial" font-size="24px" font-style="normal" font-weight="normal" text-decoration="none" x="1000" y="120">UNREGISTERED</text><text fill="#eeeeee" stroke="none" font-family="Arial" font-size="24px" font-style="normal" font-weight="normal" text-decoration="none" x="1000" y="150">UNREGISTERED</text><text fill="#eeeeee" stroke="none" font-family="Arial" font-size="24px" font-style="normal" font-weight="normal" text-decoration="none" x="1000" y="180">UNREGISTERED</text><text fill="#eeeeee" stroke="none" font-family="Arial" font-size="24px" font-style="normal" font-weight="normal" text-decoration="none" x="1000" y="210">UNREGISTERED</text><text fill="#eeeeee" stroke="none" font-family="Arial" font-size="24px" font-style="normal" font-weight="normal" text-decoration="none" x="1000" y="240">UNREGISTERED</text><text fill="#eeeeee" stroke="none" font-family="Arial" font-size="24px" font-style="normal" font-weight="normal" text-decoration="none" x="1000" y="270">UNREGISTERED</text><text fill="#eeeeee" stroke="none" font-family="Arial" font-size="24px" font-style="normal" font-weight="normal" text-decoration="none" x="1000" y="300">UNREGISTERED</text><text fill="#eeeeee" stroke="none" font-family="Arial" font-size="24px" font-style="normal" font-weight="normal" text-decoration="none" x="1000" y="330">UNREGISTERED</text><text fill="#eeeeee" stroke="none" font-family="Arial" font-size="24px" font-style="normal" font-weight="normal" text-decoration="none" x="1000" y="360">UNREGISTERED</text><text fill="#eeeeee" stroke="none" font-family="Arial" font-size="24px" font-style="normal" font-weight="normal" text-decoration="none" x="1000" y="390">UNREGISTERED</text><text fill="#eeeeee" stroke="none" font-family="Arial" font-size="24px" font-style="normal" font-weight="normal" text-decoration="none" x="1000" y="420">UNREGISTERED</text><text fill="#eeeeee" stroke="none" font-family="Arial" font-size="24px" font-style="normal" font-weight="normal" text-decoration="none" x="1000" y="450">UNREGISTERED</text><text fill="#eeeeee" stroke="none" font-family="Arial" font-size="24px" font-style="normal" font-weight="normal" text-decoration="none" x="1000" y="480">UNREGISTERED</text><text fill="#eeeeee" stroke="none" font-family="Arial" font-size="24px" font-style="normal" font-weight="normal" text-decoration="none" x="1000" y="510">UNREGISTERED</text><text fill="#eeeeee" stroke="none" font-family="Arial" font-size="24px" font-style="normal" font-weight="normal" text-decoration="none" x="1000" y="540">UNREGISTERED</text><text fill="#eeeeee" stroke="none" font-family="Arial" font-size="24px" font-style="normal" font-weight="normal" text-decoration="none" x="1000" y="570">UNREGISTERED</text><text fill="#eeeeee" stroke="none" font-family="Arial" font-size="24px" font-style="normal" font-weight="normal" text-decoration="none" x="1000" y="600">UNREGISTERED</text><text fill="#eeeeee" stroke="none" font-family="Arial" font-size="24px" font-style="normal" font-weight="normal" text-decoration="none" x="1000" y="630">UNREGISTERED</text><text fill="#eeeeee" stroke="none" font-family="Arial" font-size="24px" font-style="normal" font-weight="normal" text-decoration="none" x="1000" y="660">UNREGISTERED</text><g transform="translate(-150,-38) scale(1,1)"><path fill="#C0C0C0" stroke="none" d="M 167 240.5 C 167 235.2532944 171.2532944 231 176.5 231 C 181.7467056 231 186 235.2532944 186 240.5 C 186 245.7467056 181.7467056 250 176.5 250 C 171.2532944 250 167 245.7467056 167 240.5 Z" opacity="0.2"/></g><g transform="translate(-150,-38) scale(1,1)"><path fill="#000000" stroke="none" d="M 160 233.5 C 160 228.2532944 164.2532944 224 169.5 224 C 174.7467056 224 179 228.2532944 179 233.5 C 179 238.7467056 174.7467056 243 169.5 243 C 164.2532944 243 160 238.7467056 160 233.5 Z"/></g><g transform="translate(-150,-38) scale(1,1)"><path fill="#C0C0C0" stroke="none" d="M 329 191 L 444.41357421875 191 Q 454.41357421875 191 454.41357421875 201 L 454.41357421875 278 Q 454.41357421875 288 444.41357421875 288 L 329 288 Q 319 288 319 278 L 319 201 Q 319 191 329 191 Z" opacity="0.2"/></g><g transform="translate(-150,-38) scale(1,1)"><path fill="#ffffff" stroke="none" d="M 322 184 L 437.41357421875 184 Q 447.41357421875 184 447.41357421875 194 L 447.41357421875 271 Q 447.41357421875 281 437.41357421875 281 L 322 281 Q 312 281 312 271 L 312 194 Q 312 184 322 184 Z"/></g><g transform="translate(-150,-38) scale(1,1)"><path fill="none" stroke="#000000" d="M 322 184 L 437.41357421875 184 Q 447.41357421875 184 447.41357421875 194 L 447.41357421875 271 Q 447.41357421875 281 437.41357421875 281 L 322 281 Q 312 281 312 271 L 312 194 Q 312 184 322 184 Z" stroke-miterlimit="10"/></g><g transform="translate(-150,-38) scale(1,1)"><path fill="none" stroke="#000000" d="M 312 209 L 447.41357421875 209" stroke-miterlimit="10"/></g><g transform="translate(-150,-38) scale(1,1)"><path fill="none" stroke="#000000" d="M 312 232 L 447.41357421875 232" stroke-miterlimit="10"/></g><g transform="translate(-150,-38) scale(1,1)"><g><path fill="none" stroke="none"/><text fill="#000000" stroke="none" font-family="Arial" font-size="13px" font-style="normal" font-weight="bold" text-decoration="none" x="316.5" y="202">Cadastrando Cliente</text></g></g><g transform="translate(-150,-38) scale(1,1)"><g><path fill="none" stroke="none"/><text fill="#000000" stroke="none" font-family="Arial" font-size="13px" font-style="normal" font-weight="normal" text-decoration="none" x="317" y="225">do/Cadastrar()</text></g></g><g transform="translate(-150,-38) scale(1,1)"><path fill="none" stroke="#000000" d="M 180 233 L 311 232" stroke-miterlimit="10"/></g><g transform="translate(-150,-38) scale(1,1)"><path fill="none" stroke="#000000" d="M 300.8697540145421 236.28697052405468 L 311 232 L 300.80548844028897 227.86818029690082" stroke-miterlimit="10"/></g><g transform="translate(-150,-38) scale(1,1)"><g><path fill="none" stroke="none"/><text fill="#000000" stroke="none" font-family="Arial" font-size="13px" font-style="normal" font-weight="normal" text-decoration="none" x="194.5" y="222">Cadastrar Cliente</text></g></g><g transform="translate(-150,-38) scale(1,1)"><path fill="#C0C0C0" stroke="none" d="M 593 191 L 732 191 Q 742 191 742 201 L 742 278 Q 742 288 732 288 L 593 288 Q 583 288 583 278 L 583 201 Q 583 191 593 191 Z" opacity="0.2"/></g><g transform="translate(-150,-38) scale(1,1)"><path fill="#ffffff" stroke="none" d="M 586 184 L 725 184 Q 735 184 735 194 L 735 271 Q 735 281 725 281 L 586 281 Q 576 281 576 271 L 576 194 Q 576 184 586 184 Z"/></g><g transform="translate(-150,-38) scale(1,1)"><path fill="none" stroke="#000000" d="M 586 184 L 725 184 Q 735 184 735 194 L 735 271 Q 735 281 725 281 L 586 281 Q 576 281 576 271 L 576 194 Q 576 184 586 184 Z" stroke-miterlimit="10"/></g><g transform="translate(-150,-38) scale(1,1)"><path fill="none" stroke="#000000" d="M 576 209 L 735 209" stroke-miterlimit="10"/></g><g transform="translate(-150,-38) scale(1,1)"><path fill="none" stroke="#000000" d="M 576 232 L 735 232" stroke-miterlimit="10"/></g><g transform="translate(-150,-38) scale(1,1)"><g><path fill="none" stroke="none"/><text fill="#000000" stroke="none" font-family="Arial" font-size="13px" font-style="normal" font-weight="bold" text-decoration="none" x="605.66455078125" y="202">Fazendo Pedido</text></g></g><g transform="translate(-150,-38) scale(1,1)"><g><path fill="none" stroke="none"/><text fill="#000000" stroke="none" font-family="Arial" font-size="13px" font-style="normal" font-weight="normal" text-decoration="none" x="581" y="225">do/FazerPedido()</text></g></g><g transform="translate(-150,-38) scale(1,1)"><path fill="none" stroke="#000000" d="M 448 232 L 575 232" stroke-miterlimit="10"/></g><g transform="translate(-150,-38) scale(1,1)"><path fill="none" stroke="#000000" d="M 564.8373251423759 236.209517756016 L 575 232 L 564.8373251423758 227.790482243984" stroke-miterlimit="10"/></g><g transform="translate(-150,-38) scale(1,1)"><g><path fill="none" stroke="none"/><text fill="#000000" stroke="none" font-family="Arial" font-size="13px" font-style="normal" font-weight="normal" text-decoration="none" x="455.5" y="222">Cliente Cadastrado</text></g></g><g transform="translate(-150,-38) scale(1,1)"><path fill="#C0C0C0" stroke="none" d="M 855 240.5 L 866.5 231 L 877 240.5 L 866.5 249 L 855 240.5" opacity="0.2"/></g><g transform="translate(-150,-38) scale(1,1)"><path fill="#ffffff" stroke="none" d="M 848 233 L 859 224 L 870 233 L 859 242 L 848 233"/></g><g transform="translate(-150,-38) scale(1,1)"><path fill="none" stroke="#000000" d="M 848 233 L 859 224 L 870 233 L 859 242 L 848 233 L 848 233" stroke-miterlimit="10"/></g><g transform="translate(-150,-38) scale(1,1)"><path fill="#C0C0C0" stroke="none" d="M 809 55 L 918.630859375 55 Q 928.630859375 55 928.630859375 65 L 928.630859375 142 Q 928.630859375 152 918.630859375 152 L 809 152 Q 799 152 799 142 L 799 65 Q 799 55 809 55 Z" opacity="0.2"/></g><g transform="translate(-150,-38) scale(1,1)"><path fill="#ffffff" stroke="none" d="M 802 48 L 911.630859375 48 Q 921.630859375 48 921.630859375 58 L 921.630859375 135 Q 921.630859375 145 911.630859375 145 L 802 145 Q 792 145 792 135 L 792 58 Q 792 48 802 48 Z"/></g><g transform="translate(-150,-38) scale(1,1)"><path fill="none" stroke="#000000" d="M 802 48 L 911.630859375 48 Q 921.630859375 48 921.630859375 58 L 921.630859375 135 Q 921.630859375 145 911.630859375 145 L 802 145 Q 792 145 792 135 L 792 58 Q 792 48 802 48 Z" stroke-miterlimit="10"/></g><g transform="translate(-150,-38) scale(1,1)"><path fill="none" stroke="#000000" d="M 792 73 L 921.630859375 73" stroke-miterlimit="10"/></g><g transform="translate(-150,-38) scale(1,1)"><path fill="none" stroke="#000000" d="M 792 96 L 921.630859375 96" stroke-miterlimit="10"/></g><g transform="translate(-150,-38) scale(1,1)"><g><path fill="none" stroke="none"/><text fill="#000000" stroke="none" font-family="Arial" font-size="13px" font-style="normal" font-weight="bold" text-decoration="none" x="796.5" y="66">Cancelando Pedido</text></g></g><g transform="translate(-150,-38) scale(1,1)"><g><path fill="none" stroke="none"/><text fill="#000000" stroke="none" font-family="Arial" font-size="13px" font-style="normal" font-weight="normal" text-decoration="none" x="797" y="89">do/CancelarPedido()</text></g></g><g transform="translate(-150,-38) scale(1,1)"><path fill="none" stroke="#000000" d="M 736 232 L 847 233" stroke-miterlimit="10"/></g><g transform="translate(-150,-38) scale(1,1)"><path fill="none" stroke="#000000" d="M 836.7998154855185 237.11779502531763 L 847 233 L 836.8756595745177 228.6991011463944" stroke-miterlimit="10"/></g><g transform="translate(-150,-38) scale(1,1)"><g><path fill="none" stroke="none"/><text fill="#000000" stroke="none" font-family="Arial" font-size="13px" font-style="normal" font-weight="normal" text-decoration="none" x="754.5" y="222">Pedido Feito</text></g></g><g transform="translate(-150,-38) scale(1,1)"><path fill="none" stroke="#000000" d="M 859 223 L 857 146" stroke-miterlimit="10"/></g><g transform="translate(-150,-38) scale(1,1)"><path fill="none" stroke="#000000" d="M 861.4719750820256 156.04994720711224 L 857 146 L 853.0557780850817 156.26854972651336" stroke-miterlimit="10"/></g><g transform="translate(-150,-38) scale(1,1)"><g><path fill="none" stroke="none"/><text fill="#000000" stroke="none" font-family="Arial" font-size="13px" font-style="normal" font-weight="normal" text-decoration="none" x="862.5" y="165"> [Se usuário não quiser mais o produto] / Cancelar Pedido</text></g></g><g transform="translate(-150,-38) scale(1,1)"><path fill="#C0C0C0" stroke="none" d="M 817 343 L 932.3818359375 343 Q 942.3818359375 343 942.3818359375 353 L 942.3818359375 430 Q 942.3818359375 440 932.3818359375 440 L 817 440 Q 807 440 807 430 L 807 353 Q 807 343 817 343 Z" opacity="0.2"/></g><g transform="translate(-150,-38) scale(1,1)"><path fill="#ffffff" stroke="none" d="M 810 336 L 925.3818359375 336 Q 935.3818359375 336 935.3818359375 346 L 935.3818359375 423 Q 935.3818359375 433 925.3818359375 433 L 810 433 Q 800 433 800 423 L 800 346 Q 800 336 810 336 Z"/></g><g transform="translate(-150,-38) scale(1,1)"><path fill="none" stroke="#000000" d="M 810 336 L 925.3818359375 336 Q 935.3818359375 336 935.3818359375 346 L 935.3818359375 423 Q 935.3818359375 433 925.3818359375 433 L 810 433 Q 800 433 800 423 L 800 346 Q 800 336 810 336 Z" stroke-miterlimit="10"/></g><g transform="translate(-150,-38) scale(1,1)"><path fill="none" stroke="#000000" d="M 800 361 L 935.3818359375 361" stroke-miterlimit="10"/></g><g transform="translate(-150,-38) scale(1,1)"><path fill="none" stroke="#000000" d="M 800 384 L 935.3818359375 384" stroke-miterlimit="10"/></g><g transform="translate(-150,-38) scale(1,1)"><g><path fill="none" stroke="none"/><text fill="#000000" stroke="none" font-family="Arial" font-size="13px" font-style="normal" font-weight="bold" text-decoration="none" x="804.5" y="354">Consultando Pedido</text></g></g><g transform="translate(-150,-38) scale(1,1)"><g><path fill="none" stroke="none"/><text fill="#000000" stroke="none" font-family="Arial" font-size="13px" font-style="normal" font-weight="normal" text-decoration="none" x="805" y="377">do/ConsultarPedido()</text></g></g><g transform="translate(-150,-38) scale(1,1)"><path fill="none" stroke="#000000" d="M 860 243 L 864 335" stroke-miterlimit="10"/></g><g transform="translate(-150,-38) scale(1,1)"><path fill="none" stroke="#000000" d="M 859.3530169751094 325.02976686499363 L 864 335 L 867.764106250815 324.6640673312673" stroke-miterlimit="10"/></g><g transform="translate(-150,-38) scale(1,1)"><g><path fill="none" stroke="none"/><text fill="#000000" stroke="none" font-family="Arial" font-size="13px" font-style="normal" font-weight="normal" text-decoration="none" x="558.5" y="314"> [Se Cliente quiser ver o status] / Consultar Pedido</text></g></g><g transform="translate(-150,-38) scale(1,1)"><path fill="#C0C0C0" stroke="none" d="M 863 566 C 863 562.1340064 866.1340064 559 870 559 C 873.8659936 559 877 562.1340064 877 566 C 877 569.8659936 873.8659936 573 870 573 C 866.1340064 573 863 569.8659936 863 566 Z" opacity="0.2"/></g><g transform="translate(-150,-38) scale(1,1)"><path fill="#ffffff" stroke="none" d="M 856 559 C 856 555.1340064 859.1340064 552 863 552 C 866.8659936 552 870 555.1340064 870 559 C 870 562.8659936 866.8659936 566 863 566 C 859.1340064 566 856 562.8659936 856 559 Z"/></g><g transform="translate(-150,-38) scale(1,1)"><path fill="none" stroke="#000000" d="M 856 559 C 856 555.1340064 859.1340064 552 863 552 C 866.8659936 552 870 555.1340064 870 559 C 870 562.8659936 866.8659936 566 863 566 C 859.1340064 566 856 562.8659936 856 559 Z" stroke-miterlimit="10"/></g><g transform="translate(-150,-38) scale(1,1)"><path fill="none" stroke="#000000" d="M 866 434 L 863 551" stroke-miterlimit="10"/></g><g transform="translate(-150,-38) scale(1,1)"><path fill="none" stroke="#000000" d="M 859.0523611490146 540.732763395042 L 863 551 L 867.4686304262053 540.9485651713802" stroke-miterlimit="10"/></g><g transform="translate(-150,-38) scale(1,1)"><path fill="#C0C0C0" stroke="none" d="M 1095 699.5 C 1095 692.59644 1100.59644 687 1107.5 687 C 1114.40356 687 1120 692.59644 1120 699.5 C 1120 706.40356 1114.40356 712 1107.5 712 C 1100.59644 712 1095 706.40356 1095 699.5 Z" opacity="0.2"/></g><g transform="translate(-150,-38) scale(1,1)"><path fill="none" stroke="#000000" d="M 1088 692.5 C 1088 685.59644 1093.59644 680 1100.5 680 C 1107.40356 680 1113 685.59644 1113 692.5 C 1113 699.40356 1107.40356 705 1100.5 705 C 1093.59644 705 1088 699.40356 1088 692.5 Z" stroke-miterlimit="10"/></g><g transform="translate(-150,-38) scale(1,1)"><path fill="#000000" stroke="none" d="M 1093 692.5 C 1093 688.357864 1096.357864 685 1100.5 685 C 1104.642136 685 1108 688.357864 1108 692.5 C 1108 696.642136 1104.642136 700 1100.5 700 C 1096.357864 700 1093 696.642136 1093 692.5 Z"/></g><g transform="translate(-150,-38) scale(1,1)"><path fill="#C0C0C0" stroke="none" d="M 489 519 L 621.88818359375 519 Q 631.88818359375 519 631.88818359375 529 L 631.88818359375 606 Q 631.88818359375 616 621.88818359375 616 L 489 616 Q 479 616 479 606 L 479 529 Q 479 519 489 519 Z" opacity="0.2"/></g><g transform="translate(-150,-38) scale(1,1)"><path fill="#ffffff" stroke="none" d="M 482 512 L 614.88818359375 512 Q 624.88818359375 512 624.88818359375 522 L 624.88818359375 599 Q 624.88818359375 609 614.88818359375 609 L 482 609 Q 472 609 472 599 L 472 522 Q 472 512 482 512 Z"/></g><g transform="translate(-150,-38) scale(1,1)"><path fill="none" stroke="#000000" d="M 482 512 L 614.88818359375 512 Q 624.88818359375 512 624.88818359375 522 L 624.88818359375 599 Q 624.88818359375 609 614.88818359375 609 L 482 609 Q 472 609 472 599 L 472 522 Q 472 512 482 512 Z" stroke-miterlimit="10"/></g><g transform="translate(-150,-38) scale(1,1)"><path fill="none" stroke="#000000" d="M 472 537 L 624.88818359375 537" stroke-miterlimit="10"/></g><g transform="translate(-150,-38) scale(1,1)"><path fill="none" stroke="#000000" d="M 472 560 L 624.88818359375 560" stroke-miterlimit="10"/></g><g transform="translate(-150,-38) scale(1,1)"><g><path fill="none" stroke="none"/><text fill="#000000" stroke="none" font-family="Arial" font-size="13px" font-style="normal" font-weight="bold" text-decoration="none" x="488.5" y="530">Acionando Suporte</text></g></g><g transform="translate(-150,-38) scale(1,1)"><g><path fill="none" stroke="none"/><text fill="#000000" stroke="none" font-family="Arial" font-size="13px" font-style="normal" font-weight="normal" text-decoration="none" x="477" y="553">do/AcionarSuporte()</text></g></g><g transform="translate(-150,-38) scale(1,1)"><path fill="none" stroke="#000000" d="M 855 559 L 626 560" stroke-miterlimit="10"/></g><g transform="translate(-150,-38) scale(1,1)"><path fill="none" stroke="#000000" d="M 636.1441959643931 555.7461443094539 L 626 560 L 636.1809599610816 564.1650995511335" stroke-miterlimit="10"/></g><g transform="translate(-150,-38) scale(1,1)"><g><path fill="none" stroke="none"/><text fill="#000000" stroke="none" font-family="Arial" font-size="13px" font-style="normal" font-weight="normal" text-decoration="none" x="654.5" y="578"> [Se ERRO] / Acionar Suporte</text></g></g><g transform="translate(-150,-38) scale(1,1)"><path fill="#C0C0C0" stroke="none" d="M 1033 503 L 1188 503 Q 1198 503 1198 513 L 1198 588 Q 1198 598 1188 598 L 1033 598 Q 1023 598 1023 588 L 1023 513 Q 1023 503 1033 503 Z" opacity="0.2"/></g><g transform="translate(-150,-38) scale(1,1)"><path fill="#ffffff" stroke="none" d="M 1026 496 L 1181 496 Q 1191 496 1191 506 L 1191 581 Q 1191 591 1181 591 L 1026 591 Q 1016 591 1016 581 L 1016 506 Q 1016 496 1026 496 Z"/></g><g transform="translate(-150,-38) scale(1,1)"><path fill="none" stroke="#000000" d="M 1026 496 L 1181 496 Q 1191 496 1191 506 L 1191 581 Q 1191 591 1181 591 L 1026 591 Q 1016 591 1016 581 L 1016 506 Q 1016 496 1026 496 Z" stroke-miterlimit="10"/></g><g transform="translate(-150,-38) scale(1,1)"><path fill="none" stroke="#000000" d="M 1016 521 L 1191 521" stroke-miterlimit="10"/></g><g transform="translate(-150,-38) scale(1,1)"><g><path fill="none" stroke="none"/><text fill="#000000" stroke="none" font-family="Arial" font-size="13px" font-style="normal" font-weight="bold" text-decoration="none" x="1050.77001953125" y="514">Pedido Recebido</text></g></g><g transform="translate(-150,-38) scale(1,1)"><path fill="none" stroke="#000000" d="M 867 243 L 1065 495" stroke-miterlimit="10"/></g><g transform="translate(-150,-38) scale(1,1)"><path fill="none" stroke="#000000" d="M 1055.4112594385292 489.60963318086726 L 1065 495 L 1062.0313014568374 484.4081715950539" stroke-miterlimit="10"/></g><g transform="translate(-150,-38) scale(1,1)"><path fill="none" stroke="#000000" d="M 871 558 L 1015 549" stroke-miterlimit="10"/></g><g transform="translate(-150,-38) scale(1,1)"><path fill="none" stroke="#000000" d="M 1005.1196986572251 553.8352502909322 L 1015 549 L 1004.594533650905 545.4326101898097" stroke-miterlimit="10"/></g><g transform="translate(-150,-38) scale(1,1)"><path fill="none" stroke="#000000" d="M 1102 592 L 1100 679" stroke-miterlimit="10"/></g><g transform="translate(-150,-38) scale(1,1)"><path fill="none" stroke="#000000" d="M 1096.025157110015 668.7432644569564 L 1100 679 L 1104.4419688936637 668.9367543830172" stroke-miterlimit="10"/></g><g transform="translate(-150,-38) scale(1,1)"><g><path fill="none" stroke="none"/><text fill="#000000" stroke="none" font-family="Arial" font-size="13px" font-style="normal" font-weight="normal" text-decoration="none" x="1119.5" y="654">Pedido Recebido</text></g></g></g></svg>