<svg version="1.1" xmlns="http://www.w3.org/2000/svg" xmlns:xlink="http://www.w3.org/1999/xlink" width="620" height="500"><defs/><g><text fill="#eeeeee" stroke="none" font-family="Arial" font-size="24px" font-style="normal" font-weight="normal" text-decoration="none" x="0" y="0">UNREGISTERED</text><text fill="#eeeeee" stroke="none" font-family="Arial" font-size="24px" font-style="normal" font-weight="normal" text-decoration="none" x="0" y="30">UNREGISTERED</text><text fill="#eeeeee" stroke="none" font-family="Arial" font-size="24px" font-style="normal" font-weight="normal" text-decoration="none" x="0" y="60">UNREGISTERED</text><text fill="#eeeeee" stroke="none" font-family="Arial" font-size="24px" font-style="normal" font-weight="normal" text-decoration="none" x="0" y="90">UNREGISTERED</text><text fill="#eeeeee" stroke="none" font-family="Arial" font-size="24px" font-style="normal" font-weight="normal" text-decoration="none" x="0" y="120">UNREGISTERED</text><text fill="#eeeeee" stroke="none" font-family="Arial" font-size="24px" font-style="normal" font-weight="normal" text-decoration="none" x="0" y="150">UNREGISTERED</text><text fill="#eeeeee" stroke="none" font-family="Arial" font-size="24px" font-style="normal" font-weight="normal" text-decoration="none" x="0" y="180">UNREGISTERED</text><text fill="#eeeeee" stroke="none" font-family="Arial" font-size="24px" font-style="normal" font-weight="normal" text-decoration="none" x="0" y="210">UNREGISTERED</text><text fill="#eeeeee" stroke="none" font-family="Arial" font-size="24px" font-style="normal" font-weight="normal" text-decoration="none" x="0" y="240">UNREGISTERED</text><text fill="#eeeeee" stroke="none" font-family="Arial" font-size="24px" font-style="normal" font-weight="normal" text-decoration="none" x="0" y="270">UNREGISTERED</text><text fill="#eeeeee" stroke="none" font-family="Arial" font-size="24px" font-style="normal" font-weight="normal" text-decoration="none" x="0" y="300">UNREGISTERED</text><text fill="#eeeeee" stroke="none" font-family="Arial" font-size="24px" font-style="normal" font-weight="normal" text-decoration="none" x="0" y="330">UNREGISTERED</text><text fill="#eeeeee" stroke="none" font-family="Arial" font-size="24px" font-style="normal" font-weight="normal" text-decoration="none" x="0" y="360">UNREGISTERED</text><text fill="#eeeeee" stroke="none" font-family="Arial" font-size="24px" font-style="normal" font-weight="normal" text-decoration="none" x="0" y="390">UNREGISTERED</text><text fill="#eeeeee" stroke="none" font-family="Arial" font-size="24px" font-style="normal" font-weight="normal" text-decoration="none" x="0" y="420">UNREGISTERED</text><text fill="#eeeeee" stroke="none" font-family="Arial" font-size="24px" font-style="normal" font-weight="normal" text-decoration="none" x="0" y="450">UNREGISTERED</text><text fill="#eeeeee" stroke="none" font-family="Arial" font-size="24px" font-style="normal" font-weight="normal" text-decoration="none" x="0" y="480">UNREGISTERED</text><text fill="#eeeeee" stroke="none" font-family="Arial" font-size="24px" font-style="normal" font-weight="normal" text-decoration="none" x="200" y="0">UNREGISTERED</text><text fill="#eeeeee" stroke="none" font-family="Arial" font-size="24px" font-style="normal" font-weight="normal" text-decoration="none" x="200" y="30">UNREGISTERED</text><text fill="#eeeeee" stroke="none" font-family="Arial" font-size="24px" font-style="normal" font-weight="normal" text-decoration="none" x="200" y="60">UNREGISTERED</text><text fill="#eeeeee" stroke="none" font-family="Arial" font-size="24px" font-style="normal" font-weight="normal" text-decoration="none" x="200" y="90">UNREGISTERED</text><text fill="#eeeeee" stroke="none" font-family="Arial" font-size="24px" font-style="normal" font-weight="normal" text-decoration="none" x="200" y="120">UNREGISTERED</text><text fill="#eeeeee" stroke="none" font-family="Arial" font-size="24px" font-style="normal" font-weight="normal" text-decoration="none" x="200" y="150">UNREGISTERED</text><text fill="#eeeeee" stroke="none" font-family="Arial" font-size="24px" font-style="normal" font-weight="normal" text-decoration="none" x="200" y="180">UNREGISTERED</text><text fill="#eeeeee" stroke="none" font-family="Arial" font-size="24px" font-style="normal" font-weight="normal" text-decoration="none" x="200" y="210">UNREGISTERED</text><text fill="#eeeeee" stroke="none" font-family="Arial" font-size="24px" font-style="normal" font-weight="normal" text-decoration="none" x="200" y="240">UNREGISTERED</text><text fill="#eeeeee" stroke="none" font-family="Arial" font-size="24px" font-style="normal" font-weight="normal" text-decoration="none" x="200" y="270">UNREGISTERED</text><text fill="#eeeeee" stroke="none" font-family="Arial" font-size="24px" font-style="normal" font-weight="normal" text-decoration="none" x="200" y="300">UNREGISTERED</text><text fill="#eeeeee" stroke="none" font-family="Arial" font-size="24px" font-style="normal" font-weight="normal" text-decoration="none" x="200" y="330">UNREGISTERED</text><text fill="#eeeeee" stroke="none" font-family="Arial" font-size="24px" font-style="normal" font-weight="normal" text-decoration="none" x="200" y="360">UNREGISTERED</text><text fill="#eeeeee" stroke="none" font-family="Arial" font-size="24px" font-style="normal" font-weight="normal" text-decoration="none" x="200" y="390">UNREGISTERED</text><text fill="#eeeeee" stroke="none" font-family="Arial" font-size="24px" font-style="normal" font-weight="normal" text-decoration="none" x="200" y="420">UNREGISTERED</text><text fill="#eeeeee" stroke="none" font-family="Arial" font-size="24px" font-style="normal" font-weight="normal" text-decoration="none" x="200" y="450">UNREGISTERED</text><text fill="#eeeeee" stroke="none" font-family="Arial" font-size="24px" font-style="normal" font-weight="normal" text-decoration="none" x="200" y="480">UNREGISTERED</text><text fill="#eeeeee" stroke="none" font-family="Arial" font-size="24px" font-style="normal" font-weight="normal" text-decoration="none" x="400" y="0">UNREGISTERED</text><text fill="#eeeeee" stroke="none" font-family="Arial" font-size="24px" font-style="normal" font-weight="normal" text-decoration="none" x="400" y="30">UNREGISTERED</text><text fill="#eeeeee" stroke="none" font-family="Arial" font-size="24px" font-style="normal" font-weight="normal" text-decoration="none" x="400" y="60">UNREGISTERED</text><text fill="#eeeeee" stroke="none" font-family="Arial" font-size="24px" font-style="normal" font-weight="normal" text-decoration="none" x="400" y="90">UNREGISTERED</text><text fill="#eeeeee" stroke="none" font-family="Arial" font-size="24px" font-style="normal" font-weight="normal" text-decoration="none" x="400" y="120">UNREGISTERED</text><text fill="#eeeeee" stroke="none" font-family="Arial" font-size="24px" font-style="normal" font-weight="normal" text-decoration="none" x="400" y="150">UNREGISTERED</text><text fill="#eeeeee" stroke="none" font-family="Arial" font-size="24px" font-style="normal" font-weight="normal" text-decoration="none" x="400" y="180">UNREGISTERED</text><text fill="#eeeeee" stroke="none" font-family="Arial" font-size="24px" font-style="normal" font-weight="normal" text-decoration="none" x="400" y="210">UNREGISTERED</text><text fill="#eeeeee" stroke="none" font-family="Arial" font-size="24px" font-style="normal" font-weight="normal" text-decoration="none" x="400" y="240">UNREGISTERED</text><text fill="#eeeeee" stroke="none" font-family="Arial" font-size="24px" font-style="normal" font-weight="normal" text-decoration="none" x="400" y="270">UNREGISTERED</text><text fill="#eeeeee" stroke="none" font-family="Arial" font-size="24px" font-style="normal" font-weight="normal" text-decoration="none" x="400" y="300">UNREGISTERED</text><text fill="#eeeeee" stroke="none" font-family="Arial" font-size="24px" font-style="normal" font-weight="normal" text-decoration="none" x="400" y="330">UNREGISTERED</text><text fill="#eeeeee" stroke="none" font-family="Arial" font-size="24px" font-style="normal" font-weight="normal" text-decoration="none" x="400" y="360">UNREGISTERED</text><text fill="#eeeeee" stroke="none" font-family="Arial" font-size="24px" font-style="normal" font-weight="normal" text-decoration="none" x="400" y="390">UNREGISTERED</text><text fill="#eeeeee" stroke="none" font-family="Arial" font-size="24px" font-style="normal" font-weight="normal" text-decoration="none" x="400" y="420">UNREGISTERED</text><text fill="#eeeeee" stroke="none" font-family="Arial" font-size="24px" font-style="normal" font-weight="normal" text-decoration="none" x="400" y="450">UNREGISTERED</text><text fill="#eeeeee" stroke="none" font-family="Arial" font-size="24px" font-style="normal" font-weight="normal" text-decoration="none" x="400" y="480">UNREGISTERED</text><text fill="#eeeeee" stroke="none" font-family="Arial" font-size="24px" font-style="normal" font-weight="normal" text-decoration="none" x="600" y="0">UNREGISTERED</text><text fill="#eeeeee" stroke="none" font-family="Arial" font-size="24px" font-style="normal" font-weight="normal" text-decoration="none" x="600" y="30">UNREGISTERED</text><text fill="#eeeeee" stroke="none" font-family="Arial" font-size="24px" font-style="normal" font-weight="normal" text-decoration="none" x="600" y="60">UNREGISTERED</text><text fill="#eeeeee" stroke="none" font-family="Arial" font-size="24px" font-style="normal" font-weight="normal" text-decoration="none" x="600" y="90">UNREGISTERED</text><text fill="#eeeeee" stroke="none" font-family="Arial" font-size="24px" font-style="normal" font-weight="normal" text-decoration="none" x="600" y="120">UNREGISTERED</text><text fill="#eeeeee" stroke="none" font-family="Arial" font-size="24px" font-style="normal" font-weight="normal" text-decoration="none" x="600" y="150">UNREGISTERED</text><text fill="#eeeeee" stroke="none" font-family="Arial" font-size="24px" font-style="normal" font-weight="normal" text-decoration="none" x="600" y="180">UNREGISTERED</text><text fill="#eeeeee" stroke="none" font-family="Arial" font-size="24px" font-style="normal" font-weight="normal" text-decoration="none" x="600" y="210">UNREGISTERED</text><text fill="#eeeeee" stroke="none" font-family="Arial" font-size="24px" font-style="normal" font-weight="normal" text-decoration="none" x="600" y="240">UNREGISTERED</text><text fill="#eeeeee" stroke="none" font-family="Arial" font-size="24px" font-style="normal" font-weight="normal" text-decoration="none" x="600" y="270">UNREGISTERED</text><text fill="#eeeeee" stroke="none" font-family="Arial" font-size="24px" font-style="normal" font-weight="normal" text-decoration="none" x="600" y="300">UNREGISTERED</text><text fill="#eeeeee" stroke="none" font-family="Arial" font-size="24px" font-style="normal" font-weight="normal" text-decoration="none" x="600" y="330">UNREGISTERED</text><text fill="#eeeeee" stroke="none" font-family="Arial" font-size="24px" font-style="normal" font-weight="normal" text-decoration="none" x="600" y="360">UNREGISTERED</text><text fill="#eeeeee" stroke="none" font-family="Arial" font-size="24px" font-style="normal" font-weight="normal" text-decoration="none" x="600" y="390">UNREGISTERED</text><text fill="#eeeeee" stroke="none" font-family="Arial" font-size="24px" font-style="normal" font-weight="normal" text-decoration="none" x="600" y="420">UNREGISTERED</text><text fill="#eeeeee" stroke="none" font-family="Arial" font-size="24px" font-style="normal" font-weight="normal" text-decoration="none" x="600" y="450">UNREGISTERED</text><text fill="#eeeeee" stroke="none" font-family="Arial" font-size="24px" font-style="normal" font-weight="normal" text-decoration="none" x="600" y="480">UNREGISTERED</text><g transform="translate(-230,10) scale(1,1)"><path fill="none" stroke="#000000" d="M 240 0 L 840 0 L 840 480 L 240 480 L 240 0" stroke-miterlimit="10"/></g><g transform="translate(-230,10) scale(1,1)"><path fill="#ffffff" stroke="none" d="M 240 0 L 240 22 L 491.49169921875 22 L 502.49169921875 11 L 502.49169921875 0 L 240 0"/></g><g transform="translate(-230,10) scale(1,1)"><path fill="none" stroke="#000000" d="M 240 0 L 240 22 L 491.49169921875 22 L 502.49169921875 11 L 502.49169921875 0 L 240 0 L 240 0" stroke-miterlimit="10"/></g><g transform="translate(-230,10) scale(1,1)"><g><path fill="none" stroke="none"/><text fill="#000000" stroke="none" font-family="Arial" font-size="13px" font-style="normal" font-weight="normal" text-decoration="none" x="264.72998046875" y="16">Diagrama de Sequencia'Fazer Pedido'</text></g></g><g transform="translate(-230,10) scale(1,1)"><g><path fill="none" stroke="none"/><text fill="#000000" stroke="none" font-family="Arial" font-size="13px" font-style="normal" font-weight="bold" text-decoration="none" x="244.279541015625" y="16">sd</text></g></g><g transform="translate(-230,10) scale(1,1)"><rect fill="#C0C0C0" stroke="none" x="343" y="47" width="104" height="39" opacity="0.2"/></g><g transform="translate(-230,10) scale(1,1)"><rect fill="#ffffff" stroke="none" x="336" y="40" width="104" height="39"/></g><g transform="translate(-230,10) scale(1,1)"><path fill="none" stroke="#000000" d="M 336 40 L 440 40 L 440 79 L 336 79 L 336 40 Z Z" stroke-miterlimit="10"/></g><g transform="translate(-230,10) scale(1,1)"><g><path fill="none" stroke="none"/><text fill="#000000" stroke="none" font-family="Arial" font-size="13px" font-style="normal" font-weight="bold" text-decoration="none" x="366.3291015625" y="58">Cliente</text></g></g><g transform="translate(-230,10) scale(1,1)"><path fill="none" stroke="#000000" d="M 389.5 80 L 389.5 392" stroke-miterlimit="10" stroke-dasharray="3"/></g><g transform="translate(-230,10) scale(1,1)"><rect fill="#C0C0C0" stroke="none" x="519" y="47" width="127" height="39" opacity="0.2"/></g><g transform="translate(-230,10) scale(1,1)"><rect fill="#ffffff" stroke="none" x="512" y="40" width="127" height="39"/></g><g transform="translate(-230,10) scale(1,1)"><path fill="none" stroke="#000000" d="M 512 40 L 639 40 L 639 79 L 512 79 L 512 40 Z Z" stroke-miterlimit="10"/></g><g transform="translate(-230,10) scale(1,1)"><g><path fill="none" stroke="none"/><text fill="#000000" stroke="none" font-family="Arial" font-size="13px" font-style="normal" font-weight="bold" text-decoration="none" x="553.832275390625" y="58">Pedido</text></g></g><g transform="translate(-230,10) scale(1,1)"><path fill="none" stroke="#000000" d="M 576.5 80 L 576.5 391" stroke-miterlimit="10" stroke-dasharray="3"/></g><g transform="translate(-230,10) scale(1,1)"><path fill="none" stroke="#000000" d="M 389 130 L 569 130" stroke-miterlimit="10"/></g><g transform="translate(-230,10) scale(1,1)"><path fill="#000000" stroke="none" d="M 558.8373251423759 134.209517756016 L 569 130 L 558.8373251423758 125.79048224398402"/></g><g transform="translate(-230,10) scale(1,1)"><path fill="none" stroke="#000000" d="M 558.8373251423759 134.209517756016 L 569 130 L 558.8373251423758 125.79048224398402 L 558.8373251423759 134.209517756016" stroke-miterlimit="10"/></g><g transform="translate(-230,10) scale(1,1)"><g><path fill="none" stroke="none"/><text fill="#000000" stroke="none" font-family="Arial" font-size="13px" font-style="normal" font-weight="normal" text-decoration="none" x="412.5" y="125">1 : Seleciona o produto</text></g></g><g transform="translate(-230,10) scale(1,1)"><rect fill="#ffffff" stroke="none" x="569" y="130" width="13" height="28"/></g><g transform="translate(-230,10) scale(1,1)"><path fill="none" stroke="#000000" d="M 569 130 L 582 130 L 582 158 L 569 158 L 569 130 Z Z" stroke-miterlimit="10"/></g><g transform="translate(-230,10) scale(1,1)"><path fill="none" stroke="#000000" d="M 389 226 L 569 226" stroke-miterlimit="10"/></g><g transform="translate(-230,10) scale(1,1)"><path fill="#000000" stroke="none" d="M 558.8373251423759 230.209517756016 L 569 226 L 558.8373251423758 221.790482243984"/></g><g transform="translate(-230,10) scale(1,1)"><path fill="none" stroke="#000000" d="M 558.8373251423759 230.209517756016 L 569 226 L 558.8373251423758 221.790482243984 L 558.8373251423759 230.209517756016" stroke-miterlimit="10"/></g><g transform="translate(-230,10) scale(1,1)"><g><path fill="none" stroke="none"/><text fill="#000000" stroke="none" font-family="Arial" font-size="13px" font-style="normal" font-weight="normal" text-decoration="none" x="374.5" y="221">2 : Adiciona os produtos ao carrinho</text></g></g><g transform="translate(-230,10) scale(1,1)"><rect fill="#ffffff" stroke="none" x="569" y="226" width="13" height="28"/></g><g transform="translate(-230,10) scale(1,1)"><path fill="none" stroke="#000000" d="M 569 226 L 582 226 L 582 254 L 569 254 L 569 226 Z Z" stroke-miterlimit="10"/></g><g transform="translate(-230,10) scale(1,1)"><path fill="none" stroke="#000000" d="M 389 315 L 569 315" stroke-miterlimit="10"/></g><g transform="translate(-230,10) scale(1,1)"><path fill="#000000" stroke="none" d="M 558.8373251423759 319.209517756016 L 569 315 L 558.8373251423758 310.790482243984"/></g><g transform="translate(-230,10) scale(1,1)"><path fill="none" stroke="#000000" d="M 558.8373251423759 319.209517756016 L 569 315 L 558.8373251423758 310.790482243984 L 558.8373251423759 319.209517756016" stroke-miterlimit="10"/></g><g transform="translate(-230,10) scale(1,1)"><g><path fill="none" stroke="none"/><text fill="#000000" stroke="none" font-family="Arial" font-size="13px" font-style="normal" font-weight="normal" text-decoration="none" x="416.5" y="310">3 : Confirma o pedido</text></g></g><g transform="translate(-230,10) scale(1,1)"><rect fill="#ffffff" stroke="none" x="569" y="315" width="13" height="45"/></g><g transform="translate(-230,10) scale(1,1)"><path fill="none" stroke="#000000" d="M 569 315 L 582 315 L 582 360 L 569 360 L 569 315 Z Z" stroke-miterlimit="10"/></g><g transform="translate(-230,10) scale(1,1)"><path fill="none" stroke="#000000" d="M 576 361 L 389 361" stroke-miterlimit="10" stroke-dasharray="3"/></g><g transform="translate(-230,10) scale(1,1)"><path fill="none" stroke="#000000" d="M 399.16267485762415 356.790482243984 L 389 361 L 399.16267485762415 365.209517756016" stroke-miterlimit="10"/></g><g transform="translate(-230,10) scale(1,1)"><g><path fill="none" stroke="none"/><text fill="#000000" stroke="none" font-family="Arial" font-size="13px" font-style="normal" font-weight="normal" text-decoration="none" x="421.5" y="376">4 : Registra o pedido</text></g></g></g></svg>