<svg version="1.1" xmlns="http://www.w3.org/2000/svg" xmlns:xlink="http://www.w3.org/1999/xlink" width="980" height="876"><defs/><g><text fill="#eeeeee" stroke="none" font-family="Arial" font-size="24px" font-style="normal" font-weight="normal" text-decoration="none" x="0" y="0">UNREGISTERED</text><text fill="#eeeeee" stroke="none" font-family="Arial" font-size="24px" font-style="normal" font-weight="normal" text-decoration="none" x="0" y="30">UNREGISTERED</text><text fill="#eeeeee" stroke="none" font-family="Arial" font-size="24px" font-style="normal" font-weight="normal" text-decoration="none" x="0" y="60">UNREGISTERED</text><text fill="#eeeeee" stroke="none" font-family="Arial" font-size="24px" font-style="normal" font-weight="normal" text-decoration="none" x="0" y="90">UNREGISTERED</text><text fill="#eeeeee" stroke="none" font-family="Arial" font-size="24px" font-style="normal" font-weight="normal" text-decoration="none" x="0" y="120">UNREGISTERED</text><text fill="#eeeeee" stroke="none" font-family="Arial" font-size="24px" font-style="normal" font-weight="normal" text-decoration="none" x="0" y="150">UNREGISTERED</text><text fill="#eeeeee" stroke="none" font-family="Arial" font-size="24px" font-style="normal" font-weight="normal" text-decoration="none" x="0" y="180">UNREGISTERED</text><text fill="#eeeeee" stroke="none" font-family="Arial" font-size="24px" font-style="normal" font-weight="normal" text-decoration="none" x="0" y="210">UNREGISTERED</text><text fill="#eeeeee" stroke="none" font-family="Arial" font-size="24px" font-style="normal" font-weight="normal" text-decoration="none" x="0" y="240">UNREGISTERED</text><text fill="#eeeeee" stroke="none" font-family="Arial" font-size="24px" font-style="normal" font-weight="normal" text-decoration="none" x="0" y="270">UNREGISTERED</text><text fill="#eeeeee" stroke="none" font-family="Arial" font-size="24px" font-style="normal" font-weight="normal" text-decoration="none" x="0" y="300">UNREGISTERED</text><text fill="#eeeeee" stroke="none" font-family="Arial" font-size="24px" font-style="normal" font-weight="normal" text-decoration="none" x="0" y="330">UNREGISTERED</text><text fill="#eeeeee" stroke="none" font-family="Arial" font-size="24px" font-style="normal" font-weight="normal" text-decoration="none" x="0" y="360">UNREGISTERED</text><text fill="#eeeeee" stroke="none" font-family="Arial" font-size="24px" font-style="normal" font-weight="normal" text-decoration="none" x="0" y="390">UNREGISTERED</text><text fill="#eeeeee" stroke="none" font-family="Arial" font-size="24px" font-style="normal" font-weight="normal" text-decoration="none" x="0" y="420">UNREGISTERED</text><text fill="#eeeeee" stroke="none" font-family="Arial" font-size="24px" font-style="normal" font-weight="normal" text-decoration="none" x="0" y="450">UNREGISTERED</text><text fill="#eeeeee" stroke="none" font-family="Arial" font-size="24px" font-style="normal" font-weight="normal" text-decoration="none" x="0" y="480">UNREGISTERED</text><text fill="#eeeeee" stroke="none" font-family="Arial" font-size="24px" font-style="normal" font-weight="normal" text-decoration="none" x="0" y="510">UNREGISTERED</text><text fill="#eeeeee" stroke="none" font-family="Arial" font-size="24px" font-style="normal" font-weight="normal" text-decoration="none" x="0" y="540">UNREGISTERED</text><text fill="#eeeeee" stroke="none" font-family="Arial" font-size="24px" font-style="normal" font-weight="normal" text-decoration="none" x="0" y="570">UNREGISTERED</text><text fill="#eeeeee" stroke="none" font-family="Arial" font-size="24px" font-style="normal" font-weight="normal" text-decoration="none" x="0" y="600">UNREGISTERED</text><text fill="#eeeeee" stroke="none" font-family="Arial" font-size="24px" font-style="normal" font-weight="normal" text-decoration="none" x="0" y="630">UNREGISTERED</text><text fill="#eeeeee" stroke="none" font-family="Arial" font-size="24px" font-style="normal" font-weight="normal" text-decoration="none" x="0" y="660">UNREGISTERED</text><text fill="#eeeeee" stroke="none" font-family="Arial" font-size="24px" font-style="normal" font-weight="normal" text-decoration="none" x="0" y="690">UNREGISTERED</text><text fill="#eeeeee" stroke="none" font-family="Arial" font-size="24px" font-style="normal" font-weight="normal" text-decoration="none" x="0" y="720">UNREGISTERED</text><text fill="#eeeeee" stroke="none" font-family="Arial" font-size="24px" font-style="normal" font-weight="normal" text-decoration="none" x="0" y="750">UNREGISTERED</text><text fill="#eeeeee" stroke="none" font-family="Arial" font-size="24px" font-style="normal" font-weight="normal" text-decoration="none" x="0" y="780">UNREGISTERED</text><text fill="#eeeeee" stroke="none" font-family="Arial" font-size="24px" font-style="normal" font-weight="normal" text-decoration="none" x="0" y="810">UNREGISTERED</text><text fill="#eeeeee" stroke="none" font-family="Arial" font-size="24px" font-style="normal" font-weight="normal" text-decoration="none" x="0" y="840">UNREGISTERED</text><text fill="#eeeeee" stroke="none" font-family="Arial" font-size="24px" font-style="normal" font-weight="normal" text-decoration="none" x="0" y="870">UNREGISTERED</text><text fill="#eeeeee" stroke="none" font-family="Arial" font-size="24px" font-style="normal" font-weight="normal" text-decoration="none" x="200" y="0">UNREGISTERED</text><text fill="#eeeeee" stroke="none" font-family="Arial" font-size="24px" font-style="normal" font-weight="normal" text-decoration="none" x="200" y="30">UNREGISTERED</text><text fill="#eeeeee" stroke="none" font-family="Arial" font-size="24px" font-style="normal" font-weight="normal" text-decoration="none" x="200" y="60">UNREGISTERED</text><text fill="#eeeeee" stroke="none" font-family="Arial" font-size="24px" font-style="normal" font-weight="normal" text-decoration="none" x="200" y="90">UNREGISTERED</text><text fill="#eeeeee" stroke="none" font-family="Arial" font-size="24px" font-style="normal" font-weight="normal" text-decoration="none" x="200" y="120">UNREGISTERED</text><text fill="#eeeeee" stroke="none" font-family="Arial" font-size="24px" font-style="normal" font-weight="normal" text-decoration="none" x="200" y="150">UNREGISTERED</text><text fill="#eeeeee" stroke="none" font-family="Arial" font-size="24px" font-style="normal" font-weight="normal" text-decoration="none" x="200" y="180">UNREGISTERED</text><text fill="#eeeeee" stroke="none" font-family="Arial" font-size="24px" font-style="normal" font-weight="normal" text-decoration="none" x="200" y="210">UNREGISTERED</text><text fill="#eeeeee" stroke="none" font-family="Arial" font-size="24px" font-style="normal" font-weight="normal" text-decoration="none" x="200" y="240">UNREGISTERED</text><text fill="#eeeeee" stroke="none" font-family="Arial" font-size="24px" font-style="normal" font-weight="normal" text-decoration="none" x="200" y="270">UNREGISTERED</text><text fill="#eeeeee" stroke="none" font-family="Arial" font-size="24px" font-style="normal" font-weight="normal" text-decoration="none" x="200" y="300">UNREGISTERED</text><text fill="#eeeeee" stroke="none" font-family="Arial" font-size="24px" font-style="normal" font-weight="normal" text-decoration="none" x="200" y="330">UNREGISTERED</text><text fill="#eeeeee" stroke="none" font-family="Arial" font-size="24px" font-style="normal" font-weight="normal" text-decoration="none" x="200" y="360">UNREGISTERED</text><text fill="#eeeeee" stroke="none" font-family="Arial" font-size="24px" font-style="normal" font-weight="normal" text-decoration="none" x="200" y="390">UNREGISTERED</text><text fill="#eeeeee" stroke="none" font-family="Arial" font-size="24px" font-style="normal" font-weight="normal" text-decoration="none" x="200" y="420">UNREGISTERED</text><text fill="#eeeeee" stroke="none" font-family="Arial" font-size="24px" font-style="normal" font-weight="normal" text-decoration="none" x="200" y="450">UNREGISTERED</text><text fill="#eeeeee" stroke="none" font-family="Arial" font-size="24px" font-style="normal" font-weight="normal" text-decoration="none" x="200" y="480">UNREGISTERED</text><text fill="#eeeeee" stroke="none" font-family="Arial" font-size="24px" font-style="normal" font-weight="normal" text-decoration="none" x="200" y="510">UNREGISTERED</text><text fill="#eeeeee" stroke="none" font-family="Arial" font-size="24px" font-style="normal" font-weight="normal" text-decoration="none" x="200" y="540">UNREGISTERED</text><text fill="#eeeeee" stroke="none" font-family="Arial" font-size="24px" font-style="normal" font-weight="normal" text-decoration="none" x="200" y="570">UNREGISTERED</text><text fill="#eeeeee" stroke="none" font-family="Arial" font-size="24px" font-style="normal" font-weight="normal" text-decoration="none" x="200" y="600">UNREGISTERED</text><text fill="#eeeeee" stroke="none" font-family="Arial" font-size="24px" font-style="normal" font-weight="normal" text-decoration="none" x="200" y="630">UNREGISTERED</text><text fill="#eeeeee" stroke="none" font-family="Arial" font-size="24px" font-style="normal" font-weight="normal" text-decoration="none" x="200" y="660">UNREGISTERED</text><text fill="#eeeeee" stroke="none" font-family="Arial" font-size="24px" font-style="normal" font-weight="normal" text-decoration="none" x="200" y="690">UNREGISTERED</text><text fill="#eeeeee" stroke="none" font-family="Arial" font-size="24px" font-style="normal" font-weight="normal" text-decoration="none" x="200" y="720">UNREGISTERED</text><text fill="#eeeeee" stroke="none" font-family="Arial" font-size="24px" font-style="normal" font-weight="normal" text-decoration="none" x="200" y="750">UNREGISTERED</text><text fill="#eeeeee" stroke="none" font-family="Arial" font-size="24px" font-style="normal" font-weight="normal" text-decoration="none" x="200" y="780">UNREGISTERED</text><text fill="#eeeeee" stroke="none" font-family="Arial" font-size="24px" font-style="normal" font-weight="normal" text-decoration="none" x="200" y="810">UNREGISTERED</text><text fill="#eeeeee" stroke="none" font-family="Arial" font-size="24px" font-style="normal" font-weight="normal" text-decoration="none" x="200" y="840">UNREGISTERED</text><text fill="#eeeeee" stroke="none" font-family="Arial" font-size="24px" font-style="normal" font-weight="normal" text-decoration="none" x="200" y="870">UNREGISTERED</text><text fill="#eeeeee" stroke="none" font-family="Arial" font-size="24px" font-style="normal" font-weight="normal" text-decoration="none" x="400" y="0">UNREGISTERED</text><text fill="#eeeeee" stroke="none" font-family="Arial" font-size="24px" font-style="normal" font-weight="normal" text-decoration="none" x="400" y="30">UNREGISTERED</text><text fill="#eeeeee" stroke="none" font-family="Arial" font-size="24px" font-style="normal" font-weight="normal" text-decoration="none" x="400" y="60">UNREGISTERED</text><text fill="#eeeeee" stroke="none" font-family="Arial" font-size="24px" font-style="normal" font-weight="normal" text-decoration="none" x="400" y="90">UNREGISTERED</text><text fill="#eeeeee" stroke="none" font-family="Arial" font-size="24px" font-style="normal" font-weight="normal" text-decoration="none" x="400" y="120">UNREGISTERED</text><text fill="#eeeeee" stroke="none" font-family="Arial" font-size="24px" font-style="normal" font-weight="normal" text-decoration="none" x="400" y="150">UNREGISTERED</text><text fill="#eeeeee" stroke="none" font-family="Arial" font-size="24px" font-style="normal" font-weight="normal" text-decoration="none" x="400" y="180">UNREGISTERED</text><text fill="#eeeeee" stroke="none" font-family="Arial" font-size="24px" font-style="normal" font-weight="normal" text-decoration="none" x="400" y="210">UNREGISTERED</text><text fill="#eeeeee" stroke="none" font-family="Arial" font-size="24px" font-style="normal" font-weight="normal" text-decoration="none" x="400" y="240">UNREGISTERED</text><text fill="#eeeeee" stroke="none" font-family="Arial" font-size="24px" font-style="normal" font-weight="normal" text-decoration="none" x="400" y="270">UNREGISTERED</text><text fill="#eeeeee" stroke="none" font-family="Arial" font-size="24px" font-style="normal" font-weight="normal" text-decoration="none" x="400" y="300">UNREGISTERED</text><text fill="#eeeeee" stroke="none" font-family="Arial" font-size="24px" font-style="normal" font-weight="normal" text-decoration="none" x="400" y="330">UNREGISTERED</text><text fill="#eeeeee" stroke="none" font-family="Arial" font-size="24px" font-style="normal" font-weight="normal" text-decoration="none" x="400" y="360">UNREGISTERED</text><text fill="#eeeeee" stroke="none" font-family="Arial" font-size="24px" font-style="normal" font-weight="normal" text-decoration="none" x="400" y="390">UNREGISTERED</text><text fill="#eeeeee" stroke="none" font-family="Arial" font-size="24px" font-style="normal" font-weight="normal" text-decoration="none" x="400" y="420">UNREGISTERED</text><text fill="#eeeeee" stroke="none" font-family="Arial" font-size="24px" font-style="normal" font-weight="normal" text-decoration="none" x="400" y="450">UNREGISTERED</text><text fill="#eeeeee" stroke="none" font-family="Arial" font-size="24px" font-style="normal" font-weight="normal" text-decoration="none" x="400" y="480">UNREGISTERED</text><text fill="#eeeeee" stroke="none" font-family="Arial" font-size="24px" font-style="normal" font-weight="normal" text-decoration="none" x="400" y="510">UNREGISTERED</text><text fill="#eeeeee" stroke="none" font-family="Arial" font-size="24px" font-style="normal" font-weight="normal" text-decoration="none" x="400" y="540">UNREGISTERED</text><text fill="#eeeeee" stroke="none" font-family="Arial" font-size="24px" font-style="normal" font-weight="normal" text-decoration="none" x="400" y="570">UNREGISTERED</text><text fill="#eeeeee" stroke="none" font-family="Arial" font-size="24px" font-style="normal" font-weight="normal" text-decoration="none" x="400" y="600">UNREGISTERED</text><text fill="#eeeeee" stroke="none" font-family="Arial" font-size="24px" font-style="normal" font-weight="normal" text-decoration="none" x="400" y="630">UNREGISTERED</text><text fill="#eeeeee" stroke="none" font-family="Arial" font-size="24px" font-style="normal" font-weight="normal" text-decoration="none" x="400" y="660">UNREGISTERED</text><text fill="#eeeeee" stroke="none" font-family="Arial" font-size="24px" font-style="normal" font-weight="normal" text-decoration="none" x="400" y="690">UNREGISTERED</text><text fill="#eeeeee" stroke="none" font-family="Arial" font-size="24px" font-style="normal" font-weight="normal" text-decoration="none" x="400" y="720">UNREGISTERED</text><text fill="#eeeeee" stroke="none" font-family="Arial" font-size="24px" font-style="normal" font-weight="normal" text-decoration="none" x="400" y="750">UNREGISTERED</text><text fill="#eeeeee" stroke="none" font-family="Arial" font-size="24px" font-style="normal" font-weight="normal" text-decoration="none" x="400" y="780">UNREGISTERED</text><text fill="#eeeeee" stroke="none" font-family="Arial" font-size="24px" font-style="normal" font-weight="normal" text-decoration="none" x="400" y="810">UNREGISTERED</text><text fill="#eeeeee" stroke="none" font-family="Arial" font-size="24px" font-style="normal" font-weight="normal" text-decoration="none" x="400" y="840">UNREGISTERED</text><text fill="#eeeeee" stroke="none" font-family="Arial" font-size="24px" font-style="normal" font-weight="normal" text-decoration="none" x="400" y="870">UNREGISTERED</text><text fill="#eeeeee" stroke="none" font-family="Arial" font-size="24px" font-style="normal" font-weight="normal" text-decoration="none" x="600" y="0">UNREGISTERED</text><text fill="#eeeeee" stroke="none" font-family="Arial" font-size="24px" font-style="normal" font-weight="normal" text-decoration="none" x="600" y="30">UNREGISTERED</text><text fill="#eeeeee" stroke="none" font-family="Arial" font-size="24px" font-style="normal" font-weight="normal" text-decoration="none" x="600" y="60">UNREGISTERED</text><text fill="#eeeeee" stroke="none" font-family="Arial" font-size="24px" font-style="normal" font-weight="normal" text-decoration="none" x="600" y="90">UNREGISTERED</text><text fill="#eeeeee" stroke="none" font-family="Arial" font-size="24px" font-style="normal" font-weight="normal" text-decoration="none" x="600" y="120">UNREGISTERED</text><text fill="#eeeeee" stroke="none" font-family="Arial" font-size="24px" font-style="normal" font-weight="normal" text-decoration="none" x="600" y="150">UNREGISTERED</text><text fill="#eeeeee" stroke="none" font-family="Arial" font-size="24px" font-style="normal" font-weight="normal" text-decoration="none" x="600" y="180">UNREGISTERED</text><text fill="#eeeeee" stroke="none" font-family="Arial" font-size="24px" font-style="normal" font-weight="normal" text-decoration="none" x="600" y="210">UNREGISTERED</text><text fill="#eeeeee" stroke="none" font-family="Arial" font-size="24px" font-style="normal" font-weight="normal" text-decoration="none" x="600" y="240">UNREGISTERED</text><text fill="#eeeeee" stroke="none" font-family="Arial" font-size="24px" font-style="normal" font-weight="normal" text-decoration="none" x="600" y="270">UNREGISTERED</text><text fill="#eeeeee" stroke="none" font-family="Arial" font-size="24px" font-style="normal" font-weight="normal" text-decoration="none" x="600" y="300">UNREGISTERED</text><text fill="#eeeeee" stroke="none" font-family="Arial" font-size="24px" font-style="normal" font-weight="normal" text-decoration="none" x="600" y="330">UNREGISTERED</text><text fill="#eeeeee" stroke="none" font-family="Arial" font-size="24px" font-style="normal" font-weight="normal" text-decoration="none" x="600" y="360">UNREGISTERED</text><text fill="#eeeeee" stroke="none" font-family="Arial" font-size="24px" font-style="normal" font-weight="normal" text-decoration="none" x="600" y="390">UNREGISTERED</text><text fill="#eeeeee" stroke="none" font-family="Arial" font-size="24px" font-style="normal" font-weight="normal" text-decoration="none" x="600" y="420">UNREGISTERED</text><text fill="#eeeeee" stroke="none" font-family="Arial" font-size="24px" font-style="normal" font-weight="normal" text-decoration="none" x="600" y="450">UNREGISTERED</text><text fill="#eeeeee" stroke="none" font-family="Arial" font-size="24px" font-style="normal" font-weight="normal" text-decoration="none" x="600" y="480">UNREGISTERED</text><text fill="#eeeeee" stroke="none" font-family="Arial" font-size="24px" font-style="normal" font-weight="normal" text-decoration="none" x="600" y="510">UNREGISTERED</text><text fill="#eeeeee" stroke="none" font-family="Arial" font-size="24px" font-style="normal" font-weight="normal" text-decoration="none" x="600" y="540">UNREGISTERED</text><text fill="#eeeeee" stroke="none" font-family="Arial" font-size="24px" font-style="normal" font-weight="normal" text-decoration="none" x="600" y="570">UNREGISTERED</text><text fill="#eeeeee" stroke="none" font-family="Arial" font-size="24px" font-style="normal" font-weight="normal" text-decoration="none" x="600" y="600">UNREGISTERED</text><text fill="#eeeeee" stroke="none" font-family="Arial" font-size="24px" font-style="normal" font-weight="normal" text-decoration="none" x="600" y="630">UNREGISTERED</text><text fill="#eeeeee" stroke="none" font-family="Arial" font-size="24px" font-style="normal" font-weight="normal" text-decoration="none" x="600" y="660">UNREGISTERED</text><text fill="#eeeeee" stroke="none" font-family="Arial" font-size="24px" font-style="normal" font-weight="normal" text-decoration="none" x="600" y="690">UNREGISTERED</text><text fill="#eeeeee" stroke="none" font-family="Arial" font-size="24px" font-style="normal" font-weight="normal" text-decoration="none" x="600" y="720">UNREGISTERED</text><text fill="#eeeeee" stroke="none" font-family="Arial" font-size="24px" font-style="normal" font-weight="normal" text-decoration="none" x="600" y="750">UNREGISTERED</text><text fill="#eeeeee" stroke="none" font-family="Arial" font-size="24px" font-style="normal" font-weight="normal" text-decoration="none" x="600" y="780">UNREGISTERED</text><text fill="#eeeeee" stroke="none" font-family="Arial" font-size="24px" font-style="normal" font-weight="normal" text-decoration="none" x="600" y="810">UNREGISTERED</text><text fill="#eeeeee" stroke="none" font-family="Arial" font-size="24px" font-style="normal" font-weight="normal" text-decoration="none" x="600" y="840">UNREGISTERED</text><text fill="#eeeeee" stroke="none" font-family="Arial" font-size="24px" font-style="normal" font-weight="normal" text-decoration="none" x="600" y="870">UNREGISTERED</text><text fill="#eeeeee" stroke="none" font-family="Arial" font-size="24px" font-style="normal" font-weight="normal" text-decoration="none" x="800" y="0">UNREGISTERED</text><text fill="#eeeeee" stroke="none" font-family="Arial" font-size="24px" font-style="normal" font-weight="normal" text-decoration="none" x="800" y="30">UNREGISTERED</text><text fill="#eeeeee" stroke="none" font-family="Arial" font-size="24px" font-style="normal" font-weight="normal" text-decoration="none" x="800" y="60">UNREGISTERED</text><text fill="#eeeeee" stroke="none" font-family="Arial" font-size="24px" font-style="normal" font-weight="normal" text-decoration="none" x="800" y="90">UNREGISTERED</text><text fill="#eeeeee" stroke="none" font-family="Arial" font-size="24px" font-style="normal" font-weight="normal" text-decoration="none" x="800" y="120">UNREGISTERED</text><text fill="#eeeeee" stroke="none" font-family="Arial" font-size="24px" font-style="normal" font-weight="normal" text-decoration="none" x="800" y="150">UNREGISTERED</text><text fill="#eeeeee" stroke="none" font-family="Arial" font-size="24px" font-style="normal" font-weight="normal" text-decoration="none" x="800" y="180">UNREGISTERED</text><text fill="#eeeeee" stroke="none" font-family="Arial" font-size="24px" font-style="normal" font-weight="normal" text-decoration="none" x="800" y="210">UNREGISTERED</text><text fill="#eeeeee" stroke="none" font-family="Arial" font-size="24px" font-style="normal" font-weight="normal" text-decoration="none" x="800" y="240">UNREGISTERED</text><text fill="#eeeeee" stroke="none" font-family="Arial" font-size="24px" font-style="normal" font-weight="normal" text-decoration="none" x="800" y="270">UNREGISTERED</text><text fill="#eeeeee" stroke="none" font-family="Arial" font-size="24px" font-style="normal" font-weight="normal" text-decoration="none" x="800" y="300">UNREGISTERED</text><text fill="#eeeeee" stroke="none" font-family="Arial" font-size="24px" font-style="normal" font-weight="normal" text-decoration="none" x="800" y="330">UNREGISTERED</text><text fill="#eeeeee" stroke="none" font-family="Arial" font-size="24px" font-style="normal" font-weight="normal" text-decoration="none" x="800" y="360">UNREGISTERED</text><text fill="#eeeeee" stroke="none" font-family="Arial" font-size="24px" font-style="normal" font-weight="normal" text-decoration="none" x="800" y="390">UNREGISTERED</text><text fill="#eeeeee" stroke="none" font-family="Arial" font-size="24px" font-style="normal" font-weight="normal" text-decoration="none" x="800" y="420">UNREGISTERED</text><text fill="#eeeeee" stroke="none" font-family="Arial" font-size="24px" font-style="normal" font-weight="normal" text-decoration="none" x="800" y="450">UNREGISTERED</text><text fill="#eeeeee" stroke="none" font-family="Arial" font-size="24px" font-style="normal" font-weight="normal" text-decoration="none" x="800" y="480">UNREGISTERED</text><text fill="#eeeeee" stroke="none" font-family="Arial" font-size="24px" font-style="normal" font-weight="normal" text-decoration="none" x="800" y="510">UNREGISTERED</text><text fill="#eeeeee" stroke="none" font-family="Arial" font-size="24px" font-style="normal" font-weight="normal" text-decoration="none" x="800" y="540">UNREGISTERED</text><text fill="#eeeeee" stroke="none" font-family="Arial" font-size="24px" font-style="normal" font-weight="normal" text-decoration="none" x="800" y="570">UNREGISTERED</text><text fill="#eeeeee" stroke="none" font-family="Arial" font-size="24px" font-style="normal" font-weight="normal" text-decoration="none" x="800" y="600">UNREGISTERED</text><text fill="#eeeeee" stroke="none" font-family="Arial" font-size="24px" font-style="normal" font-weight="normal" text-decoration="none" x="800" y="630">UNREGISTERED</text><text fill="#eeeeee" stroke="none" font-family="Arial" font-size="24px" font-style="normal" font-weight="normal" text-decoration="none" x="800" y="660">UNREGISTERED</text><text fill="#eeeeee" stroke="none" font-family="Arial" font-size="24px" font-style="normal" font-weight="normal" text-decoration="none" x="800" y="690">UNREGISTERED</text><text fill="#eeeeee" stroke="none" font-family="Arial" font-size="24px" font-style="normal" font-weight="normal" text-decoration="none" x="800" y="720">UNREGISTERED</text><text fill="#eeeeee" stroke="none" font-family="Arial" font-size="24px" font-style="normal" font-weight="normal" text-decoration="none" x="800" y="750">UNREGISTERED</text><text fill="#eeeeee" stroke="none" font-family="Arial" font-size="24px" font-style="normal" font-weight="normal" text-decoration="none" x="800" y="780">UNREGISTERED</text><text fill="#eeeeee" stroke="none" font-family="Arial" font-size="24px" font-style="normal" font-weight="normal" text-decoration="none" x="800" y="810">UNREGISTERED</text><text fill="#eeeeee" stroke="none" font-family="Arial" font-size="24px" font-style="normal" font-weight="normal" text-decoration="none" x="800" y="840">UNREGISTERED</text><text fill="#eeeeee" stroke="none" font-family="Arial" font-size="24px" font-style="normal" font-weight="normal" text-decoration="none" x="800" y="870">UNREGISTERED</text><g transform="translate(-182,-14) scale(1,1)"><rect fill="#ffffff" stroke="none" x="192" y="24" width="960" height="856"/></g><g transform="translate(-182,-14) scale(1,1)"><path fill="none" stroke="#000000" d="M 192 24 L 1152 24 L 1152 880 L 192 880 L 192 24 Z Z" stroke-miterlimit="10"/></g><g transform="translate(-182,-14) scale(1,1)"><path fill="#C0C0C0" stroke="none" d="M 639 88.5 C 639 83.2532944 643.2532944 79 648.5 79 C 653.7467056 79 658 83.2532944 658 88.5 C 658 93.7467056 653.7467056 98 648.5 98 C 643.2532944 98 639 93.7467056 639 88.5 Z" opacity="0.2"/></g><g transform="translate(-182,-14) scale(1,1)"><path fill="#000000" stroke="none" d="M 632 81.5 C 632 76.2532944 636.2532944 72 641.5 72 C 646.7467056 72 651 76.2532944 651 81.5 C 651 86.7467056 646.7467056 91 641.5 91 C 636.2532944 91 632 86.7467056 632 81.5 Z"/></g><g transform="translate(-182,-14) scale(1,1)"><path fill="#C0C0C0" stroke="none" d="M 561 135 L 734.20263671875 135 Q 744.20263671875 135 744.20263671875 145 L 744.20263671875 173 Q 744.20263671875 183 734.20263671875 183 L 561 183 Q 551 183 551 173 L 551 145 Q 551 135 561 135 Z" opacity="0.2"/></g><g transform="translate(-182,-14) scale(1,1)"><path fill="#ffffff" stroke="none" d="M 554 128 L 727.20263671875 128 Q 737.20263671875 128 737.20263671875 138 L 737.20263671875 166 Q 737.20263671875 176 727.20263671875 176 L 554 176 Q 544 176 544 166 L 544 138 Q 544 128 554 128 Z"/></g><g transform="translate(-182,-14) scale(1,1)"><path fill="none" stroke="#000000" d="M 554 128 L 727.20263671875 128 Q 737.20263671875 128 737.20263671875 138 L 737.20263671875 166 Q 737.20263671875 176 727.20263671875 176 L 554 176 Q 544 176 544 166 L 544 138 Q 544 128 554 128 Z" stroke-miterlimit="10"/></g><g transform="translate(-182,-14) scale(1,1)"><g><path fill="none" stroke="none"/><text fill="#000000" stroke="none" font-family="Arial" font-size="13px" font-style="normal" font-weight="bold" text-decoration="none" x="548.5" y="146">Consultar Pedidos Pendentes</text></g></g><g transform="translate(-182,-14) scale(1,1)"><path fill="none" stroke="#000000" d="M 641 92 L 640 127" stroke-miterlimit="10"/></g><g transform="translate(-182,-14) scale(1,1)"><path fill="none" stroke="#000000" d="M 636.0824430594122 116.7212477597107 L 640 127 L 644.4980443328709 116.96169351038095" stroke-miterlimit="10"/></g><g transform="translate(-182,-14) scale(1,1)"><path fill="#C0C0C0" stroke="none" d="M 623 313 L 647.5 287 L 671 313 L 647.5 338 L 623 313" opacity="0.2"/></g><g transform="translate(-182,-14) scale(1,1)"><path fill="#ffffff" stroke="none" d="M 616 305.5 L 640 280 L 664 305.5 L 640 331 L 616 305.5"/></g><g transform="translate(-182,-14) scale(1,1)"><path fill="none" stroke="#000000" d="M 616 305.5 L 640 280 L 664 305.5 L 640 331 L 616 305.5 L 616 305.5" stroke-miterlimit="10"/></g><g transform="translate(-182,-14) scale(1,1)"><path fill="none" stroke="#000000" d="M 640 177 L 640 279" stroke-miterlimit="10"/></g><g transform="translate(-182,-14) scale(1,1)"><path fill="none" stroke="#000000" d="M 635.790482243984 268.83732514237585 L 640 279 L 644.209517756016 268.83732514237585" stroke-miterlimit="10"/></g><g transform="translate(-182,-14) scale(1,1)"><path fill="#C0C0C0" stroke="none" d="M 377 287 L 470.74267578125 287 Q 480.74267578125 287 480.74267578125 297 L 480.74267578125 332 Q 480.74267578125 342 470.74267578125 342 L 377 342 Q 367 342 367 332 L 367 297 Q 367 287 377 287 Z" opacity="0.2"/></g><g transform="translate(-182,-14) scale(1,1)"><path fill="#ffffff" stroke="none" d="M 370 280 L 463.74267578125 280 Q 473.74267578125 280 473.74267578125 290 L 473.74267578125 325 Q 473.74267578125 335 463.74267578125 335 L 370 335 Q 360 335 360 325 L 360 290 Q 360 280 370 280 Z"/></g><g transform="translate(-182,-14) scale(1,1)"><path fill="none" stroke="#000000" d="M 370 280 L 463.74267578125 280 Q 473.74267578125 280 473.74267578125 290 L 473.74267578125 325 Q 473.74267578125 335 463.74267578125 335 L 370 335 Q 360 335 360 325 L 360 290 Q 360 280 370 280 Z" stroke-miterlimit="10"/></g><g transform="translate(-182,-14) scale(1,1)"><g><path fill="none" stroke="none"/><text fill="#000000" stroke="none" font-family="Arial" font-size="13px" font-style="normal" font-weight="bold" text-decoration="none" x="364.5" y="298">Notificar Usuário</text></g></g><g transform="translate(-182,-14) scale(1,1)"><path fill="none" stroke="#000000" d="M 615 305 L 475 306" stroke-miterlimit="10"/></g><g transform="translate(-182,-14) scale(1,1)"><path fill="none" stroke="#000000" d="M 485.13234839867397 301.71800094256326 L 475 306 L 485.1924828325949 310.1368216914991" stroke-miterlimit="10"/></g><g transform="translate(-182,-14) scale(1,1)"><g><path fill="none" stroke="none"/><text fill="#000000" stroke="none" font-family="Arial" font-size="13px" font-style="normal" font-weight="normal" text-decoration="none" x="478.5" y="324">Se não houver pedidos</text></g></g><g transform="translate(-182,-14) scale(1,1)"><path fill="none" stroke="#000000" d="M 416 279 L 416 152 L 543 152" stroke-miterlimit="10"/></g><g transform="translate(-182,-14) scale(1,1)"><path fill="none" stroke="#000000" d="M 532.8373251423759 156.209517756016 L 543 152 L 532.8373251423758 147.790482243984" stroke-miterlimit="10"/></g><g transform="translate(-182,-14) scale(1,1)"><path fill="#C0C0C0" stroke="none" d="M 801 295 L 990.09716796875 295 Q 1000.09716796875 295 1000.09716796875 305 L 1000.09716796875 325 Q 1000.09716796875 335 990.09716796875 335 L 801 335 Q 791 335 791 325 L 791 305 Q 791 295 801 295 Z" opacity="0.2"/></g><g transform="translate(-182,-14) scale(1,1)"><path fill="#ffffff" stroke="none" d="M 794 288 L 983.09716796875 288 Q 993.09716796875 288 993.09716796875 298 L 993.09716796875 318 Q 993.09716796875 328 983.09716796875 328 L 794 328 Q 784 328 784 318 L 784 298 Q 784 288 794 288 Z"/></g><g transform="translate(-182,-14) scale(1,1)"><path fill="none" stroke="#000000" d="M 794 288 L 983.09716796875 288 Q 993.09716796875 288 993.09716796875 298 L 993.09716796875 318 Q 993.09716796875 328 983.09716796875 328 L 794 328 Q 784 328 784 318 L 784 298 Q 784 288 794 288 Z" stroke-miterlimit="10"/></g><g transform="translate(-182,-14) scale(1,1)"><g><path fill="none" stroke="none"/><text fill="#000000" stroke="none" font-family="Arial" font-size="13px" font-style="normal" font-weight="bold" text-decoration="none" x="788.5" y="306">Exibir Formulário de Pagamento</text></g></g><g transform="translate(-182,-14) scale(1,1)"><path fill="none" stroke="#000000" d="M 665 305 L 783 307" stroke-miterlimit="10"/></g><g transform="translate(-182,-14) scale(1,1)"><path fill="none" stroke="#000000" d="M 772.7674470502988 311.03668925377724 L 783 307 L 772.910122075527 302.6188627653046" stroke-miterlimit="10"/></g><g transform="translate(-182,-14) scale(1,1)"><g><path fill="none" stroke="none"/><text fill="#000000" stroke="none" font-family="Arial" font-size="13px" font-style="normal" font-weight="normal" text-decoration="none" x="663.5" y="323">Se Houver Pedido</text></g></g><g transform="translate(-182,-14) scale(1,1)"><path fill="#C0C0C0" stroke="none" d="M 801 375 L 975.67529296875 375 Q 985.67529296875 375 985.67529296875 385 L 985.67529296875 405 Q 985.67529296875 415 975.67529296875 415 L 801 415 Q 791 415 791 405 L 791 385 Q 791 375 801 375 Z" opacity="0.2"/></g><g transform="translate(-182,-14) scale(1,1)"><path fill="#ffffff" stroke="none" d="M 794 368 L 968.67529296875 368 Q 978.67529296875 368 978.67529296875 378 L 978.67529296875 398 Q 978.67529296875 408 968.67529296875 408 L 794 408 Q 784 408 784 398 L 784 378 Q 784 368 794 368 Z"/></g><g transform="translate(-182,-14) scale(1,1)"><path fill="none" stroke="#000000" d="M 794 368 L 968.67529296875 368 Q 978.67529296875 368 978.67529296875 378 L 978.67529296875 398 Q 978.67529296875 408 968.67529296875 408 L 794 408 Q 784 408 784 398 L 784 378 Q 784 368 794 368 Z" stroke-miterlimit="10"/></g><g transform="translate(-182,-14) scale(1,1)"><g><path fill="none" stroke="none"/><text fill="#000000" stroke="none" font-family="Arial" font-size="13px" font-style="normal" font-weight="bold" text-decoration="none" x="788.5" y="386">Verificar dados de Pagamento</text></g></g><g transform="translate(-182,-14) scale(1,1)"><path fill="none" stroke="#000000" d="M 886 329 L 883 367" stroke-miterlimit="10"/></g><g transform="translate(-182,-14) scale(1,1)"><path fill="none" stroke="#000000" d="M 879.6033673121142 356.5375487392492 L 883 367 L 887.9962882275067 357.20014775888546" stroke-miterlimit="10"/></g><g transform="translate(-182,-14) scale(1,1)"><path fill="#C0C0C0" stroke="none" d="M 863 491.5 L 883.5 463 L 903 491.5 L 883.5 519 L 863 491.5" opacity="0.2"/></g><g transform="translate(-182,-14) scale(1,1)"><path fill="#ffffff" stroke="none" d="M 856 484 L 876 456 L 896 484 L 876 512 L 856 484"/></g><g transform="translate(-182,-14) scale(1,1)"><path fill="none" stroke="#000000" d="M 856 484 L 876 456 L 896 484 L 876 512 L 856 484 L 856 484" stroke-miterlimit="10"/></g><g transform="translate(-182,-14) scale(1,1)"><path fill="none" stroke="#000000" d="M 880 409 L 878 455" stroke-miterlimit="10"/></g><g transform="translate(-182,-14) scale(1,1)"><path fill="none" stroke="#000000" d="M 874.235893749185 444.6640673312673 L 878 455 L 882.6469830248906 445.02976686499363" stroke-miterlimit="10"/></g><g transform="translate(-182,-14) scale(1,1)"><path fill="#C0C0C0" stroke="none" d="M 817 583 L 942.5634765625 583 Q 952.5634765625 583 952.5634765625 593 L 952.5634765625 620 Q 952.5634765625 630 942.5634765625 630 L 817 630 Q 807 630 807 620 L 807 593 Q 807 583 817 583 Z" opacity="0.2"/></g><g transform="translate(-182,-14) scale(1,1)"><path fill="#ffffff" stroke="none" d="M 810 576 L 935.5634765625 576 Q 945.5634765625 576 945.5634765625 586 L 945.5634765625 613 Q 945.5634765625 623 935.5634765625 623 L 810 623 Q 800 623 800 613 L 800 586 Q 800 576 810 576 Z"/></g><g transform="translate(-182,-14) scale(1,1)"><path fill="none" stroke="#000000" d="M 810 576 L 935.5634765625 576 Q 945.5634765625 576 945.5634765625 586 L 945.5634765625 613 Q 945.5634765625 623 935.5634765625 623 L 810 623 Q 800 623 800 613 L 800 586 Q 800 576 810 576 Z" stroke-miterlimit="10"/></g><g transform="translate(-182,-14) scale(1,1)"><g><path fill="none" stroke="none"/><text fill="#000000" stroke="none" font-family="Arial" font-size="13px" font-style="normal" font-weight="bold" text-decoration="none" x="804.5" y="594">Processar Pagamento</text></g></g><g transform="translate(-182,-14) scale(1,1)"><path fill="none" stroke="#000000" d="M 875 513 L 873 575" stroke-miterlimit="10"/></g><g transform="translate(-182,-14) scale(1,1)"><path fill="none" stroke="#000000" d="M 869.1203284999245 564.7068882716885 L 873 575 L 877.5349870761203 564.9783288709207" stroke-miterlimit="10"/></g><g transform="translate(-182,-14) scale(1,1)"><g><path fill="none" stroke="none"/><text fill="#000000" stroke="none" font-family="Arial" font-size="13px" font-style="normal" font-weight="normal" text-decoration="none" x="879.5" y="547">Dados Válidos</text></g></g><g transform="translate(-182,-14) scale(1,1)"><path fill="#C0C0C0" stroke="none" d="M 1041 471 L 1134.74267578125 471 Q 1144.74267578125 471 1144.74267578125 481 L 1144.74267578125 508 Q 1144.74267578125 518 1134.74267578125 518 L 1041 518 Q 1031 518 1031 508 L 1031 481 Q 1031 471 1041 471 Z" opacity="0.2"/></g><g transform="translate(-182,-14) scale(1,1)"><path fill="#ffffff" stroke="none" d="M 1034 464 L 1127.74267578125 464 Q 1137.74267578125 464 1137.74267578125 474 L 1137.74267578125 501 Q 1137.74267578125 511 1127.74267578125 511 L 1034 511 Q 1024 511 1024 501 L 1024 474 Q 1024 464 1034 464 Z"/></g><g transform="translate(-182,-14) scale(1,1)"><path fill="none" stroke="#000000" d="M 1034 464 L 1127.74267578125 464 Q 1137.74267578125 464 1137.74267578125 474 L 1137.74267578125 501 Q 1137.74267578125 511 1127.74267578125 511 L 1034 511 Q 1024 511 1024 501 L 1024 474 Q 1024 464 1034 464 Z" stroke-miterlimit="10"/></g><g transform="translate(-182,-14) scale(1,1)"><g><path fill="none" stroke="none"/><text fill="#000000" stroke="none" font-family="Arial" font-size="13px" font-style="normal" font-weight="bold" text-decoration="none" x="1028.5" y="482">Notificar Usuário</text></g></g><g transform="translate(-182,-14) scale(1,1)"><path fill="none" stroke="#000000" d="M 897 484 L 1023 486" stroke-miterlimit="10"/></g><g transform="translate(-182,-14) scale(1,1)"><path fill="none" stroke="#000000" d="M 1012.7717958305514 490.0476955750244 L 1023 486 L 1012.9054144831438 481.62972046170086" stroke-miterlimit="10"/></g><g transform="translate(-182,-14) scale(1,1)"><g><path fill="none" stroke="none"/><text fill="#000000" stroke="none" font-family="Arial" font-size="13px" font-style="normal" font-weight="normal" text-decoration="none" x="905.5" y="475">Se dados Inválidos</text></g></g><g transform="translate(-182,-14) scale(1,1)"><path fill="none" stroke="#000000" d="M 1079 463 L 1072 312 L 994 310" stroke-miterlimit="10"/></g><g transform="translate(-182,-14) scale(1,1)"><path fill="none" stroke="#000000" d="M 1004.267236604958 306.0523611490146 L 994 310 L 1004.0514348286198 314.4686304262053" stroke-miterlimit="10"/></g><g transform="translate(-182,-14) scale(1,1)"><path fill="#C0C0C0" stroke="none" d="M 745 695 L 1009.9453125 695 Q 1019.9453125 695 1019.9453125 705 L 1019.9453125 732 Q 1019.9453125 742 1009.9453125 742 L 745 742 Q 735 742 735 732 L 735 705 Q 735 695 745 695 Z" opacity="0.2"/></g><g transform="translate(-182,-14) scale(1,1)"><path fill="#ffffff" stroke="none" d="M 738 688 L 1002.9453125 688 Q 1012.9453125 688 1012.9453125 698 L 1012.9453125 725 Q 1012.9453125 735 1002.9453125 735 L 738 735 Q 728 735 728 725 L 728 698 Q 728 688 738 688 Z"/></g><g transform="translate(-182,-14) scale(1,1)"><path fill="none" stroke="#000000" d="M 738 688 L 1002.9453125 688 Q 1012.9453125 688 1012.9453125 698 L 1012.9453125 725 Q 1012.9453125 735 1002.9453125 735 L 738 735 Q 728 735 728 725 L 728 698 Q 728 688 738 688 Z" stroke-miterlimit="10"/></g><g transform="translate(-182,-14) scale(1,1)"><g><path fill="none" stroke="none"/><text fill="#000000" stroke="none" font-family="Arial" font-size="13px" font-style="normal" font-weight="bold" text-decoration="none" x="732.5" y="706">Envia Informações do Pedido ao Fornecedor</text></g></g><g transform="translate(-182,-14) scale(1,1)"><path fill="none" stroke="#000000" d="M 872 624 L 870 687" stroke-miterlimit="10"/></g><g transform="translate(-182,-14) scale(1,1)"><path fill="none" stroke="#000000" d="M 866.1150639893677 676.7088741046816 L 870 687 L 874.5298603090303 676.976010495782" stroke-miterlimit="10"/></g><g transform="translate(-182,-14) scale(1,1)"><path fill="#C0C0C0" stroke="none" d="M 863 811.5 C 863 804.59644 868.59644 799 875.5 799 C 882.40356 799 888 804.59644 888 811.5 C 888 818.40356 882.40356 824 875.5 824 C 868.59644 824 863 818.40356 863 811.5 Z" opacity="0.2"/></g><g transform="translate(-182,-14) scale(1,1)"><path fill="none" stroke="#000000" d="M 856 804.5 C 856 797.59644 861.59644 792 868.5 792 C 875.40356 792 881 797.59644 881 804.5 C 881 811.40356 875.40356 817 868.5 817 C 861.59644 817 856 811.40356 856 804.5 Z" stroke-miterlimit="10"/></g><g transform="translate(-182,-14) scale(1,1)"><path fill="#000000" stroke="none" d="M 861 804.5 C 861 800.357864 864.357864 797 868.5 797 C 872.642136 797 876 800.357864 876 804.5 C 876 808.642136 872.642136 812 868.5 812 C 864.357864 812 861 808.642136 861 804.5 Z"/></g><g transform="translate(-182,-14) scale(1,1)"><path fill="none" stroke="#000000" d="M 869 736 L 868 791" stroke-miterlimit="10"/></g><g transform="translate(-182,-14) scale(1,1)"><path fill="none" stroke="#000000" d="M 863.9759232321812 780.7624804680675 L 868 791 L 872.3935675130193 780.9155285459009" stroke-miterlimit="10"/></g></g></svg>