<svg version="1.1" xmlns="http://www.w3.org/2000/svg" xmlns:xlink="http://www.w3.org/1999/xlink" width="996.33984375" height="669"><defs/><g><text fill="#eeeeee" stroke="none" font-family="Arial" font-size="24px" font-style="normal" font-weight="normal" text-decoration="none" x="0" y="0">UNREGISTERED</text><text fill="#eeeeee" stroke="none" font-family="Arial" font-size="24px" font-style="normal" font-weight="normal" text-decoration="none" x="0" y="30">UNREGISTERED</text><text fill="#eeeeee" stroke="none" font-family="Arial" font-size="24px" font-style="normal" font-weight="normal" text-decoration="none" x="0" y="60">UNREGISTERED</text><text fill="#eeeeee" stroke="none" font-family="Arial" font-size="24px" font-style="normal" font-weight="normal" text-decoration="none" x="0" y="90">UNREGISTERED</text><text fill="#eeeeee" stroke="none" font-family="Arial" font-size="24px" font-style="normal" font-weight="normal" text-decoration="none" x="0" y="120">UNREGISTERED</text><text fill="#eeeeee" stroke="none" font-family="Arial" font-size="24px" font-style="normal" font-weight="normal" text-decoration="none" x="0" y="150">UNREGISTERED</text><text fill="#eeeeee" stroke="none" font-family="Arial" font-size="24px" font-style="normal" font-weight="normal" text-decoration="none" x="0" y="180">UNREGISTERED</text><text fill="#eeeeee" stroke="none" font-family="Arial" font-size="24px" font-style="normal" font-weight="normal" text-decoration="none" x="0" y="210">UNREGISTERED</text><text fill="#eeeeee" stroke="none" font-family="Arial" font-size="24px" font-style="normal" font-weight="normal" text-decoration="none" x="0" y="240">UNREGISTERED</text><text fill="#eeeeee" stroke="none" font-family="Arial" font-size="24px" font-style="normal" font-weight="normal" text-decoration="none" x="0" y="270">UNREGISTERED</text><text fill="#eeeeee" stroke="none" font-family="Arial" font-size="24px" font-style="normal" font-weight="normal" text-decoration="none" x="0" y="300">UNREGISTERED</text><text fill="#eeeeee" stroke="none" font-family="Arial" font-size="24px" font-style="normal" font-weight="normal" text-decoration="none" x="0" y="330">UNREGISTERED</text><text fill="#eeeeee" stroke="none" font-family="Arial" font-size="24px" font-style="normal" font-weight="normal" text-decoration="none" x="0" y="360">UNREGISTERED</text><text fill="#eeeeee" stroke="none" font-family="Arial" font-size="24px" font-style="normal" font-weight="normal" text-decoration="none" x="0" y="390">UNREGISTERED</text><text fill="#eeeeee" stroke="none" font-family="Arial" font-size="24px" font-style="normal" font-weight="normal" text-decoration="none" x="0" y="420">UNREGISTERED</text><text fill="#eeeeee" stroke="none" font-family="Arial" font-size="24px" font-style="normal" font-weight="normal" text-decoration="none" x="0" y="450">UNREGISTERED</text><text fill="#eeeeee" stroke="none" font-family="Arial" font-size="24px" font-style="normal" font-weight="normal" text-decoration="none" x="0" y="480">UNREGISTERED</text><text fill="#eeeeee" stroke="none" font-family="Arial" font-size="24px" font-style="normal" font-weight="normal" text-decoration="none" x="0" y="510">UNREGISTERED</text><text fill="#eeeeee" stroke="none" font-family="Arial" font-size="24px" font-style="normal" font-weight="normal" text-decoration="none" x="0" y="540">UNREGISTERED</text><text fill="#eeeeee" stroke="none" font-family="Arial" font-size="24px" font-style="normal" font-weight="normal" text-decoration="none" x="0" y="570">UNREGISTERED</text><text fill="#eeeeee" stroke="none" font-family="Arial" font-size="24px" font-style="normal" font-weight="normal" text-decoration="none" x="0" y="600">UNREGISTERED</text><text fill="#eeeeee" stroke="none" font-family="Arial" font-size="24px" font-style="normal" font-weight="normal" text-decoration="none" x="0" y="630">UNREGISTERED</text><text fill="#eeeeee" stroke="none" font-family="Arial" font-size="24px" font-style="normal" font-weight="normal" text-decoration="none" x="0" y="660">UNREGISTERED</text><text fill="#eeeeee" stroke="none" font-family="Arial" font-size="24px" font-style="normal" font-weight="normal" text-decoration="none" x="200" y="0">UNREGISTERED</text><text fill="#eeeeee" stroke="none" font-family="Arial" font-size="24px" font-style="normal" font-weight="normal" text-decoration="none" x="200" y="30">UNREGISTERED</text><text fill="#eeeeee" stroke="none" font-family="Arial" font-size="24px" font-style="normal" font-weight="normal" text-decoration="none" x="200" y="60">UNREGISTERED</text><text fill="#eeeeee" stroke="none" font-family="Arial" font-size="24px" font-style="normal" font-weight="normal" text-decoration="none" x="200" y="90">UNREGISTERED</text><text fill="#eeeeee" stroke="none" font-family="Arial" font-size="24px" font-style="normal" font-weight="normal" text-decoration="none" x="200" y="120">UNREGISTERED</text><text fill="#eeeeee" stroke="none" font-family="Arial" font-size="24px" font-style="normal" font-weight="normal" text-decoration="none" x="200" y="150">UNREGISTERED</text><text fill="#eeeeee" stroke="none" font-family="Arial" font-size="24px" font-style="normal" font-weight="normal" text-decoration="none" x="200" y="180">UNREGISTERED</text><text fill="#eeeeee" stroke="none" font-family="Arial" font-size="24px" font-style="normal" font-weight="normal" text-decoration="none" x="200" y="210">UNREGISTERED</text><text fill="#eeeeee" stroke="none" font-family="Arial" font-size="24px" font-style="normal" font-weight="normal" text-decoration="none" x="200" y="240">UNREGISTERED</text><text fill="#eeeeee" stroke="none" font-family="Arial" font-size="24px" font-style="normal" font-weight="normal" text-decoration="none" x="200" y="270">UNREGISTERED</text><text fill="#eeeeee" stroke="none" font-family="Arial" font-size="24px" font-style="normal" font-weight="normal" text-decoration="none" x="200" y="300">UNREGISTERED</text><text fill="#eeeeee" stroke="none" font-family="Arial" font-size="24px" font-style="normal" font-weight="normal" text-decoration="none" x="200" y="330">UNREGISTERED</text><text fill="#eeeeee" stroke="none" font-family="Arial" font-size="24px" font-style="normal" font-weight="normal" text-decoration="none" x="200" y="360">UNREGISTERED</text><text fill="#eeeeee" stroke="none" font-family="Arial" font-size="24px" font-style="normal" font-weight="normal" text-decoration="none" x="200" y="390">UNREGISTERED</text><text fill="#eeeeee" stroke="none" font-family="Arial" font-size="24px" font-style="normal" font-weight="normal" text-decoration="none" x="200" y="420">UNREGISTERED</text><text fill="#eeeeee" stroke="none" font-family="Arial" font-size="24px" font-style="normal" font-weight="normal" text-decoration="none" x="200" y="450">UNREGISTERED</text><text fill="#eeeeee" stroke="none" font-family="Arial" font-size="24px" font-style="normal" font-weight="normal" text-decoration="none" x="200" y="480">UNREGISTERED</text><text fill="#eeeeee" stroke="none" font-family="Arial" font-size="24px" font-style="normal" font-weight="normal" text-decoration="none" x="200" y="510">UNREGISTERED</text><text fill="#eeeeee" stroke="none" font-family="Arial" font-size="24px" font-style="normal" font-weight="normal" text-decoration="none" x="200" y="540">UNREGISTERED</text><text fill="#eeeeee" stroke="none" font-family="Arial" font-size="24px" font-style="normal" font-weight="normal" text-decoration="none" x="200" y="570">UNREGISTERED</text><text fill="#eeeeee" stroke="none" font-family="Arial" font-size="24px" font-style="normal" font-weight="normal" text-decoration="none" x="200" y="600">UNREGISTERED</text><text fill="#eeeeee" stroke="none" font-family="Arial" font-size="24px" font-style="normal" font-weight="normal" text-decoration="none" x="200" y="630">UNREGISTERED</text><text fill="#eeeeee" stroke="none" font-family="Arial" font-size="24px" font-style="normal" font-weight="normal" text-decoration="none" x="200" y="660">UNREGISTERED</text><text fill="#eeeeee" stroke="none" font-family="Arial" font-size="24px" font-style="normal" font-weight="normal" text-decoration="none" x="400" y="0">UNREGISTERED</text><text fill="#eeeeee" stroke="none" font-family="Arial" font-size="24px" font-style="normal" font-weight="normal" text-decoration="none" x="400" y="30">UNREGISTERED</text><text fill="#eeeeee" stroke="none" font-family="Arial" font-size="24px" font-style="normal" font-weight="normal" text-decoration="none" x="400" y="60">UNREGISTERED</text><text fill="#eeeeee" stroke="none" font-family="Arial" font-size="24px" font-style="normal" font-weight="normal" text-decoration="none" x="400" y="90">UNREGISTERED</text><text fill="#eeeeee" stroke="none" font-family="Arial" font-size="24px" font-style="normal" font-weight="normal" text-decoration="none" x="400" y="120">UNREGISTERED</text><text fill="#eeeeee" stroke="none" font-family="Arial" font-size="24px" font-style="normal" font-weight="normal" text-decoration="none" x="400" y="150">UNREGISTERED</text><text fill="#eeeeee" stroke="none" font-family="Arial" font-size="24px" font-style="normal" font-weight="normal" text-decoration="none" x="400" y="180">UNREGISTERED</text><text fill="#eeeeee" stroke="none" font-family="Arial" font-size="24px" font-style="normal" font-weight="normal" text-decoration="none" x="400" y="210">UNREGISTERED</text><text fill="#eeeeee" stroke="none" font-family="Arial" font-size="24px" font-style="normal" font-weight="normal" text-decoration="none" x="400" y="240">UNREGISTERED</text><text fill="#eeeeee" stroke="none" font-family="Arial" font-size="24px" font-style="normal" font-weight="normal" text-decoration="none" x="400" y="270">UNREGISTERED</text><text fill="#eeeeee" stroke="none" font-family="Arial" font-size="24px" font-style="normal" font-weight="normal" text-decoration="none" x="400" y="300">UNREGISTERED</text><text fill="#eeeeee" stroke="none" font-family="Arial" font-size="24px" font-style="normal" font-weight="normal" text-decoration="none" x="400" y="330">UNREGISTERED</text><text fill="#eeeeee" stroke="none" font-family="Arial" font-size="24px" font-style="normal" font-weight="normal" text-decoration="none" x="400" y="360">UNREGISTERED</text><text fill="#eeeeee" stroke="none" font-family="Arial" font-size="24px" font-style="normal" font-weight="normal" text-decoration="none" x="400" y="390">UNREGISTERED</text><text fill="#eeeeee" stroke="none" font-family="Arial" font-size="24px" font-style="normal" font-weight="normal" text-decoration="none" x="400" y="420">UNREGISTERED</text><text fill="#eeeeee" stroke="none" font-family="Arial" font-size="24px" font-style="normal" font-weight="normal" text-decoration="none" x="400" y="450">UNREGISTERED</text><text fill="#eeeeee" stroke="none" font-family="Arial" font-size="24px" font-style="normal" font-weight="normal" text-decoration="none" x="400" y="480">UNREGISTERED</text><text fill="#eeeeee" stroke="none" font-family="Arial" font-size="24px" font-style="normal" font-weight="normal" text-decoration="none" x="400" y="510">UNREGISTERED</text><text fill="#eeeeee" stroke="none" font-family="Arial" font-size="24px" font-style="normal" font-weight="normal" text-decoration="none" x="400" y="540">UNREGISTERED</text><text fill="#eeeeee" stroke="none" font-family="Arial" font-size="24px" font-style="normal" font-weight="normal" text-decoration="none" x="400" y="570">UNREGISTERED</text><text fill="#eeeeee" stroke="none" font-family="Arial" font-size="24px" font-style="normal" font-weight="normal" text-decoration="none" x="400" y="600">UNREGISTERED</text><text fill="#eeeeee" stroke="none" font-family="Arial" font-size="24px" font-style="normal" font-weight="normal" text-decoration="none" x="400" y="630">UNREGISTERED</text><text fill="#eeeeee" stroke="none" font-family="Arial" font-size="24px" font-style="normal" font-weight="normal" text-decoration="none" x="400" y="660">UNREGISTERED</text><text fill="#eeeeee" stroke="none" font-family="Arial" font-size="24px" font-style="normal" font-weight="normal" text-decoration="none" x="600" y="0">UNREGISTERED</text><text fill="#eeeeee" stroke="none" font-family="Arial" font-size="24px" font-style="normal" font-weight="normal" text-decoration="none" x="600" y="30">UNREGISTERED</text><text fill="#eeeeee" stroke="none" font-family="Arial" font-size="24px" font-style="normal" font-weight="normal" text-decoration="none" x="600" y="60">UNREGISTERED</text><text fill="#eeeeee" stroke="none" font-family="Arial" font-size="24px" font-style="normal" font-weight="normal" text-decoration="none" x="600" y="90">UNREGISTERED</text><text fill="#eeeeee" stroke="none" font-family="Arial" font-size="24px" font-style="normal" font-weight="normal" text-decoration="none" x="600" y="120">UNREGISTERED</text><text fill="#eeeeee" stroke="none" font-family="Arial" font-size="24px" font-style="normal" font-weight="normal" text-decoration="none" x="600" y="150">UNREGISTERED</text><text fill="#eeeeee" stroke="none" font-family="Arial" font-size="24px" font-style="normal" font-weight="normal" text-decoration="none" x="600" y="180">UNREGISTERED</text><text fill="#eeeeee" stroke="none" font-family="Arial" font-size="24px" font-style="normal" font-weight="normal" text-decoration="none" x="600" y="210">UNREGISTERED</text><text fill="#eeeeee" stroke="none" font-family="Arial" font-size="24px" font-style="normal" font-weight="normal" text-decoration="none" x="600" y="240">UNREGISTERED</text><text fill="#eeeeee" stroke="none" font-family="Arial" font-size="24px" font-style="normal" font-weight="normal" text-decoration="none" x="600" y="270">UNREGISTERED</text><text fill="#eeeeee" stroke="none" font-family="Arial" font-size="24px" font-style="normal" font-weight="normal" text-decoration="none" x="600" y="300">UNREGISTERED</text><text fill="#eeeeee" stroke="none" font-family="Arial" font-size="24px" font-style="normal" font-weight="normal" text-decoration="none" x="600" y="330">UNREGISTERED</text><text fill="#eeeeee" stroke="none" font-family="Arial" font-size="24px" font-style="normal" font-weight="normal" text-decoration="none" x="600" y="360">UNREGISTERED</text><text fill="#eeeeee" stroke="none" font-family="Arial" font-size="24px" font-style="normal" font-weight="normal" text-decoration="none" x="600" y="390">UNREGISTERED</text><text fill="#eeeeee" stroke="none" font-family="Arial" font-size="24px" font-style="normal" font-weight="normal" text-decoration="none" x="600" y="420">UNREGISTERED</text><text fill="#eeeeee" stroke="none" font-family="Arial" font-size="24px" font-style="normal" font-weight="normal" text-decoration="none" x="600" y="450">UNREGISTERED</text><text fill="#eeeeee" stroke="none" font-family="Arial" font-size="24px" font-style="normal" font-weight="normal" text-decoration="none" x="600" y="480">UNREGISTERED</text><text fill="#eeeeee" stroke="none" font-family="Arial" font-size="24px" font-style="normal" font-weight="normal" text-decoration="none" x="600" y="510">UNREGISTERED</text><text fill="#eeeeee" stroke="none" font-family="Arial" font-size="24px" font-style="normal" font-weight="normal" text-decoration="none" x="600" y="540">UNREGISTERED</text><text fill="#eeeeee" stroke="none" font-family="Arial" font-size="24px" font-style="normal" font-weight="normal" text-decoration="none" x="600" y="570">UNREGISTERED</text><text fill="#eeeeee" stroke="none" font-family="Arial" font-size="24px" font-style="normal" font-weight="normal" text-decoration="none" x="600" y="600">UNREGISTERED</text><text fill="#eeeeee" stroke="none" font-family="Arial" font-size="24px" font-style="normal" font-weight="normal" text-decoration="none" x="600" y="630">UNREGISTERED</text><text fill="#eeeeee" stroke="none" font-family="Arial" font-size="24px" font-style="normal" font-weight="normal" text-decoration="none" x="600" y="660">UNREGISTERED</text><text fill="#eeeeee" stroke="none" font-family="Arial" font-size="24px" font-style="normal" font-weight="normal" text-decoration="none" x="800" y="0">UNREGISTERED</text><text fill="#eeeeee" stroke="none" font-family="Arial" font-size="24px" font-style="normal" font-weight="normal" text-decoration="none" x="800" y="30">UNREGISTERED</text><text fill="#eeeeee" stroke="none" font-family="Arial" font-size="24px" font-style="normal" font-weight="normal" text-decoration="none" x="800" y="60">UNREGISTERED</text><text fill="#eeeeee" stroke="none" font-family="Arial" font-size="24px" font-style="normal" font-weight="normal" text-decoration="none" x="800" y="90">UNREGISTERED</text><text fill="#eeeeee" stroke="none" font-family="Arial" font-size="24px" font-style="normal" font-weight="normal" text-decoration="none" x="800" y="120">UNREGISTERED</text><text fill="#eeeeee" stroke="none" font-family="Arial" font-size="24px" font-style="normal" font-weight="normal" text-decoration="none" x="800" y="150">UNREGISTERED</text><text fill="#eeeeee" stroke="none" font-family="Arial" font-size="24px" font-style="normal" font-weight="normal" text-decoration="none" x="800" y="180">UNREGISTERED</text><text fill="#eeeeee" stroke="none" font-family="Arial" font-size="24px" font-style="normal" font-weight="normal" text-decoration="none" x="800" y="210">UNREGISTERED</text><text fill="#eeeeee" stroke="none" font-family="Arial" font-size="24px" font-style="normal" font-weight="normal" text-decoration="none" x="800" y="240">UNREGISTERED</text><text fill="#eeeeee" stroke="none" font-family="Arial" font-size="24px" font-style="normal" font-weight="normal" text-decoration="none" x="800" y="270">UNREGISTERED</text><text fill="#eeeeee" stroke="none" font-family="Arial" font-size="24px" font-style="normal" font-weight="normal" text-decoration="none" x="800" y="300">UNREGISTERED</text><text fill="#eeeeee" stroke="none" font-family="Arial" font-size="24px" font-style="normal" font-weight="normal" text-decoration="none" x="800" y="330">UNREGISTERED</text><text fill="#eeeeee" stroke="none" font-family="Arial" font-size="24px" font-style="normal" font-weight="normal" text-decoration="none" x="800" y="360">UNREGISTERED</text><text fill="#eeeeee" stroke="none" font-family="Arial" font-size="24px" font-style="normal" font-weight="normal" text-decoration="none" x="800" y="390">UNREGISTERED</text><text fill="#eeeeee" stroke="none" font-family="Arial" font-size="24px" font-style="normal" font-weight="normal" text-decoration="none" x="800" y="420">UNREGISTERED</text><text fill="#eeeeee" stroke="none" font-family="Arial" font-size="24px" font-style="normal" font-weight="normal" text-decoration="none" x="800" y="450">UNREGISTERED</text><text fill="#eeeeee" stroke="none" font-family="Arial" font-size="24px" font-style="normal" font-weight="normal" text-decoration="none" x="800" y="480">UNREGISTERED</text><text fill="#eeeeee" stroke="none" font-family="Arial" font-size="24px" font-style="normal" font-weight="normal" text-decoration="none" x="800" y="510">UNREGISTERED</text><text fill="#eeeeee" stroke="none" font-family="Arial" font-size="24px" font-style="normal" font-weight="normal" text-decoration="none" x="800" y="540">UNREGISTERED</text><text fill="#eeeeee" stroke="none" font-family="Arial" font-size="24px" font-style="normal" font-weight="normal" text-decoration="none" x="800" y="570">UNREGISTERED</text><text fill="#eeeeee" stroke="none" font-family="Arial" font-size="24px" font-style="normal" font-weight="normal" text-decoration="none" x="800" y="600">UNREGISTERED</text><text fill="#eeeeee" stroke="none" font-family="Arial" font-size="24px" font-style="normal" font-weight="normal" text-decoration="none" x="800" y="630">UNREGISTERED</text><text fill="#eeeeee" stroke="none" font-family="Arial" font-size="24px" font-style="normal" font-weight="normal" text-decoration="none" x="800" y="660">UNREGISTERED</text><g transform="translate(-118,-174) scale(1,1)"><path fill="#C0C0C0" stroke="none" d="M 135 240.5 C 135 235.2532944 139.2532944 231 144.5 231 C 149.7467056 231 154 235.2532944 154 240.5 C 154 245.7467056 149.7467056 250 144.5 250 C 139.2532944 250 135 245.7467056 135 240.5 Z" opacity="0.2"/></g><g transform="translate(-118,-174) scale(1,1)"><path fill="#000000" stroke="none" d="M 128 233.5 C 128 228.2532944 132.2532944 224 137.5 224 C 142.7467056 224 147 228.2532944 147 233.5 C 147 238.7467056 142.7467056 243 137.5 243 C 132.2532944 243 128 238.7467056 128 233.5 Z"/></g><g transform="translate(-118,-174) scale(1,1)"><path fill="#C0C0C0" stroke="none" d="M 329 191 L 472.58447265625 191 Q 482.58447265625 191 482.58447265625 201 L 482.58447265625 278 Q 482.58447265625 288 472.58447265625 288 L 329 288 Q 319 288 319 278 L 319 201 Q 319 191 329 191 Z" opacity="0.2"/></g><g transform="translate(-118,-174) scale(1,1)"><path fill="#ffffff" stroke="none" d="M 322 184 L 465.58447265625 184 Q 475.58447265625 184 475.58447265625 194 L 475.58447265625 271 Q 475.58447265625 281 465.58447265625 281 L 322 281 Q 312 281 312 271 L 312 194 Q 312 184 322 184 Z"/></g><g transform="translate(-118,-174) scale(1,1)"><path fill="none" stroke="#000000" d="M 322 184 L 465.58447265625 184 Q 475.58447265625 184 475.58447265625 194 L 475.58447265625 271 Q 475.58447265625 281 465.58447265625 281 L 322 281 Q 312 281 312 271 L 312 194 Q 312 184 322 184 Z" stroke-miterlimit="10"/></g><g transform="translate(-118,-174) scale(1,1)"><path fill="none" stroke="#000000" d="M 312 209 L 475.58447265625 209" stroke-miterlimit="10"/></g><g transform="translate(-118,-174) scale(1,1)"><path fill="none" stroke="#000000" d="M 312 232 L 475.58447265625 232" stroke-miterlimit="10"/></g><g transform="translate(-118,-174) scale(1,1)"><g><path fill="none" stroke="none"/><text fill="#000000" stroke="none" font-family="Arial" font-size="13px" font-style="normal" font-weight="bold" text-decoration="none" x="316.5" y="202">Cadastrando Fornecedor</text></g></g><g transform="translate(-118,-174) scale(1,1)"><g><path fill="none" stroke="none"/><text fill="#000000" stroke="none" font-family="Arial" font-size="13px" font-style="normal" font-weight="normal" text-decoration="none" x="317" y="225">do/Cadastrar()</text></g></g><g transform="translate(-118,-174) scale(1,1)"><path fill="none" stroke="#000000" d="M 148 233 L 311 232" stroke-miterlimit="10"/></g><g transform="translate(-118,-174) scale(1,1)"><path fill="none" stroke="#000000" d="M 300.86334116390316 236.27178506488562 L 311 232 L 300.81169161126934 227.85290798557344" stroke-miterlimit="10"/></g><g transform="translate(-118,-174) scale(1,1)"><g><path fill="none" stroke="none"/><text fill="#000000" stroke="none" font-family="Arial" font-size="13px" font-style="normal" font-weight="normal" text-decoration="none" x="165.5" y="222">Cadastrar Fornecedor</text></g></g><g transform="translate(-118,-174) scale(1,1)"><path fill="#C0C0C0" stroke="none" d="M 649 191 L 780 191 Q 790 191 790 201 L 790 278 Q 790 288 780 288 L 649 288 Q 639 288 639 278 L 639 201 Q 639 191 649 191 Z" opacity="0.2"/></g><g transform="translate(-118,-174) scale(1,1)"><path fill="#ffffff" stroke="none" d="M 642 184 L 773 184 Q 783 184 783 194 L 783 271 Q 783 281 773 281 L 642 281 Q 632 281 632 271 L 632 194 Q 632 184 642 184 Z"/></g><g transform="translate(-118,-174) scale(1,1)"><path fill="none" stroke="#000000" d="M 642 184 L 773 184 Q 783 184 783 194 L 783 271 Q 783 281 773 281 L 642 281 Q 632 281 632 271 L 632 194 Q 632 184 642 184 Z" stroke-miterlimit="10"/></g><g transform="translate(-118,-174) scale(1,1)"><path fill="none" stroke="#000000" d="M 632 209 L 783 209" stroke-miterlimit="10"/></g><g transform="translate(-118,-174) scale(1,1)"><path fill="none" stroke="#000000" d="M 632 232 L 783 232" stroke-miterlimit="10"/></g><g transform="translate(-118,-174) scale(1,1)"><g><path fill="none" stroke="none"/><text fill="#000000" stroke="none" font-family="Arial" font-size="13px" font-style="normal" font-weight="bold" text-decoration="none" x="641.052734375" y="202">Cadastrando Produto</text></g></g><g transform="translate(-118,-174) scale(1,1)"><g><path fill="none" stroke="none"/><text fill="#000000" stroke="none" font-family="Arial" font-size="13px" font-style="normal" font-weight="normal" text-decoration="none" x="637" y="225">do/CadastrarProduto()</text></g></g><g transform="translate(-118,-174) scale(1,1)"><path fill="none" stroke="#000000" d="M 477 232 L 631 232" stroke-miterlimit="10"/></g><g transform="translate(-118,-174) scale(1,1)"><path fill="none" stroke="#000000" d="M 620.8373251423759 236.209517756016 L 631 232 L 620.8373251423758 227.790482243984" stroke-miterlimit="10"/></g><g transform="translate(-118,-174) scale(1,1)"><g><path fill="none" stroke="none"/><text fill="#000000" stroke="none" font-family="Arial" font-size="13px" font-style="normal" font-weight="normal" text-decoration="none" x="485.5" y="222">Fornecedor Cadastrado</text></g></g><g transform="translate(-118,-174) scale(1,1)"><path fill="#C0C0C0" stroke="none" d="M 937 199 L 1093 199 Q 1103 199 1103 209 L 1103 277 Q 1103 287 1093 287 L 937 287 Q 927 287 927 277 L 927 209 Q 927 199 937 199 Z" opacity="0.2"/></g><g transform="translate(-118,-174) scale(1,1)"><path fill="#ffffff" stroke="none" d="M 930 192 L 1086 192 Q 1096 192 1096 202 L 1096 270 Q 1096 280 1086 280 L 930 280 Q 920 280 920 270 L 920 202 Q 920 192 930 192 Z"/></g><g transform="translate(-118,-174) scale(1,1)"><path fill="none" stroke="#000000" d="M 930 192 L 1086 192 Q 1096 192 1096 202 L 1096 270 Q 1096 280 1086 280 L 930 280 Q 920 280 920 270 L 920 202 Q 920 192 930 192 Z" stroke-miterlimit="10"/></g><g transform="translate(-118,-174) scale(1,1)"><path fill="none" stroke="#000000" d="M 920 217 L 1096 217" stroke-miterlimit="10"/></g><g transform="translate(-118,-174) scale(1,1)"><g><path fill="none" stroke="none"/><text fill="#000000" stroke="none" font-family="Arial" font-size="13px" font-style="normal" font-weight="bold" text-decoration="none" x="948.760498046875" y="210">Preparado Pedidos</text></g></g><g transform="translate(-118,-174) scale(1,1)"><path fill="none" stroke="#000000" d="M 784 233 L 919 235" stroke-miterlimit="10"/></g><g transform="translate(-118,-174) scale(1,1)"><path fill="none" stroke="#000000" d="M 908.7760838209158 239.05851425561875 L 919 235 L 908.9007965877964 230.64040249117699" stroke-miterlimit="10"/></g><g transform="translate(-118,-174) scale(1,1)"><g><path fill="none" stroke="none"/><text fill="#000000" stroke="none" font-family="Arial" font-size="13px" font-style="normal" font-weight="normal" text-decoration="none" x="786.5" y="224">Produtos Cadastrados</text></g></g><g transform="translate(-118,-174) scale(1,1)"><path fill="#C0C0C0" stroke="none" d="M 937 391 L 1092 391 Q 1102 391 1102 401 L 1102 478 Q 1102 488 1092 488 L 937 488 Q 927 488 927 478 L 927 401 Q 927 391 937 391 Z" opacity="0.2"/></g><g transform="translate(-118,-174) scale(1,1)"><path fill="#ffffff" stroke="none" d="M 930 384 L 1085 384 Q 1095 384 1095 394 L 1095 471 Q 1095 481 1085 481 L 930 481 Q 920 481 920 471 L 920 394 Q 920 384 930 384 Z"/></g><g transform="translate(-118,-174) scale(1,1)"><path fill="none" stroke="#000000" d="M 930 384 L 1085 384 Q 1095 384 1095 394 L 1095 471 Q 1095 481 1085 481 L 930 481 Q 920 481 920 471 L 920 394 Q 920 384 930 384 Z" stroke-miterlimit="10"/></g><g transform="translate(-118,-174) scale(1,1)"><path fill="none" stroke="#000000" d="M 920 409 L 1095 409" stroke-miterlimit="10"/></g><g transform="translate(-118,-174) scale(1,1)"><path fill="none" stroke="#000000" d="M 920 432 L 1095 432" stroke-miterlimit="10"/></g><g transform="translate(-118,-174) scale(1,1)"><g><path fill="none" stroke="none"/><text fill="#000000" stroke="none" font-family="Arial" font-size="13px" font-style="normal" font-weight="bold" text-decoration="none" x="954.773193359375" y="402">Enviando Pedido</text></g></g><g transform="translate(-118,-174) scale(1,1)"><g><path fill="none" stroke="none"/><text fill="#000000" stroke="none" font-family="Arial" font-size="13px" font-style="normal" font-weight="normal" text-decoration="none" x="925" y="425">do/EnviarPedido()</text></g></g><g transform="translate(-118,-174) scale(1,1)"><path fill="none" stroke="#000000" d="M 1008 281 L 1007 383" stroke-miterlimit="10"/></g><g transform="translate(-118,-174) scale(1,1)"><path fill="none" stroke="#000000" d="M 1002.8903138115732 372.79654571075787 L 1007 383 L 1011.3089447470649 372.87908130816464" stroke-miterlimit="10"/></g><g transform="translate(-118,-174) scale(1,1)"><g><path fill="none" stroke="none"/><text fill="#000000" stroke="none" font-family="Arial" font-size="13px" font-style="normal" font-weight="normal" text-decoration="none" x="1014.5" y="323">Prepara Pedido</text></g></g><g transform="translate(-118,-174) scale(1,1)"><path fill="#C0C0C0" stroke="none" d="M 999 827.5 C 999 820.59644 1004.59644 815 1011.5 815 C 1018.40356 815 1024 820.59644 1024 827.5 C 1024 834.40356 1018.40356 840 1011.5 840 C 1004.59644 840 999 834.40356 999 827.5 Z" opacity="0.2"/></g><g transform="translate(-118,-174) scale(1,1)"><path fill="none" stroke="#000000" d="M 992 820.5 C 992 813.59644 997.59644 808 1004.5 808 C 1011.40356 808 1017 813.59644 1017 820.5 C 1017 827.40356 1011.40356 833 1004.5 833 C 997.59644 833 992 827.40356 992 820.5 Z" stroke-miterlimit="10"/></g><g transform="translate(-118,-174) scale(1,1)"><path fill="#000000" stroke="none" d="M 997 820.5 C 997 816.357864 1000.357864 813 1004.5 813 C 1008.642136 813 1012 816.357864 1012 820.5 C 1012 824.642136 1008.642136 828 1004.5 828 C 1000.357864 828 997 824.642136 997 820.5 Z"/></g><g transform="translate(-118,-174) scale(1,1)"><path fill="#C0C0C0" stroke="none" d="M 1007 582 C 1007 578.1340064 1010.1340064 575 1014 575 C 1017.8659936 575 1021 578.1340064 1021 582 C 1021 585.8659936 1017.8659936 589 1014 589 C 1010.1340064 589 1007 585.8659936 1007 582 Z" opacity="0.2"/></g><g transform="translate(-118,-174) scale(1,1)"><path fill="#ffffff" stroke="none" d="M 1000 575 C 1000 571.1340064 1003.1340064 568 1007 568 C 1010.8659936 568 1014 571.1340064 1014 575 C 1014 578.8659936 1010.8659936 582 1007 582 C 1003.1340064 582 1000 578.8659936 1000 575 Z"/></g><g transform="translate(-118,-174) scale(1,1)"><path fill="none" stroke="#000000" d="M 1000 575 C 1000 571.1340064 1003.1340064 568 1007 568 C 1010.8659936 568 1014 571.1340064 1014 575 C 1014 578.8659936 1010.8659936 582 1007 582 C 1003.1340064 582 1000 578.8659936 1000 575 Z" stroke-miterlimit="10"/></g><g transform="translate(-118,-174) scale(1,1)"><path fill="none" stroke="#000000" d="M 1007 482 L 1007 567" stroke-miterlimit="10"/></g><g transform="translate(-118,-174) scale(1,1)"><path fill="none" stroke="#000000" d="M 1002.790482243984 556.8373251423759 L 1007 567 L 1011.209517756016 556.8373251423759" stroke-miterlimit="10"/></g><g transform="translate(-118,-174) scale(1,1)"><g><path fill="none" stroke="none"/><text fill="#000000" stroke="none" font-family="Arial" font-size="13px" font-style="normal" font-weight="normal" text-decoration="none" x="1013.5" y="531">Envia Pedido</text></g></g><g transform="translate(-118,-174) scale(1,1)"><path fill="#C0C0C0" stroke="none" d="M 689 535 L 797.88818359375 535 Q 807.88818359375 535 807.88818359375 545 L 807.88818359375 622 Q 807.88818359375 632 797.88818359375 632 L 689 632 Q 679 632 679 622 L 679 545 Q 679 535 689 535 Z" opacity="0.2"/></g><g transform="translate(-118,-174) scale(1,1)"><path fill="#ffffff" stroke="none" d="M 682 528 L 790.88818359375 528 Q 800.88818359375 528 800.88818359375 538 L 800.88818359375 615 Q 800.88818359375 625 790.88818359375 625 L 682 625 Q 672 625 672 615 L 672 538 Q 672 528 682 528 Z"/></g><g transform="translate(-118,-174) scale(1,1)"><path fill="none" stroke="#000000" d="M 682 528 L 790.88818359375 528 Q 800.88818359375 528 800.88818359375 538 L 800.88818359375 615 Q 800.88818359375 625 790.88818359375 625 L 682 625 Q 672 625 672 615 L 672 538 Q 672 528 682 528 Z" stroke-miterlimit="10"/></g><g transform="translate(-118,-174) scale(1,1)"><path fill="none" stroke="#000000" d="M 672 553 L 800.88818359375 553" stroke-miterlimit="10"/></g><g transform="translate(-118,-174) scale(1,1)"><path fill="none" stroke="#000000" d="M 672 576 L 800.88818359375 576" stroke-miterlimit="10"/></g><g transform="translate(-118,-174) scale(1,1)"><g><path fill="none" stroke="none"/><text fill="#000000" stroke="none" font-family="Arial" font-size="13px" font-style="normal" font-weight="bold" text-decoration="none" x="676.5" y="546">Acionando Suporte</text></g></g><g transform="translate(-118,-174) scale(1,1)"><g><path fill="none" stroke="none"/><text fill="#000000" stroke="none" font-family="Arial" font-size="13px" font-style="normal" font-weight="normal" text-decoration="none" x="677" y="569">do/AcionarSuporte()</text></g></g><g transform="translate(-118,-174) scale(1,1)"><path fill="none" stroke="#000000" d="M 999 575 L 802 576" stroke-miterlimit="10"/></g><g transform="translate(-118,-174) scale(1,1)"><path fill="none" stroke="#000000" d="M 812.1411760930768 571.7389499593166 L 802 576 L 812.1839117633639 580.1578770058791" stroke-miterlimit="10"/></g><g transform="translate(-118,-174) scale(1,1)"><g><path fill="none" stroke="none"/><text fill="#000000" stroke="none" font-family="Arial" font-size="13px" font-style="normal" font-weight="normal" text-decoration="none" x="814.5" y="594"> [Se ERRO] / Acionar Suporte</text></g></g><g transform="translate(-118,-174) scale(1,1)"><path fill="#C0C0C0" stroke="none" d="M 961 671 L 1068 671 Q 1078 671 1078 681 L 1078 735 Q 1078 745 1068 745 L 961 745 Q 951 745 951 735 L 951 681 Q 951 671 961 671 Z" opacity="0.2"/></g><g transform="translate(-118,-174) scale(1,1)"><path fill="#ffffff" stroke="none" d="M 954 664 L 1061 664 Q 1071 664 1071 674 L 1071 728 Q 1071 738 1061 738 L 954 738 Q 944 738 944 728 L 944 674 Q 944 664 954 664 Z"/></g><g transform="translate(-118,-174) scale(1,1)"><path fill="none" stroke="#000000" d="M 954 664 L 1061 664 Q 1071 664 1071 674 L 1071 728 Q 1071 738 1061 738 L 954 738 Q 944 738 944 728 L 944 674 Q 944 664 954 664 Z" stroke-miterlimit="10"/></g><g transform="translate(-118,-174) scale(1,1)"><path fill="none" stroke="#000000" d="M 944 689 L 1071 689" stroke-miterlimit="10"/></g><g transform="translate(-118,-174) scale(1,1)"><g><path fill="none" stroke="none"/><text fill="#000000" stroke="none" font-family="Arial" font-size="13px" font-style="normal" font-weight="bold" text-decoration="none" x="955.85546875" y="682">Pedido Entregue</text></g></g><g transform="translate(-118,-174) scale(1,1)"><path fill="none" stroke="#000000" d="M 1007 583 L 1007 663" stroke-miterlimit="10"/></g><g transform="translate(-118,-174) scale(1,1)"><path fill="none" stroke="#000000" d="M 1002.790482243984 652.8373251423759 L 1007 663 L 1011.209517756016 652.8373251423759" stroke-miterlimit="10"/></g><g transform="translate(-118,-174) scale(1,1)"><path fill="none" stroke="#000000" d="M 1006 739 L 1004 807" stroke-miterlimit="10"/></g><g transform="translate(-118,-174) scale(1,1)"><path fill="none" stroke="#000000" d="M 1000.0910747917939 796.7179620834851 L 1004 807 L 1008.5064712133113 796.9654737429415" stroke-miterlimit="10"/></g><g transform="translate(-118,-174) scale(1,1)"><g><path fill="none" stroke="none"/><text fill="#000000" stroke="none" font-family="Arial" font-size="13px" font-style="normal" font-weight="normal" text-decoration="none" x="1005.5" y="787">Pedido Entregue</text></g></g></g></svg>