<svg version="1.1" xmlns="http://www.w3.org/2000/svg" xmlns:xlink="http://www.w3.org/1999/xlink" width="711" height="611"><defs/><g><text fill="#eeeeee" stroke="none" font-family="Arial" font-size="24px" font-style="normal" font-weight="normal" text-decoration="none" x="0" y="0">UNREGISTERED</text><text fill="#eeeeee" stroke="none" font-family="Arial" font-size="24px" font-style="normal" font-weight="normal" text-decoration="none" x="0" y="30">UNREGISTERED</text><text fill="#eeeeee" stroke="none" font-family="Arial" font-size="24px" font-style="normal" font-weight="normal" text-decoration="none" x="0" y="60">UNREGISTERED</text><text fill="#eeeeee" stroke="none" font-family="Arial" font-size="24px" font-style="normal" font-weight="normal" text-decoration="none" x="0" y="90">UNREGISTERED</text><text fill="#eeeeee" stroke="none" font-family="Arial" font-size="24px" font-style="normal" font-weight="normal" text-decoration="none" x="0" y="120">UNREGISTERED</text><text fill="#eeeeee" stroke="none" font-family="Arial" font-size="24px" font-style="normal" font-weight="normal" text-decoration="none" x="0" y="150">UNREGISTERED</text><text fill="#eeeeee" stroke="none" font-family="Arial" font-size="24px" font-style="normal" font-weight="normal" text-decoration="none" x="0" y="180">UNREGISTERED</text><text fill="#eeeeee" stroke="none" font-family="Arial" font-size="24px" font-style="normal" font-weight="normal" text-decoration="none" x="0" y="210">UNREGISTERED</text><text fill="#eeeeee" stroke="none" font-family="Arial" font-size="24px" font-style="normal" font-weight="normal" text-decoration="none" x="0" y="240">UNREGISTERED</text><text fill="#eeeeee" stroke="none" font-family="Arial" font-size="24px" font-style="normal" font-weight="normal" text-decoration="none" x="0" y="270">UNREGISTERED</text><text fill="#eeeeee" stroke="none" font-family="Arial" font-size="24px" font-style="normal" font-weight="normal" text-decoration="none" x="0" y="300">UNREGISTERED</text><text fill="#eeeeee" stroke="none" font-family="Arial" font-size="24px" font-style="normal" font-weight="normal" text-decoration="none" x="0" y="330">UNREGISTERED</text><text fill="#eeeeee" stroke="none" font-family="Arial" font-size="24px" font-style="normal" font-weight="normal" text-decoration="none" x="0" y="360">UNREGISTERED</text><text fill="#eeeeee" stroke="none" font-family="Arial" font-size="24px" font-style="normal" font-weight="normal" text-decoration="none" x="0" y="390">UNREGISTERED</text><text fill="#eeeeee" stroke="none" font-family="Arial" font-size="24px" font-style="normal" font-weight="normal" text-decoration="none" x="0" y="420">UNREGISTERED</text><text fill="#eeeeee" stroke="none" font-family="Arial" font-size="24px" font-style="normal" font-weight="normal" text-decoration="none" x="0" y="450">UNREGISTERED</text><text fill="#eeeeee" stroke="none" font-family="Arial" font-size="24px" font-style="normal" font-weight="normal" text-decoration="none" x="0" y="480">UNREGISTERED</text><text fill="#eeeeee" stroke="none" font-family="Arial" font-size="24px" font-style="normal" font-weight="normal" text-decoration="none" x="0" y="510">UNREGISTERED</text><text fill="#eeeeee" stroke="none" font-family="Arial" font-size="24px" font-style="normal" font-weight="normal" text-decoration="none" x="0" y="540">UNREGISTERED</text><text fill="#eeeeee" stroke="none" font-family="Arial" font-size="24px" font-style="normal" font-weight="normal" text-decoration="none" x="0" y="570">UNREGISTERED</text><text fill="#eeeeee" stroke="none" font-family="Arial" font-size="24px" font-style="normal" font-weight="normal" text-decoration="none" x="0" y="600">UNREGISTERED</text><text fill="#eeeeee" stroke="none" font-family="Arial" font-size="24px" font-style="normal" font-weight="normal" text-decoration="none" x="200" y="0">UNREGISTERED</text><text fill="#eeeeee" stroke="none" font-family="Arial" font-size="24px" font-style="normal" font-weight="normal" text-decoration="none" x="200" y="30">UNREGISTERED</text><text fill="#eeeeee" stroke="none" font-family="Arial" font-size="24px" font-style="normal" font-weight="normal" text-decoration="none" x="200" y="60">UNREGISTERED</text><text fill="#eeeeee" stroke="none" font-family="Arial" font-size="24px" font-style="normal" font-weight="normal" text-decoration="none" x="200" y="90">UNREGISTERED</text><text fill="#eeeeee" stroke="none" font-family="Arial" font-size="24px" font-style="normal" font-weight="normal" text-decoration="none" x="200" y="120">UNREGISTERED</text><text fill="#eeeeee" stroke="none" font-family="Arial" font-size="24px" font-style="normal" font-weight="normal" text-decoration="none" x="200" y="150">UNREGISTERED</text><text fill="#eeeeee" stroke="none" font-family="Arial" font-size="24px" font-style="normal" font-weight="normal" text-decoration="none" x="200" y="180">UNREGISTERED</text><text fill="#eeeeee" stroke="none" font-family="Arial" font-size="24px" font-style="normal" font-weight="normal" text-decoration="none" x="200" y="210">UNREGISTERED</text><text fill="#eeeeee" stroke="none" font-family="Arial" font-size="24px" font-style="normal" font-weight="normal" text-decoration="none" x="200" y="240">UNREGISTERED</text><text fill="#eeeeee" stroke="none" font-family="Arial" font-size="24px" font-style="normal" font-weight="normal" text-decoration="none" x="200" y="270">UNREGISTERED</text><text fill="#eeeeee" stroke="none" font-family="Arial" font-size="24px" font-style="normal" font-weight="normal" text-decoration="none" x="200" y="300">UNREGISTERED</text><text fill="#eeeeee" stroke="none" font-family="Arial" font-size="24px" font-style="normal" font-weight="normal" text-decoration="none" x="200" y="330">UNREGISTERED</text><text fill="#eeeeee" stroke="none" font-family="Arial" font-size="24px" font-style="normal" font-weight="normal" text-decoration="none" x="200" y="360">UNREGISTERED</text><text fill="#eeeeee" stroke="none" font-family="Arial" font-size="24px" font-style="normal" font-weight="normal" text-decoration="none" x="200" y="390">UNREGISTERED</text><text fill="#eeeeee" stroke="none" font-family="Arial" font-size="24px" font-style="normal" font-weight="normal" text-decoration="none" x="200" y="420">UNREGISTERED</text><text fill="#eeeeee" stroke="none" font-family="Arial" font-size="24px" font-style="normal" font-weight="normal" text-decoration="none" x="200" y="450">UNREGISTERED</text><text fill="#eeeeee" stroke="none" font-family="Arial" font-size="24px" font-style="normal" font-weight="normal" text-decoration="none" x="200" y="480">UNREGISTERED</text><text fill="#eeeeee" stroke="none" font-family="Arial" font-size="24px" font-style="normal" font-weight="normal" text-decoration="none" x="200" y="510">UNREGISTERED</text><text fill="#eeeeee" stroke="none" font-family="Arial" font-size="24px" font-style="normal" font-weight="normal" text-decoration="none" x="200" y="540">UNREGISTERED</text><text fill="#eeeeee" stroke="none" font-family="Arial" font-size="24px" font-style="normal" font-weight="normal" text-decoration="none" x="200" y="570">UNREGISTERED</text><text fill="#eeeeee" stroke="none" font-family="Arial" font-size="24px" font-style="normal" font-weight="normal" text-decoration="none" x="200" y="600">UNREGISTERED</text><text fill="#eeeeee" stroke="none" font-family="Arial" font-size="24px" font-style="normal" font-weight="normal" text-decoration="none" x="400" y="0">UNREGISTERED</text><text fill="#eeeeee" stroke="none" font-family="Arial" font-size="24px" font-style="normal" font-weight="normal" text-decoration="none" x="400" y="30">UNREGISTERED</text><text fill="#eeeeee" stroke="none" font-family="Arial" font-size="24px" font-style="normal" font-weight="normal" text-decoration="none" x="400" y="60">UNREGISTERED</text><text fill="#eeeeee" stroke="none" font-family="Arial" font-size="24px" font-style="normal" font-weight="normal" text-decoration="none" x="400" y="90">UNREGISTERED</text><text fill="#eeeeee" stroke="none" font-family="Arial" font-size="24px" font-style="normal" font-weight="normal" text-decoration="none" x="400" y="120">UNREGISTERED</text><text fill="#eeeeee" stroke="none" font-family="Arial" font-size="24px" font-style="normal" font-weight="normal" text-decoration="none" x="400" y="150">UNREGISTERED</text><text fill="#eeeeee" stroke="none" font-family="Arial" font-size="24px" font-style="normal" font-weight="normal" text-decoration="none" x="400" y="180">UNREGISTERED</text><text fill="#eeeeee" stroke="none" font-family="Arial" font-size="24px" font-style="normal" font-weight="normal" text-decoration="none" x="400" y="210">UNREGISTERED</text><text fill="#eeeeee" stroke="none" font-family="Arial" font-size="24px" font-style="normal" font-weight="normal" text-decoration="none" x="400" y="240">UNREGISTERED</text><text fill="#eeeeee" stroke="none" font-family="Arial" font-size="24px" font-style="normal" font-weight="normal" text-decoration="none" x="400" y="270">UNREGISTERED</text><text fill="#eeeeee" stroke="none" font-family="Arial" font-size="24px" font-style="normal" font-weight="normal" text-decoration="none" x="400" y="300">UNREGISTERED</text><text fill="#eeeeee" stroke="none" font-family="Arial" font-size="24px" font-style="normal" font-weight="normal" text-decoration="none" x="400" y="330">UNREGISTERED</text><text fill="#eeeeee" stroke="none" font-family="Arial" font-size="24px" font-style="normal" font-weight="normal" text-decoration="none" x="400" y="360">UNREGISTERED</text><text fill="#eeeeee" stroke="none" font-family="Arial" font-size="24px" font-style="normal" font-weight="normal" text-decoration="none" x="400" y="390">UNREGISTERED</text><text fill="#eeeeee" stroke="none" font-family="Arial" font-size="24px" font-style="normal" font-weight="normal" text-decoration="none" x="400" y="420">UNREGISTERED</text><text fill="#eeeeee" stroke="none" font-family="Arial" font-size="24px" font-style="normal" font-weight="normal" text-decoration="none" x="400" y="450">UNREGISTERED</text><text fill="#eeeeee" stroke="none" font-family="Arial" font-size="24px" font-style="normal" font-weight="normal" text-decoration="none" x="400" y="480">UNREGISTERED</text><text fill="#eeeeee" stroke="none" font-family="Arial" font-size="24px" font-style="normal" font-weight="normal" text-decoration="none" x="400" y="510">UNREGISTERED</text><text fill="#eeeeee" stroke="none" font-family="Arial" font-size="24px" font-style="normal" font-weight="normal" text-decoration="none" x="400" y="540">UNREGISTERED</text><text fill="#eeeeee" stroke="none" font-family="Arial" font-size="24px" font-style="normal" font-weight="normal" text-decoration="none" x="400" y="570">UNREGISTERED</text><text fill="#eeeeee" stroke="none" font-family="Arial" font-size="24px" font-style="normal" font-weight="normal" text-decoration="none" x="400" y="600">UNREGISTERED</text><text fill="#eeeeee" stroke="none" font-family="Arial" font-size="24px" font-style="normal" font-weight="normal" text-decoration="none" x="600" y="0">UNREGISTERED</text><text fill="#eeeeee" stroke="none" font-family="Arial" font-size="24px" font-style="normal" font-weight="normal" text-decoration="none" x="600" y="30">UNREGISTERED</text><text fill="#eeeeee" stroke="none" font-family="Arial" font-size="24px" font-style="normal" font-weight="normal" text-decoration="none" x="600" y="60">UNREGISTERED</text><text fill="#eeeeee" stroke="none" font-family="Arial" font-size="24px" font-style="normal" font-weight="normal" text-decoration="none" x="600" y="90">UNREGISTERED</text><text fill="#eeeeee" stroke="none" font-family="Arial" font-size="24px" font-style="normal" font-weight="normal" text-decoration="none" x="600" y="120">UNREGISTERED</text><text fill="#eeeeee" stroke="none" font-family="Arial" font-size="24px" font-style="normal" font-weight="normal" text-decoration="none" x="600" y="150">UNREGISTERED</text><text fill="#eeeeee" stroke="none" font-family="Arial" font-size="24px" font-style="normal" font-weight="normal" text-decoration="none" x="600" y="180">UNREGISTERED</text><text fill="#eeeeee" stroke="none" font-family="Arial" font-size="24px" font-style="normal" font-weight="normal" text-decoration="none" x="600" y="210">UNREGISTERED</text><text fill="#eeeeee" stroke="none" font-family="Arial" font-size="24px" font-style="normal" font-weight="normal" text-decoration="none" x="600" y="240">UNREGISTERED</text><text fill="#eeeeee" stroke="none" font-family="Arial" font-size="24px" font-style="normal" font-weight="normal" text-decoration="none" x="600" y="270">UNREGISTERED</text><text fill="#eeeeee" stroke="none" font-family="Arial" font-size="24px" font-style="normal" font-weight="normal" text-decoration="none" x="600" y="300">UNREGISTERED</text><text fill="#eeeeee" stroke="none" font-family="Arial" font-size="24px" font-style="normal" font-weight="normal" text-decoration="none" x="600" y="330">UNREGISTERED</text><text fill="#eeeeee" stroke="none" font-family="Arial" font-size="24px" font-style="normal" font-weight="normal" text-decoration="none" x="600" y="360">UNREGISTERED</text><text fill="#eeeeee" stroke="none" font-family="Arial" font-size="24px" font-style="normal" font-weight="normal" text-decoration="none" x="600" y="390">UNREGISTERED</text><text fill="#eeeeee" stroke="none" font-family="Arial" font-size="24px" font-style="normal" font-weight="normal" text-decoration="none" x="600" y="420">UNREGISTERED</text><text fill="#eeeeee" stroke="none" font-family="Arial" font-size="24px" font-style="normal" font-weight="normal" text-decoration="none" x="600" y="450">UNREGISTERED</text><text fill="#eeeeee" stroke="none" font-family="Arial" font-size="24px" font-style="normal" font-weight="normal" text-decoration="none" x="600" y="480">UNREGISTERED</text><text fill="#eeeeee" stroke="none" font-family="Arial" font-size="24px" font-style="normal" font-weight="normal" text-decoration="none" x="600" y="510">UNREGISTERED</text><text fill="#eeeeee" stroke="none" font-family="Arial" font-size="24px" font-style="normal" font-weight="normal" text-decoration="none" x="600" y="540">UNREGISTERED</text><text fill="#eeeeee" stroke="none" font-family="Arial" font-size="24px" font-style="normal" font-weight="normal" text-decoration="none" x="600" y="570">UNREGISTERED</text><text fill="#eeeeee" stroke="none" font-family="Arial" font-size="24px" font-style="normal" font-weight="normal" text-decoration="none" x="600" y="600">UNREGISTERED</text><g transform="translate(-326,10) scale(1,1)"><path fill="none" stroke="#000000" d="M 336 0 L 1027 0 L 1027 591 L 336 591 L 336 0" stroke-miterlimit="10"/></g><g transform="translate(-326,10) scale(1,1)"><path fill="#ffffff" stroke="none" d="M 336 0 L 336 22 L 620.7216796875 22 L 631.7216796875 11 L 631.7216796875 0 L 336 0"/></g><g transform="translate(-326,10) scale(1,1)"><path fill="none" stroke="#000000" d="M 336 0 L 336 22 L 620.7216796875 22 L 631.7216796875 11 L 631.7216796875 0 L 336 0 L 336 0" stroke-miterlimit="10"/></g><g transform="translate(-326,10) scale(1,1)"><g><path fill="none" stroke="none"/><text fill="#000000" stroke="none" font-family="Arial" font-size="13px" font-style="normal" font-weight="normal" text-decoration="none" x="360.72998046875" y="16">Diagrama de Sequencia 'Autenticar Usuário'</text></g></g><g transform="translate(-326,10) scale(1,1)"><g><path fill="none" stroke="none"/><text fill="#000000" stroke="none" font-family="Arial" font-size="13px" font-style="normal" font-weight="bold" text-decoration="none" x="340.279541015625" y="16">sd</text></g></g><g transform="translate(-326,10) scale(1,1)"><rect fill="#C0C0C0" stroke="none" x="391" y="47" width="156.9599609375" height="39" opacity="0.2"/></g><g transform="translate(-326,10) scale(1,1)"><rect fill="#ffffff" stroke="none" x="384" y="40" width="156.9599609375" height="39"/></g><g transform="translate(-326,10) scale(1,1)"><path fill="none" stroke="#000000" d="M 384 40 L 540.9599609375 40 L 540.9599609375 79 L 384 79 L 384 40 Z Z" stroke-miterlimit="10"/></g><g transform="translate(-326,10) scale(1,1)"><g><path fill="none" stroke="none"/><text fill="#000000" stroke="none" font-family="Arial" font-size="13px" font-style="normal" font-weight="bold" text-decoration="none" x="393.5" y="58">Cliente ou Fornecedor</text></g></g><g transform="translate(-326,10) scale(1,1)"><path fill="none" stroke="#000000" d="M 463.5 80 L 463.5 346" stroke-miterlimit="10" stroke-dasharray="3"/></g><g transform="translate(-326,10) scale(1,1)"><rect fill="#C0C0C0" stroke="none" x="823" y="47" width="159" height="39" opacity="0.2"/></g><g transform="translate(-326,10) scale(1,1)"><rect fill="#ffffff" stroke="none" x="816" y="40" width="159" height="39"/></g><g transform="translate(-326,10) scale(1,1)"><path fill="none" stroke="#000000" d="M 816 40 L 975 40 L 975 79 L 816 79 L 816 40 Z Z" stroke-miterlimit="10"/></g><g transform="translate(-326,10) scale(1,1)"><g><path fill="none" stroke="none"/><text fill="#000000" stroke="none" font-family="Arial" font-size="13px" font-style="normal" font-weight="bold" text-decoration="none" x="844.57275390625" y="58">Banco de Dados</text></g></g><g transform="translate(-326,10) scale(1,1)"><path fill="none" stroke="#000000" d="M 896.5 80 L 896.5 336" stroke-miterlimit="10" stroke-dasharray="3"/></g><g transform="translate(-326,10) scale(1,1)"><rect fill="#C0C0C0" stroke="none" x="607" y="47" width="159" height="39" opacity="0.2"/></g><g transform="translate(-326,10) scale(1,1)"><rect fill="#ffffff" stroke="none" x="600" y="40" width="159" height="39"/></g><g transform="translate(-326,10) scale(1,1)"><path fill="none" stroke="#000000" d="M 600 40 L 759 40 L 759 79 L 600 79 L 600 40 Z Z" stroke-miterlimit="10"/></g><g transform="translate(-326,10) scale(1,1)"><g><path fill="none" stroke="none"/><text fill="#000000" stroke="none" font-family="Arial" font-size="13px" font-style="normal" font-weight="bold" text-decoration="none" x="665.89697265625" y="58">Web</text></g></g><g transform="translate(-326,10) scale(1,1)"><path fill="none" stroke="#000000" d="M 680.5 80 L 680.5 346" stroke-miterlimit="10" stroke-dasharray="3"/></g><g transform="translate(-326,10) scale(1,1)"><path fill="none" stroke="#000000" d="M 463 105 L 673 105" stroke-miterlimit="10"/></g><g transform="translate(-326,10) scale(1,1)"><path fill="#000000" stroke="none" d="M 662.8373251423759 109.20951775601598 L 673 105 L 662.8373251423758 100.79048224398402"/></g><g transform="translate(-326,10) scale(1,1)"><path fill="none" stroke="#000000" d="M 662.8373251423759 109.20951775601598 L 673 105 L 662.8373251423758 100.79048224398402 L 662.8373251423759 109.20951775601598" stroke-miterlimit="10"/></g><g transform="translate(-326,10) scale(1,1)"><g><path fill="none" stroke="none"/><text fill="#000000" stroke="none" font-family="Arial" font-size="13px" font-style="normal" font-weight="normal" text-decoration="none" x="481.5" y="100">1 : Entra com usuário e senha</text></g></g><g transform="translate(-326,10) scale(1,1)"><rect fill="#ffffff" stroke="none" x="673" y="105" width="13" height="199"/></g><g transform="translate(-326,10) scale(1,1)"><path fill="none" stroke="#000000" d="M 673 105 L 686 105 L 686 304 L 673 304 L 673 105 Z Z" stroke-miterlimit="10"/></g><g transform="translate(-326,10) scale(1,1)"><path fill="none" stroke="#000000" d="M 686 112 L 889 112" stroke-miterlimit="10"/></g><g transform="translate(-326,10) scale(1,1)"><path fill="#000000" stroke="none" d="M 878.8373251423759 116.20951775601598 L 889 112 L 878.8373251423758 107.79048224398402"/></g><g transform="translate(-326,10) scale(1,1)"><path fill="none" stroke="#000000" d="M 878.8373251423759 116.20951775601598 L 889 112 L 878.8373251423758 107.79048224398402 L 878.8373251423759 116.20951775601598" stroke-miterlimit="10"/></g><g transform="translate(-326,10) scale(1,1)"><g><path fill="none" stroke="none"/><text fill="#000000" stroke="none" font-family="Arial" font-size="13px" font-style="normal" font-weight="normal" text-decoration="none" x="737.5" y="107">2 : Verifica dados</text></g></g><g transform="translate(-326,10) scale(1,1)"><rect fill="#ffffff" stroke="none" x="889" y="112" width="13" height="168"/></g><g transform="translate(-326,10) scale(1,1)"><path fill="none" stroke="#000000" d="M 889 112 L 902 112 L 902 280 L 889 280 L 889 112 Z Z" stroke-miterlimit="10"/></g><g transform="translate(-326,10) scale(1,1)"><path fill="none" stroke="#000000" d="M 889 168 L 686 168" stroke-miterlimit="10" stroke-dasharray="3"/></g><g transform="translate(-326,10) scale(1,1)"><path fill="none" stroke="#000000" d="M 696.1626748576241 163.790482243984 L 686 168 L 696.1626748576241 172.209517756016" stroke-miterlimit="10"/></g><g transform="translate(-326,10) scale(1,1)"><g><path fill="none" stroke="none"/><text fill="#000000" stroke="none" font-family="Arial" font-size="13px" font-style="normal" font-weight="normal" text-decoration="none" x="713.5" y="183">3 : Autenticação negativa</text></g></g><g transform="translate(-326,10) scale(1,1)"><path fill="none" stroke="#000000" d="M 673 192 L 463 192" stroke-miterlimit="10" stroke-dasharray="3"/></g><g transform="translate(-326,10) scale(1,1)"><path fill="none" stroke="#000000" d="M 473.16267485762415 187.790482243984 L 463 192 L 473.16267485762415 196.209517756016" stroke-miterlimit="10"/></g><g transform="translate(-326,10) scale(1,1)"><g><path fill="none" stroke="none"/><text fill="#000000" stroke="none" font-family="Arial" font-size="13px" font-style="normal" font-weight="normal" text-decoration="none" x="462.5" y="207">4 : Mensagem de erro ao fazer login</text></g></g><g transform="translate(-326,10) scale(1,1)"><path fill="none" stroke="#000000" d="M 896 288 L 686 288" stroke-miterlimit="10" stroke-dasharray="3"/></g><g transform="translate(-326,10) scale(1,1)"><path fill="none" stroke="#000000" d="M 696.1626748576241 283.790482243984 L 686 288 L 696.1626748576241 292.209517756016" stroke-miterlimit="10"/></g><g transform="translate(-326,10) scale(1,1)"><g><path fill="none" stroke="none"/><text fill="#000000" stroke="none" font-family="Arial" font-size="13px" font-style="normal" font-weight="normal" text-decoration="none" x="718.5" y="303">5 : Autenticação Positiva</text></g></g><g transform="translate(-326,10) scale(1,1)"><path fill="none" stroke="#000000" d="M 680 304 L 463 304" stroke-miterlimit="10" stroke-dasharray="3"/></g><g transform="translate(-326,10) scale(1,1)"><path fill="none" stroke="#000000" d="M 473.16267485762415 299.790482243984 L 463 304 L 473.16267485762415 308.209517756016" stroke-miterlimit="10"/></g><g transform="translate(-326,10) scale(1,1)"><g><path fill="none" stroke="none"/><text fill="#000000" stroke="none" font-family="Arial" font-size="13px" font-style="normal" font-weight="normal" text-decoration="none" x="477.305908203125" y="323">6 : Exibe página com login feito</text></g></g><g transform="translate(-326,10) scale(1,1)"><path fill="none" stroke="#000000" d="M 440 128 L 920 128 L 920 272 L 440 272 L 440 128" stroke-miterlimit="10"/></g><g transform="translate(-326,10) scale(1,1)"><path fill="#ffffff" stroke="none" d="M 440 128 L 440 150 L 607.04248046875 150 L 618.04248046875 139 L 618.04248046875 128 L 440 128"/></g><g transform="translate(-326,10) scale(1,1)"><path fill="none" stroke="#000000" d="M 440 128 L 440 150 L 607.04248046875 150 L 618.04248046875 139 L 618.04248046875 128 L 440 128 L 440 128" stroke-miterlimit="10"/></g><g transform="translate(-326,10) scale(1,1)"><g><path fill="none" stroke="none"/><text fill="#000000" stroke="none" font-family="Arial" font-size="13px" font-style="normal" font-weight="normal" text-decoration="none" x="471.9599609375" y="144">Autenticação Negativa</text></g></g><g transform="translate(-326,10) scale(1,1)"><g><path fill="none" stroke="none"/><text fill="#000000" stroke="none" font-family="Arial" font-size="13px" font-style="normal" font-weight="bold" text-decoration="none" x="444.279541015625" y="142.5">seq</text></g></g></g></svg>