<svg version="1.1" xmlns="http://www.w3.org/2000/svg" xmlns:xlink="http://www.w3.org/1999/xlink" width="710.17724609375" height="524"><defs/><g><text fill="#eeeeee" stroke="none" font-family="Arial" font-size="24px" font-style="normal" font-weight="normal" text-decoration="none" x="0" y="0">UNREGISTERED</text><text fill="#eeeeee" stroke="none" font-family="Arial" font-size="24px" font-style="normal" font-weight="normal" text-decoration="none" x="0" y="30">UNREGISTERED</text><text fill="#eeeeee" stroke="none" font-family="Arial" font-size="24px" font-style="normal" font-weight="normal" text-decoration="none" x="0" y="60">UNREGISTERED</text><text fill="#eeeeee" stroke="none" font-family="Arial" font-size="24px" font-style="normal" font-weight="normal" text-decoration="none" x="0" y="90">UNREGISTERED</text><text fill="#eeeeee" stroke="none" font-family="Arial" font-size="24px" font-style="normal" font-weight="normal" text-decoration="none" x="0" y="120">UNREGISTERED</text><text fill="#eeeeee" stroke="none" font-family="Arial" font-size="24px" font-style="normal" font-weight="normal" text-decoration="none" x="0" y="150">UNREGISTERED</text><text fill="#eeeeee" stroke="none" font-family="Arial" font-size="24px" font-style="normal" font-weight="normal" text-decoration="none" x="0" y="180">UNREGISTERED</text><text fill="#eeeeee" stroke="none" font-family="Arial" font-size="24px" font-style="normal" font-weight="normal" text-decoration="none" x="0" y="210">UNREGISTERED</text><text fill="#eeeeee" stroke="none" font-family="Arial" font-size="24px" font-style="normal" font-weight="normal" text-decoration="none" x="0" y="240">UNREGISTERED</text><text fill="#eeeeee" stroke="none" font-family="Arial" font-size="24px" font-style="normal" font-weight="normal" text-decoration="none" x="0" y="270">UNREGISTERED</text><text fill="#eeeeee" stroke="none" font-family="Arial" font-size="24px" font-style="normal" font-weight="normal" text-decoration="none" x="0" y="300">UNREGISTERED</text><text fill="#eeeeee" stroke="none" font-family="Arial" font-size="24px" font-style="normal" font-weight="normal" text-decoration="none" x="0" y="330">UNREGISTERED</text><text fill="#eeeeee" stroke="none" font-family="Arial" font-size="24px" font-style="normal" font-weight="normal" text-decoration="none" x="0" y="360">UNREGISTERED</text><text fill="#eeeeee" stroke="none" font-family="Arial" font-size="24px" font-style="normal" font-weight="normal" text-decoration="none" x="0" y="390">UNREGISTERED</text><text fill="#eeeeee" stroke="none" font-family="Arial" font-size="24px" font-style="normal" font-weight="normal" text-decoration="none" x="0" y="420">UNREGISTERED</text><text fill="#eeeeee" stroke="none" font-family="Arial" font-size="24px" font-style="normal" font-weight="normal" text-decoration="none" x="0" y="450">UNREGISTERED</text><text fill="#eeeeee" stroke="none" font-family="Arial" font-size="24px" font-style="normal" font-weight="normal" text-decoration="none" x="0" y="480">UNREGISTERED</text><text fill="#eeeeee" stroke="none" font-family="Arial" font-size="24px" font-style="normal" font-weight="normal" text-decoration="none" x="0" y="510">UNREGISTERED</text><text fill="#eeeeee" stroke="none" font-family="Arial" font-size="24px" font-style="normal" font-weight="normal" text-decoration="none" x="200" y="0">UNREGISTERED</text><text fill="#eeeeee" stroke="none" font-family="Arial" font-size="24px" font-style="normal" font-weight="normal" text-decoration="none" x="200" y="30">UNREGISTERED</text><text fill="#eeeeee" stroke="none" font-family="Arial" font-size="24px" font-style="normal" font-weight="normal" text-decoration="none" x="200" y="60">UNREGISTERED</text><text fill="#eeeeee" stroke="none" font-family="Arial" font-size="24px" font-style="normal" font-weight="normal" text-decoration="none" x="200" y="90">UNREGISTERED</text><text fill="#eeeeee" stroke="none" font-family="Arial" font-size="24px" font-style="normal" font-weight="normal" text-decoration="none" x="200" y="120">UNREGISTERED</text><text fill="#eeeeee" stroke="none" font-family="Arial" font-size="24px" font-style="normal" font-weight="normal" text-decoration="none" x="200" y="150">UNREGISTERED</text><text fill="#eeeeee" stroke="none" font-family="Arial" font-size="24px" font-style="normal" font-weight="normal" text-decoration="none" x="200" y="180">UNREGISTERED</text><text fill="#eeeeee" stroke="none" font-family="Arial" font-size="24px" font-style="normal" font-weight="normal" text-decoration="none" x="200" y="210">UNREGISTERED</text><text fill="#eeeeee" stroke="none" font-family="Arial" font-size="24px" font-style="normal" font-weight="normal" text-decoration="none" x="200" y="240">UNREGISTERED</text><text fill="#eeeeee" stroke="none" font-family="Arial" font-size="24px" font-style="normal" font-weight="normal" text-decoration="none" x="200" y="270">UNREGISTERED</text><text fill="#eeeeee" stroke="none" font-family="Arial" font-size="24px" font-style="normal" font-weight="normal" text-decoration="none" x="200" y="300">UNREGISTERED</text><text fill="#eeeeee" stroke="none" font-family="Arial" font-size="24px" font-style="normal" font-weight="normal" text-decoration="none" x="200" y="330">UNREGISTERED</text><text fill="#eeeeee" stroke="none" font-family="Arial" font-size="24px" font-style="normal" font-weight="normal" text-decoration="none" x="200" y="360">UNREGISTERED</text><text fill="#eeeeee" stroke="none" font-family="Arial" font-size="24px" font-style="normal" font-weight="normal" text-decoration="none" x="200" y="390">UNREGISTERED</text><text fill="#eeeeee" stroke="none" font-family="Arial" font-size="24px" font-style="normal" font-weight="normal" text-decoration="none" x="200" y="420">UNREGISTERED</text><text fill="#eeeeee" stroke="none" font-family="Arial" font-size="24px" font-style="normal" font-weight="normal" text-decoration="none" x="200" y="450">UNREGISTERED</text><text fill="#eeeeee" stroke="none" font-family="Arial" font-size="24px" font-style="normal" font-weight="normal" text-decoration="none" x="200" y="480">UNREGISTERED</text><text fill="#eeeeee" stroke="none" font-family="Arial" font-size="24px" font-style="normal" font-weight="normal" text-decoration="none" x="200" y="510">UNREGISTERED</text><text fill="#eeeeee" stroke="none" font-family="Arial" font-size="24px" font-style="normal" font-weight="normal" text-decoration="none" x="400" y="0">UNREGISTERED</text><text fill="#eeeeee" stroke="none" font-family="Arial" font-size="24px" font-style="normal" font-weight="normal" text-decoration="none" x="400" y="30">UNREGISTERED</text><text fill="#eeeeee" stroke="none" font-family="Arial" font-size="24px" font-style="normal" font-weight="normal" text-decoration="none" x="400" y="60">UNREGISTERED</text><text fill="#eeeeee" stroke="none" font-family="Arial" font-size="24px" font-style="normal" font-weight="normal" text-decoration="none" x="400" y="90">UNREGISTERED</text><text fill="#eeeeee" stroke="none" font-family="Arial" font-size="24px" font-style="normal" font-weight="normal" text-decoration="none" x="400" y="120">UNREGISTERED</text><text fill="#eeeeee" stroke="none" font-family="Arial" font-size="24px" font-style="normal" font-weight="normal" text-decoration="none" x="400" y="150">UNREGISTERED</text><text fill="#eeeeee" stroke="none" font-family="Arial" font-size="24px" font-style="normal" font-weight="normal" text-decoration="none" x="400" y="180">UNREGISTERED</text><text fill="#eeeeee" stroke="none" font-family="Arial" font-size="24px" font-style="normal" font-weight="normal" text-decoration="none" x="400" y="210">UNREGISTERED</text><text fill="#eeeeee" stroke="none" font-family="Arial" font-size="24px" font-style="normal" font-weight="normal" text-decoration="none" x="400" y="240">UNREGISTERED</text><text fill="#eeeeee" stroke="none" font-family="Arial" font-size="24px" font-style="normal" font-weight="normal" text-decoration="none" x="400" y="270">UNREGISTERED</text><text fill="#eeeeee" stroke="none" font-family="Arial" font-size="24px" font-style="normal" font-weight="normal" text-decoration="none" x="400" y="300">UNREGISTERED</text><text fill="#eeeeee" stroke="none" font-family="Arial" font-size="24px" font-style="normal" font-weight="normal" text-decoration="none" x="400" y="330">UNREGISTERED</text><text fill="#eeeeee" stroke="none" font-family="Arial" font-size="24px" font-style="normal" font-weight="normal" text-decoration="none" x="400" y="360">UNREGISTERED</text><text fill="#eeeeee" stroke="none" font-family="Arial" font-size="24px" font-style="normal" font-weight="normal" text-decoration="none" x="400" y="390">UNREGISTERED</text><text fill="#eeeeee" stroke="none" font-family="Arial" font-size="24px" font-style="normal" font-weight="normal" text-decoration="none" x="400" y="420">UNREGISTERED</text><text fill="#eeeeee" stroke="none" font-family="Arial" font-size="24px" font-style="normal" font-weight="normal" text-decoration="none" x="400" y="450">UNREGISTERED</text><text fill="#eeeeee" stroke="none" font-family="Arial" font-size="24px" font-style="normal" font-weight="normal" text-decoration="none" x="400" y="480">UNREGISTERED</text><text fill="#eeeeee" stroke="none" font-family="Arial" font-size="24px" font-style="normal" font-weight="normal" text-decoration="none" x="400" y="510">UNREGISTERED</text><text fill="#eeeeee" stroke="none" font-family="Arial" font-size="24px" font-style="normal" font-weight="normal" text-decoration="none" x="600" y="0">UNREGISTERED</text><text fill="#eeeeee" stroke="none" font-family="Arial" font-size="24px" font-style="normal" font-weight="normal" text-decoration="none" x="600" y="30">UNREGISTERED</text><text fill="#eeeeee" stroke="none" font-family="Arial" font-size="24px" font-style="normal" font-weight="normal" text-decoration="none" x="600" y="60">UNREGISTERED</text><text fill="#eeeeee" stroke="none" font-family="Arial" font-size="24px" font-style="normal" font-weight="normal" text-decoration="none" x="600" y="90">UNREGISTERED</text><text fill="#eeeeee" stroke="none" font-family="Arial" font-size="24px" font-style="normal" font-weight="normal" text-decoration="none" x="600" y="120">UNREGISTERED</text><text fill="#eeeeee" stroke="none" font-family="Arial" font-size="24px" font-style="normal" font-weight="normal" text-decoration="none" x="600" y="150">UNREGISTERED</text><text fill="#eeeeee" stroke="none" font-family="Arial" font-size="24px" font-style="normal" font-weight="normal" text-decoration="none" x="600" y="180">UNREGISTERED</text><text fill="#eeeeee" stroke="none" font-family="Arial" font-size="24px" font-style="normal" font-weight="normal" text-decoration="none" x="600" y="210">UNREGISTERED</text><text fill="#eeeeee" stroke="none" font-family="Arial" font-size="24px" font-style="normal" font-weight="normal" text-decoration="none" x="600" y="240">UNREGISTERED</text><text fill="#eeeeee" stroke="none" font-family="Arial" font-size="24px" font-style="normal" font-weight="normal" text-decoration="none" x="600" y="270">UNREGISTERED</text><text fill="#eeeeee" stroke="none" font-family="Arial" font-size="24px" font-style="normal" font-weight="normal" text-decoration="none" x="600" y="300">UNREGISTERED</text><text fill="#eeeeee" stroke="none" font-family="Arial" font-size="24px" font-style="normal" font-weight="normal" text-decoration="none" x="600" y="330">UNREGISTERED</text><text fill="#eeeeee" stroke="none" font-family="Arial" font-size="24px" font-style="normal" font-weight="normal" text-decoration="none" x="600" y="360">UNREGISTERED</text><text fill="#eeeeee" stroke="none" font-family="Arial" font-size="24px" font-style="normal" font-weight="normal" text-decoration="none" x="600" y="390">UNREGISTERED</text><text fill="#eeeeee" stroke="none" font-family="Arial" font-size="24px" font-style="normal" font-weight="normal" text-decoration="none" x="600" y="420">UNREGISTERED</text><text fill="#eeeeee" stroke="none" font-family="Arial" font-size="24px" font-style="normal" font-weight="normal" text-decoration="none" x="600" y="450">UNREGISTERED</text><text fill="#eeeeee" stroke="none" font-family="Arial" font-size="24px" font-style="normal" font-weight="normal" text-decoration="none" x="600" y="480">UNREGISTERED</text><text fill="#eeeeee" stroke="none" font-family="Arial" font-size="24px" font-style="normal" font-weight="normal" text-decoration="none" x="600" y="510">UNREGISTERED</text><g transform="translate(-70,-134) scale(1,1)"><path fill="#C0C0C0" stroke="none" d="M 319 199 C 319 185.7451648 358.6227952 175 407.5 175 C 456.3772048 175 496 185.7451648 496 199 C 496 212.2548352 456.3772048 223 407.5 223 C 358.6227952 223 319 212.2548352 319 199 Z" opacity="0.2"/></g><g transform="translate(-70,-134) scale(1,1)"><path fill="#ffffff" stroke="none" d="M 312 192 C 312 178.7451648 351.6227952 168 400.5 168 C 449.3772048 168 489 178.7451648 489 192 C 489 205.2548352 449.3772048 216 400.5 216 C 351.6227952 216 312 205.2548352 312 192 Z"/></g><g transform="translate(-70,-134) scale(1,1)"><path fill="none" stroke="#000000" d="M 312 192 C 312 178.7451648 351.6227952 168 400.5 168 C 449.3772048 168 489 178.7451648 489 192 C 489 205.2548352 449.3772048 216 400.5 216 C 351.6227952 216 312 205.2548352 312 192 Z" stroke-miterlimit="10"/></g><g transform="translate(-70,-134) scale(1,1)"><g><path fill="none" stroke="none"/><text fill="#000000" stroke="none" font-family="Arial" font-size="13px" font-style="normal" font-weight="bold" text-decoration="none" x="354.635009765625" y="197.5">Fazer o pedido</text></g></g><g transform="translate(-70,-134) scale(1,1)"><path fill="#ffffff" stroke="none" d="M 185.49162571022728 257.68 C 185.49162571022728 252.886167936 189.37746803517274 249 194.1708984375 249 C 198.96432883982726 249 202.85017116477272 252.886167936 202.85017116477272 257.68 C 202.85017116477272 262.473832064 198.96432883982726 266.36 194.1708984375 266.36 C 189.37746803517274 266.36 185.49162571022728 262.473832064 185.49162571022728 257.68 Z"/></g><g transform="translate(-70,-134) scale(1,1)"><path fill="none" stroke="#000000" d="M 185.49162571022728 257.68 C 185.49162571022728 252.886167936 189.37746803517274 249 194.1708984375 249 C 198.96432883982726 249 202.85017116477272 252.886167936 202.85017116477272 257.68 C 202.85017116477272 262.473832064 198.96432883982726 266.36 194.1708984375 266.36 C 189.37746803517274 266.36 185.49162571022728 262.473832064 185.49162571022728 257.68 Z" stroke-miterlimit="10"/></g><g transform="translate(-70,-134) scale(1,1)"><path fill="none" stroke="#000000" d="M 194.1708984375 266.36 L 194.1708984375 283.64" stroke-miterlimit="10"/></g><g transform="translate(-70,-134) scale(1,1)"><path fill="none" stroke="#000000" d="M 184.98108025568183 272.84 L 203.36071661931817 272.84" stroke-miterlimit="10"/></g><g transform="translate(-70,-134) scale(1,1)"><path fill="none" stroke="#000000" d="M 194.1708984375 283.64 L 181.40726207386365 301" stroke-miterlimit="10"/></g><g transform="translate(-70,-134) scale(1,1)"><path fill="none" stroke="#000000" d="M 194.1708984375 283.64 L 206.93453480113635 301" stroke-miterlimit="10"/></g><g transform="translate(-70,-134) scale(1,1)"><g><path fill="none" stroke="none"/><text fill="#000000" stroke="none" font-family="Arial" font-size="13px" font-style="normal" font-weight="bold" text-decoration="none" x="172.5" y="320">Cliente</text></g></g><g transform="translate(-70,-134) scale(1,1)"><path fill="#C0C0C0" stroke="none" d="M 343 279 C 343 265.7451648 380.6080768 255 427 255 C 473.3919232 255 511 265.7451648 511 279 C 511 292.2548352 473.3919232 303 427 303 C 380.6080768 303 343 292.2548352 343 279 Z" opacity="0.2"/></g><g transform="translate(-70,-134) scale(1,1)"><path fill="#ffffff" stroke="none" d="M 336 272 C 336 258.7451648 373.6080768 248 420 248 C 466.3919232 248 504 258.7451648 504 272 C 504 285.2548352 466.3919232 296 420 296 C 373.6080768 296 336 285.2548352 336 272 Z"/></g><g transform="translate(-70,-134) scale(1,1)"><path fill="none" stroke="#000000" d="M 336 272 C 336 258.7451648 373.6080768 248 420 248 C 466.3919232 248 504 258.7451648 504 272 C 504 285.2548352 466.3919232 296 420 296 C 373.6080768 296 336 285.2548352 336 272 Z" stroke-miterlimit="10"/></g><g transform="translate(-70,-134) scale(1,1)"><g><path fill="none" stroke="none"/><text fill="#000000" stroke="none" font-family="Arial" font-size="13px" font-style="normal" font-weight="bold" text-decoration="none" x="384.964111328125" y="277.5">Pagamento</text></g></g><g transform="translate(-70,-134) scale(1,1)"><path fill="none" stroke="#000000" d="M 221 274 L 346 217" stroke-miterlimit="10"/></g><g transform="translate(-70,-134) scale(1,1)"><path fill="none" stroke="#000000" d="M 221 285 L 335 278" stroke-miterlimit="10"/></g><g transform="translate(-70,-134) scale(1,1)"><path fill="#ffffff" stroke="none" d="M 719.5770749289773 497.68 C 719.5770749289773 492.886167936 723.4629172539227 489 728.25634765625 489 C 733.0497780585773 489 736.9356203835227 492.886167936 736.9356203835227 497.68 C 736.9356203835227 502.473832064 733.0497780585773 506.36 728.25634765625 506.36 C 723.4629172539227 506.36 719.5770749289773 502.473832064 719.5770749289773 497.68 Z"/></g><g transform="translate(-70,-134) scale(1,1)"><path fill="none" stroke="#000000" d="M 719.5770749289773 497.68 C 719.5770749289773 492.886167936 723.4629172539227 489 728.25634765625 489 C 733.0497780585773 489 736.9356203835227 492.886167936 736.9356203835227 497.68 C 736.9356203835227 502.473832064 733.0497780585773 506.36 728.25634765625 506.36 C 723.4629172539227 506.36 719.5770749289773 502.473832064 719.5770749289773 497.68 Z" stroke-miterlimit="10"/></g><g transform="translate(-70,-134) scale(1,1)"><path fill="none" stroke="#000000" d="M 728.25634765625 506.36 L 728.25634765625 523.64" stroke-miterlimit="10"/></g><g transform="translate(-70,-134) scale(1,1)"><path fill="none" stroke="#000000" d="M 719.0665294744318 512.84 L 737.4461658380682 512.84" stroke-miterlimit="10"/></g><g transform="translate(-70,-134) scale(1,1)"><path fill="none" stroke="#000000" d="M 728.25634765625 523.64 L 715.4927112926136 541" stroke-miterlimit="10"/></g><g transform="translate(-70,-134) scale(1,1)"><path fill="none" stroke="#000000" d="M 728.25634765625 523.64 L 741.0199840198864 541" stroke-miterlimit="10"/></g><g transform="translate(-70,-134) scale(1,1)"><g><path fill="none" stroke="none"/><text fill="#000000" stroke="none" font-family="Arial" font-size="13px" font-style="normal" font-weight="bold" text-decoration="none" x="692.5" y="560">Fornecedor</text></g></g><g transform="translate(-70,-134) scale(1,1)"><path fill="#C0C0C0" stroke="none" d="M 367 546.5 C 367 531.312168 402.1456432 519 445.5 519 C 488.8543568 519 524 531.312168 524 546.5 C 524 561.687832 488.8543568 574 445.5 574 C 402.1456432 574 367 561.687832 367 546.5 Z" opacity="0.2"/></g><g transform="translate(-70,-134) scale(1,1)"><path fill="#ffffff" stroke="none" d="M 360 539.5 C 360 524.312168 395.1456432 512 438.5 512 C 481.8543568 512 517 524.312168 517 539.5 C 517 554.687832 481.8543568 567 438.5 567 C 395.1456432 567 360 554.687832 360 539.5 Z"/></g><g transform="translate(-70,-134) scale(1,1)"><path fill="none" stroke="#000000" d="M 360 539.5 C 360 524.312168 395.1456432 512 438.5 512 C 481.8543568 512 517 524.312168 517 539.5 C 517 554.687832 481.8543568 567 438.5 567 C 395.1456432 567 360 554.687832 360 539.5 Z" stroke-miterlimit="10"/></g><g transform="translate(-70,-134) scale(1,1)"><g><path fill="none" stroke="none"/><text fill="#000000" stroke="none" font-family="Arial" font-size="13px" font-style="normal" font-weight="bold" text-decoration="none" x="387.582275390625" y="545">Envio do Pedido</text></g></g><g transform="translate(-70,-134) scale(1,1)"><path fill="none" stroke="#000000" d="M 687 529 L 518 536" stroke-miterlimit="10"/></g><g transform="translate(-70,-134) scale(1,1)"><path fill="#C0C0C0" stroke="none" d="M 351 366.5 C 351 353.5213072 387.936504 343 433.5 343 C 479.063496 343 516 353.5213072 516 366.5 C 516 379.4786928 479.063496 390 433.5 390 C 387.936504 390 351 379.4786928 351 366.5 Z" opacity="0.2"/></g><g transform="translate(-70,-134) scale(1,1)"><path fill="#ffffff" stroke="none" d="M 344 359.5 C 344 346.5213072 380.936504 336 426.5 336 C 472.063496 336 509 346.5213072 509 359.5 C 509 372.4786928 472.063496 383 426.5 383 C 380.936504 383 344 372.4786928 344 359.5 Z"/></g><g transform="translate(-70,-134) scale(1,1)"><path fill="none" stroke="#000000" d="M 344 359.5 C 344 346.5213072 380.936504 336 426.5 336 C 472.063496 336 509 346.5213072 509 359.5 C 509 372.4786928 472.063496 383 426.5 383 C 380.936504 383 344 372.4786928 344 359.5 Z" stroke-miterlimit="10"/></g><g transform="translate(-70,-134) scale(1,1)"><g><path fill="none" stroke="none"/><text fill="#000000" stroke="none" font-family="Arial" font-size="13px" font-style="normal" font-weight="bold" text-decoration="none" x="372.795654296875" y="365">Visualizar Pedido</text></g></g><g transform="translate(-70,-134) scale(1,1)"><path fill="#C0C0C0" stroke="none" d="M 359 446.5 C 359 433.5213072 398.6227952 423 447.5 423 C 496.3772048 423 536 433.5213072 536 446.5 C 536 459.4786928 496.3772048 470 447.5 470 C 398.6227952 470 359 459.4786928 359 446.5 Z" opacity="0.2"/></g><g transform="translate(-70,-134) scale(1,1)"><path fill="#ffffff" stroke="none" d="M 352 439.5 C 352 426.5213072 391.6227952 416 440.5 416 C 489.3772048 416 529 426.5213072 529 439.5 C 529 452.4786928 489.3772048 463 440.5 463 C 391.6227952 463 352 452.4786928 352 439.5 Z"/></g><g transform="translate(-70,-134) scale(1,1)"><path fill="none" stroke="#000000" d="M 352 439.5 C 352 426.5213072 391.6227952 416 440.5 416 C 489.3772048 416 529 426.5213072 529 439.5 C 529 452.4786928 489.3772048 463 440.5 463 C 391.6227952 463 352 452.4786928 352 439.5 Z" stroke-miterlimit="10"/></g><g transform="translate(-70,-134) scale(1,1)"><g><path fill="none" stroke="none"/><text fill="#000000" stroke="none" font-family="Arial" font-size="13px" font-style="normal" font-weight="bold" text-decoration="none" x="382.34912109375" y="445">Autenticar Usuário</text></g></g><g transform="translate(-70,-134) scale(1,1)"><path fill="none" stroke="#000000" d="M 221 304 L 401 415" stroke-miterlimit="10"/></g><g transform="translate(-70,-134) scale(1,1)"><path fill="none" stroke="#000000" d="M 221 295 L 349 335" stroke-miterlimit="10"/></g><g transform="translate(-70,-134) scale(1,1)"><path fill="#C0C0C0" stroke="none" d="M 87 462.5 C 87 449.5213072 132.6669504 439 189 439 C 245.3330496 439 291 449.5213072 291 462.5 C 291 475.4786928 245.3330496 486 189 486 C 132.6669504 486 87 475.4786928 87 462.5 Z" opacity="0.2"/></g><g transform="translate(-70,-134) scale(1,1)"><path fill="#ffffff" stroke="none" d="M 80 455.5 C 80 442.5213072 125.66695039999999 432 182 432 C 238.3330496 432 284 442.5213072 284 455.5 C 284 468.4786928 238.3330496 479 182 479 C 125.66695039999999 479 80 468.4786928 80 455.5 Z"/></g><g transform="translate(-70,-134) scale(1,1)"><path fill="none" stroke="#000000" d="M 80 455.5 C 80 442.5213072 125.66695039999999 432 182 432 C 238.3330496 432 284 442.5213072 284 455.5 C 284 468.4786928 238.3330496 479 182 479 C 125.66695039999999 479 80 468.4786928 80 455.5 Z" stroke-miterlimit="10"/></g><g transform="translate(-70,-134) scale(1,1)"><g><path fill="none" stroke="none"/><text fill="#000000" stroke="none" font-family="Arial" font-size="13px" font-style="normal" font-weight="bold" text-decoration="none" x="114.451416015625" y="461">Autenticação Positiva</text></g></g><g transform="translate(-70,-134) scale(1,1)"><path fill="#C0C0C0" stroke="none" d="M 583 234.5 C 583 223.7304464 605.6096176 215 633.5 215 C 661.3903824 215 684 223.7304464 684 234.5 C 684 245.2695536 661.3903824 254 633.5 254 C 605.6096176 254 583 245.2695536 583 234.5 Z" opacity="0.2"/></g><g transform="translate(-70,-134) scale(1,1)"><path fill="#ffffff" stroke="none" d="M 576 227.5 C 576 216.7304464 598.6096176 208 626.5 208 C 654.3903824 208 677 216.7304464 677 227.5 C 677 238.2695536 654.3903824 247 626.5 247 C 598.6096176 247 576 238.2695536 576 227.5 Z"/></g><g transform="translate(-70,-134) scale(1,1)"><path fill="none" stroke="#000000" d="M 576 227.5 C 576 216.7304464 598.6096176 208 626.5 208 C 654.3903824 208 677 216.7304464 677 227.5 C 677 238.2695536 654.3903824 247 626.5 247 C 598.6096176 247 576 238.2695536 576 227.5 Z" stroke-miterlimit="10"/></g><g transform="translate(-70,-134) scale(1,1)"><g><path fill="none" stroke="none"/><text fill="#000000" stroke="none" font-family="Arial" font-size="13px" font-style="normal" font-weight="bold" text-decoration="none" x="597.240478515625" y="233">Pagar CC</text></g></g><g transform="translate(-70,-134) scale(1,1)"><path fill="#C0C0C0" stroke="none" d="M 591 312 C 591 302.6111584 613.6096176 295 641.5 295 C 669.3903824 295 692 302.6111584 692 312 C 692 321.3888416 669.3903824 329 641.5 329 C 613.6096176 329 591 321.3888416 591 312 Z" opacity="0.2"/></g><g transform="translate(-70,-134) scale(1,1)"><path fill="#ffffff" stroke="none" d="M 584 305 C 584 295.6111584 606.6096176 288 634.5 288 C 662.3903824 288 685 295.6111584 685 305 C 685 314.3888416 662.3903824 322 634.5 322 C 606.6096176 322 584 314.3888416 584 305 Z"/></g><g transform="translate(-70,-134) scale(1,1)"><path fill="none" stroke="#000000" d="M 584 305 C 584 295.6111584 606.6096176 288 634.5 288 C 662.3903824 288 685 295.6111584 685 305 C 685 314.3888416 662.3903824 322 634.5 322 C 606.6096176 322 584 314.3888416 584 305 Z" stroke-miterlimit="10"/></g><g transform="translate(-70,-134) scale(1,1)"><g><path fill="none" stroke="none"/><text fill="#000000" stroke="none" font-family="Arial" font-size="13px" font-style="normal" font-weight="bold" text-decoration="none" x="604.15185546875" y="310.5">Pagar PIX</text></g></g><g transform="translate(-70,-134) scale(1,1)"><path fill="none" stroke="#000000" d="M 583 297 L 505 285" stroke-miterlimit="10" stroke-dasharray="3"/></g><g transform="translate(-70,-134) scale(1,1)"><path fill="none" stroke="#000000" d="M 515.684587618748 282.38473951253474 L 505 285 L 514.4044127846545 290.70587593414257" stroke-miterlimit="10"/></g><g transform="translate(-70,-134) scale(1,1)"><g><path fill="none" stroke="none"/><text fill="#000000" stroke="none" font-family="Arial" font-size="13px" font-style="normal" font-weight="normal" text-decoration="none" x="512.5" y="325">«extend»</text></g></g><g transform="translate(-70,-134) scale(1,1)"><path fill="none" stroke="#000000" d="M 575 238 L 505 253" stroke-miterlimit="10" stroke-dasharray="3"/></g><g transform="translate(-70,-134) scale(1,1)"><path fill="none" stroke="#000000" d="M 514.0550715898543 246.7545473740797 L 505 253 L 515.8191044286832 254.98670062194802" stroke-miterlimit="10"/></g><g transform="translate(-70,-134) scale(1,1)"><g><path fill="none" stroke="none"/><text fill="#000000" stroke="none" font-family="Arial" font-size="13px" font-style="normal" font-weight="normal" text-decoration="none" x="519.5" y="279">«extend»</text></g></g><g transform="translate(-70,-134) scale(1,1)"><path fill="none" stroke="#000000" d="M 285 449 L 351 445" stroke-miterlimit="10" stroke-dasharray="3"/></g><g transform="translate(-70,-134) scale(1,1)"><path fill="none" stroke="#000000" d="M 341.1105931465267 449.81659963942155 L 351 445 L 340.6012830847007 441.412983619292" stroke-miterlimit="10"/></g><g transform="translate(-70,-134) scale(1,1)"><g><path fill="none" stroke="none"/><text fill="#000000" stroke="none" font-family="Arial" font-size="13px" font-style="normal" font-weight="normal" text-decoration="none" x="289.5" y="422">«extend»</text></g></g><g transform="translate(-70,-134) scale(1,1)"><path fill="#ffffff" stroke="none" d="M 736.4093503196023 153.68 C 736.4093503196023 148.886167936 740.2951926445477 145 745.088623046875 145 C 749.8820534492023 145 753.7678957741477 148.886167936 753.7678957741477 153.68 C 753.7678957741477 158.47383206400002 749.8820534492023 162.36 745.088623046875 162.36 C 740.2951926445477 162.36 736.4093503196023 158.47383206400002 736.4093503196023 153.68 Z"/></g><g transform="translate(-70,-134) scale(1,1)"><path fill="none" stroke="#000000" d="M 736.4093503196023 153.68 C 736.4093503196023 148.886167936 740.2951926445477 145 745.088623046875 145 C 749.8820534492023 145 753.7678957741477 148.886167936 753.7678957741477 153.68 C 753.7678957741477 158.47383206400002 749.8820534492023 162.36 745.088623046875 162.36 C 740.2951926445477 162.36 736.4093503196023 158.47383206400002 736.4093503196023 153.68 Z" stroke-miterlimit="10"/></g><g transform="translate(-70,-134) scale(1,1)"><path fill="none" stroke="#000000" d="M 745.088623046875 162.36 L 745.088623046875 179.64" stroke-miterlimit="10"/></g><g transform="translate(-70,-134) scale(1,1)"><path fill="none" stroke="#000000" d="M 735.8988048650568 168.84 L 754.2784412286932 168.84" stroke-miterlimit="10"/></g><g transform="translate(-70,-134) scale(1,1)"><path fill="none" stroke="#000000" d="M 745.088623046875 179.64 L 732.3249866832386 197" stroke-miterlimit="10"/></g><g transform="translate(-70,-134) scale(1,1)"><path fill="none" stroke="#000000" d="M 745.088623046875 179.64 L 757.8522594105114 197" stroke-miterlimit="10"/></g><g transform="translate(-70,-134) scale(1,1)"><g><path fill="none" stroke="none"/><text fill="#000000" stroke="none" font-family="Arial" font-size="13px" font-style="normal" font-weight="bold" text-decoration="none" x="725.2236328125" y="216">Banco</text></g></g><g transform="translate(-70,-134) scale(1,1)"><path fill="none" stroke="#000000" d="M 678 208 L 719 193" stroke-miterlimit="10"/></g><g transform="translate(-70,-134) scale(1,1)"><path fill="#C0C0C0" stroke="none" d="M 343 631 C 343 617.7451648 381.9512224 607 430 607 C 478.0487776 607 517 617.7451648 517 631 C 517 644.2548352 478.0487776 655 430 655 C 381.9512224 655 343 644.2548352 343 631 Z" opacity="0.2"/></g><g transform="translate(-70,-134) scale(1,1)"><path fill="#ffffff" stroke="none" d="M 336 624 C 336 610.7451648 374.9512224 600 423 600 C 471.0487776 600 510 610.7451648 510 624 C 510 637.2548352 471.0487776 648 423 648 C 374.9512224 648 336 637.2548352 336 624 Z"/></g><g transform="translate(-70,-134) scale(1,1)"><path fill="none" stroke="#000000" d="M 336 624 C 336 610.7451648 374.9512224 600 423 600 C 471.0487776 600 510 610.7451648 510 624 C 510 637.2548352 471.0487776 648 423 648 C 374.9512224 648 336 637.2548352 336 624 Z" stroke-miterlimit="10"/></g><g transform="translate(-70,-134) scale(1,1)"><g><path fill="none" stroke="none"/><text fill="#000000" stroke="none" font-family="Arial" font-size="13px" font-style="normal" font-weight="bold" text-decoration="none" x="365.9345703125" y="629.5">Cadastrar Produto</text></g></g><g transform="translate(-70,-134) scale(1,1)"><path fill="none" stroke="#000000" d="M 502 599 L 687 540" stroke-miterlimit="10"/></g><g transform="translate(-70,-134) scale(1,1)"><path fill="none" stroke="#000000" d="M 522 464 L 687 514" stroke-miterlimit="10"/></g></g></svg>